<?xml version="1.0" encoding="UTF-8" standalone="no"?>
<!DOCTYPE svg PUBLIC "-//W3C//DTD SVG 1.1//EN"
 "http://www.w3.org/Graphics/SVG/1.1/DTD/svg11.dtd">
<!-- Generated by graphviz version 2.43.0 (0)
 -->
<!-- Title: udp::ISocket Pages: 1 -->
<svg width="208pt" height="397pt"
 viewBox="0.00 0.00 208.00 397.00" xmlns="http://www.w3.org/2000/svg" xmlns:xlink="http://www.w3.org/1999/xlink">
<g id="graph0" class="graph" transform="scale(1 1) rotate(0) translate(4 393)">
<title>udp::ISocket</title>
<!-- Node1 -->
<g id="Node000001" class="node">
<title>Node1</title>
<g id="a_Node000001"><a xlink:title="Abstract socket interface (strategy/port).">
<polygon fill="#999999" stroke="transparent" points="143,-389 58,-389 58,-235 143,-235 143,-389"/>
<text text-anchor="start" x="71" y="-377" font-family="Helvetica,sans-Serif" font-size="10.00">udp::ISocket</text>
<text text-anchor="start" x="99" y="-362" font-family="Helvetica,sans-Serif" font-size="10.00"> </text>
<text text-anchor="start" x="62.5" y="-347" font-family="Helvetica,sans-Serif" font-size="10.00">+</text>
<text text-anchor="start" x="75.5" y="-347" font-family="Helvetica,sans-Serif" font-size="10.00">~ISocket()</text>
<text text-anchor="start" x="62.5" y="-332" font-family="Helvetica,sans-Serif" font-size="10.00">+</text>
<text text-anchor="start" x="75.5" y="-332" font-family="Helvetica,sans-Serif" font-size="10.00">fd()</text>
<text text-anchor="start" x="62.5" y="-317" font-family="Helvetica,sans-Serif" font-size="10.00">+</text>
<text text-anchor="start" x="75.5" y="-317" font-family="Helvetica,sans-Serif" font-size="10.00">bind()</text>
<text text-anchor="start" x="62.5" y="-302" font-family="Helvetica,sans-Serif" font-size="10.00">+</text>
<text text-anchor="start" x="75.5" y="-302" font-family="Helvetica,sans-Serif" font-size="10.00">connect()</text>
<text text-anchor="start" x="62.5" y="-287" font-family="Helvetica,sans-Serif" font-size="10.00">+</text>
<text text-anchor="start" x="75.5" y="-287" font-family="Helvetica,sans-Serif" font-size="10.00">recv_batch()</text>
<text text-anchor="start" x="62.5" y="-272" font-family="Helvetica,sans-Serif" font-size="10.00">+</text>
<text text-anchor="start" x="75.5" y="-272" font-family="Helvetica,sans-Serif" font-size="10.00">send_batch()</text>
<text text-anchor="start" x="62.5" y="-257" font-family="Helvetica,sans-Serif" font-size="10.00">+</text>
<text text-anchor="start" x="75.5" y="-257" font-family="Helvetica,sans-Serif" font-size="10.00">set_rcvbuf()</text>
<text text-anchor="start" x="62.5" y="-242" font-family="Helvetica,sans-Serif" font-size="10.00">+</text>
<text text-anchor="start" x="75.5" y="-242" font-family="Helvetica,sans-Serif" font-size="10.00">set_sndbuf()</text>
<polygon fill="#666666" stroke="#666666" points="58.5,-372 58.5,-372 143.5,-372 143.5,-372 58.5,-372"/>
<polygon fill="#666666" stroke="#666666" points="58.5,-357 58.5,-357 143.5,-357 143.5,-357 58.5,-357"/>
<polygon fill="none" stroke="#666666" points="58,-235 58,-389 143,-389 143,-235 58,-235"/>
</a>
</g>
</g>
<!-- Node2 -->
<g id="Node000002" class="node">
<title>Node2</title>
<g id="a_Node000002"><a xlink:href="classudp_1_1MockSocket.html" target="_top" xlink:title="In&#45;memory test double for ISocket (no real network I/O).">
<polygon fill="white" stroke="transparent" points="93,-199 0,-199 0,0 93,0 93,-199"/>
<text text-anchor="start" x="5.5" y="-186.5" font-family="Helvetica,sans-Serif" font-size="10.00">udp::MockSocket</text>
<text text-anchor="start" x="45" y="-171.5" font-family="Helvetica,sans-Serif" font-size="10.00"> </text>
<text text-anchor="start" x="4.5" y="-156.5" font-family="Helvetica,sans-Serif" font-size="10.00">+</text>
<text text-anchor="start" x="17.5" y="-156.5" font-family="Helvetica,sans-Serif" font-size="10.00">MockSocket()</text>
<text text-anchor="start" x="4.5" y="-141.5" font-family="Helvetica,sans-Serif" font-size="10.00">+</text>
<text text-anchor="start" x="17.5" y="-141.5" font-family="Helvetica,sans-Serif" font-size="10.00">fd()</text>
<text text-anchor="start" x="4.5" y="-126.5" font-family="Helvetica,sans-Serif" font-size="10.00">+</text>
<text text-anchor="start" x="17.5" y="-126.5" font-family="Helvetica,sans-Serif" font-size="10.00">bind()</text>
<text text-anchor="start" x="4.5" y="-111.5" font-family="Helvetica,sans-Serif" font-size="10.00">+</text>
<text text-anchor="start" x="17.5" y="-111.5" font-family="Helvetica,sans-Serif" font-size="10.00">connect()</text>
<text text-anchor="start" x="4.5" y="-96.5" font-family="Helvetica,sans-Serif" font-size="10.00">+</text>
<text text-anchor="start" x="17.5" y="-96.5" font-family="Helvetica,sans-Serif" font-size="10.00">recv_batch()</text>
<text text-anchor="start" x="4.5" y="-81.5" font-family="Helvetica,sans-Serif" font-size="10.00">+</text>
<text text-anchor="start" x="17.5" y="-81.5" font-family="Helvetica,sans-Serif" font-size="10.00">send_batch()</text>
<text text-anchor="start" x="4.5" y="-66.5" font-family="Helvetica,sans-Serif" font-size="10.00">+</text>
<text text-anchor="start" x="17.5" y="-66.5" font-family="Helvetica,sans-Serif" font-size="10.00">set_rcvbuf()</text>
<text text-anchor="start" x="4.5" y="-51.5" font-family="Helvetica,sans-Serif" font-size="10.00">+</text>
<text text-anchor="start" x="17.5" y="-51.5" font-family="Helvetica,sans-Serif" font-size="10.00">set_sndbuf()</text>
<text text-anchor="start" x="4.5" y="-36.5" font-family="Helvetica,sans-Serif" font-size="10.00">+</text>
<text text-anchor="start" x="17.5" y="-36.5" font-family="Helvetica,sans-Serif" font-size="10.00">preload_recv()</text>
<text text-anchor="start" x="4.5" y="-21.5" font-family="Helvetica,sans-Serif" font-size="10.00">+</text>
<text text-anchor="start" x="17.5" y="-21.5" font-family="Helvetica,sans-Serif" font-size="10.00">sent_count()</text>
<text text-anchor="start" x="4.5" y="-6.5" font-family="Helvetica,sans-Serif" font-size="10.00">+</text>
<text text-anchor="start" x="17.5" y="-6.5" font-family="Helvetica,sans-Serif" font-size="10.00">sent()</text>
<polygon fill="#666666" stroke="#666666" points="0.5,-181.5 0.5,-181.5 93.5,-181.5 93.5,-181.5 0.5,-181.5"/>
<polygon fill="#666666" stroke="#666666" points="0.5,-166.5 0.5,-166.5 93.5,-166.5 93.5,-166.5 0.5,-166.5"/>
<polygon fill="none" stroke="#666666" points="0,0 0,-199 93,-199 93,0 0,0"/>
</a>
</g>
</g>
<!-- Node1&#45;&gt;Node2 -->
<g id="edge1_Node000001_Node000002" class="edge">
<title>Node1&#45;&gt;Node2</title>
<g id="a_edge1_Node000001_Node000002"><a xlink:title=" ">
<path fill="none" stroke="#63b8ff" d="M78.41,-224.87C76.24,-216.42 74.02,-207.79 71.83,-199.22"/>
<polygon fill="none" stroke="#63b8ff" points="75.05,-225.89 80.93,-234.71 81.83,-224.15 75.05,-225.89"/>
</a>
</g>
</g>
<!-- Node3 -->
<g id="Node000003" class="node">
<title>Node3</title>
<g id="a_Node000003"><a xlink:href="classudp_1_1UdpSocket.html" target="_top" xlink:title="UDP socket implementation using POSIX/Linux syscalls.">
<polygon fill="white" stroke="transparent" points="200,-184 111,-184 111,-15 200,-15 200,-184"/>
<text text-anchor="start" x="118" y="-171.5" font-family="Helvetica,sans-Serif" font-size="10.00">udp::UdpSocket</text>
<text text-anchor="start" x="154" y="-156.5" font-family="Helvetica,sans-Serif" font-size="10.00"> </text>
<text text-anchor="start" x="115.5" y="-141.5" font-family="Helvetica,sans-Serif" font-size="10.00">+</text>
<text text-anchor="start" x="128.5" y="-141.5" font-family="Helvetica,sans-Serif" font-size="10.00">UdpSocket()</text>
<text text-anchor="start" x="115.5" y="-126.5" font-family="Helvetica,sans-Serif" font-size="10.00">+</text>
<text text-anchor="start" x="128.5" y="-126.5" font-family="Helvetica,sans-Serif" font-size="10.00">~UdpSocket()</text>
<text text-anchor="start" x="115.5" y="-111.5" font-family="Helvetica,sans-Serif" font-size="10.00">+</text>
<text text-anchor="start" x="128.5" y="-111.5" font-family="Helvetica,sans-Serif" font-size="10.00">fd()</text>
<text text-anchor="start" x="115.5" y="-96.5" font-family="Helvetica,sans-Serif" font-size="10.00">+</text>
<text text-anchor="start" x="128.5" y="-96.5" font-family="Helvetica,sans-Serif" font-size="10.00">bind()</text>
<text text-anchor="start" x="115.5" y="-81.5" font-family="Helvetica,sans-Serif" font-size="10.00">+</text>
<text text-anchor="start" x="128.5" y="-81.5" font-family="Helvetica,sans-Serif" font-size="10.00">connect()</text>
<text text-anchor="start" x="115.5" y="-66.5" font-family="Helvetica,sans-Serif" font-size="10.00">+</text>
<text text-anchor="start" x="128.5" y="-66.5" font-family="Helvetica,sans-Serif" font-size="10.00">recv_batch()</text>
<text text-anchor="start" x="115.5" y="-51.5" font-family="Helvetica,sans-Serif" font-size="10.00">+</text>
<text text-anchor="start" x="128.5" y="-51.5" font-family="Helvetica,sans-Serif" font-size="10.00">send_batch()</text>
<text text-anchor="start" x="115.5" y="-36.5" font-family="Helvetica,sans-Serif" font-size="10.00">+</text>
<text text-anchor="start" x="128.5" y="-36.5" font-family="Helvetica,sans-Serif" font-size="10.00">set_rcvbuf()</text>
<text text-anchor="start" x="115.5" y="-21.5" font-family="Helvetica,sans-Serif" font-size="10.00">+</text>
<text text-anchor="start" x="128.5" y="-21.5" font-family="Helvetica,sans-Serif" font-size="10.00">set_sndbuf()</text>
<polygon fill="#666666" stroke="#666666" points="111.5,-166.5 111.5,-166.5 200.5,-166.5 200.5,-166.5 111.5,-166.5"/>
<polygon fill="#666666" stroke="#666666" points="111.5,-151.5 111.5,-151.5 200.5,-151.5 200.5,-151.5 111.5,-151.5"/>
<polygon fill="none" stroke="#666666" points="111,-15 111,-184 200,-184 200,-15 111,-15"/>
</a>
</g>
</g>
<!-- Node1&#45;&gt;Node3 -->
<g id="edge2_Node000001_Node000003" class="edge">
<title>Node1&#45;&gt;Node3</title>
<g id="a_edge2_Node000001_Node000003"><a xlink:title=" ">
<path fill="none" stroke="#63b8ff" d="M122.98,-224.95C126.52,-211.43 130.16,-197.47 133.68,-184"/>
<polygon fill="none" stroke="#63b8ff" points="119.58,-224.15 120.43,-234.71 126.35,-225.92 119.58,-224.15"/>
</a>
</g>
</g>
</g>
</svg>
