<?xml version="1.0" encoding="UTF-8" standalone="no"?>
<!DOCTYPE svg PUBLIC "-//W3C//DTD SVG 1.1//EN"
 "http://www.w3.org/Graphics/SVG/1.1/DTD/svg11.dtd">
<!-- Generated by graphviz version 2.43.0 (0)
 -->
<!-- Title: udp::Stats::to_string Pages: 1 -->
<svg width="271pt" height="187pt"
 viewBox="0.00 0.00 271.00 186.50" xmlns="http://www.w3.org/2000/svg" xmlns:xlink="http://www.w3.org/1999/xlink">
<g id="graph0" class="graph" transform="scale(1 1) rotate(0) translate(4 182.5)">
<title>udp::Stats::to_string</title>
<!-- Node1 -->
<g id="Node000001" class="node">
<title>Node1</title>
<g id="a_Node000001"><a xlink:title="Produce a single&#45;line human&#45;readable snapshot of all counters.">
<polygon fill="#999999" stroke="#666666" points="114,-104.5 0,-104.5 0,-85.5 114,-85.5 114,-104.5"/>
<text text-anchor="middle" x="57" y="-92.5" font-family="Helvetica,sans-Serif" font-size="10.00">udp::Stats::to_string</text>
</a>
</g>
</g>
<!-- Node2 -->
<g id="Node000002" class="node">
<title>Node2</title>
<g id="a_Node000002"><a xlink:href="classudp_1_1Stats.html#a53a8cdeccec5fb91fd3b01884e097d8e" target="_top" xlink:title="Read the total number of received packets (lock&#45;free).">
<polygon fill="white" stroke="#666666" points="252.5,-178.5 160.5,-178.5 160.5,-159.5 252.5,-159.5 252.5,-178.5"/>
<text text-anchor="middle" x="206.5" y="-166.5" font-family="Helvetica,sans-Serif" font-size="10.00">udp::Stats::recv</text>
</a>
</g>
</g>
<!-- Node1&#45;&gt;Node2 -->
<g id="edge1_Node000001_Node000002" class="edge">
<title>Node1&#45;&gt;Node2</title>
<g id="a_edge1_Node000001_Node000002"><a xlink:title=" ">
<path fill="none" stroke="#63b8ff" d="M71.47,-104.59C88.92,-116.68 120.6,-137.51 150,-151 153.88,-152.78 158,-154.47 162.15,-156.04"/>
<polygon fill="#63b8ff" stroke="#63b8ff" points="161.26,-159.43 171.85,-159.48 163.6,-152.84 161.26,-159.43"/>
</a>
</g>
</g>
<!-- Node3 -->
<g id="Node000003" class="node">
<title>Node3</title>
<g id="a_Node000003"><a xlink:href="classudp_1_1Stats.html#abf596a09f5ea608ab7444e8b4de44026" target="_top" xlink:title="Read the total number of received bytes (lock&#45;free).">
<polygon fill="white" stroke="#666666" points="263,-141.5 150,-141.5 150,-122.5 263,-122.5 263,-141.5"/>
<text text-anchor="middle" x="206.5" y="-129.5" font-family="Helvetica,sans-Serif" font-size="10.00">udp::Stats::rx_bytes</text>
</a>
</g>
</g>
<!-- Node1&#45;&gt;Node3 -->
<g id="edge2_Node000001_Node000003" class="edge">
<title>Node1&#45;&gt;Node3</title>
<g id="a_edge2_Node000001_Node000003"><a xlink:title=" ">
<path fill="none" stroke="#63b8ff" d="M95.98,-104.53C114.75,-109.24 137.59,-114.97 157.55,-119.97"/>
<polygon fill="#63b8ff" stroke="#63b8ff" points="156.84,-123.4 167.39,-122.44 158.54,-116.61 156.84,-123.4"/>
</a>
</g>
</g>
<!-- Node4 -->
<g id="Node000004" class="node">
<title>Node4</title>
<g id="a_Node000004"><a xlink:href="classudp_1_1Stats.html#a0282b7c7e4f4f34fb7bcc6c986c5e031" target="_top" xlink:title="Read the total number of sent packets (lock&#45;free).">
<polygon fill="white" stroke="#666666" points="252.5,-104.5 160.5,-104.5 160.5,-85.5 252.5,-85.5 252.5,-104.5"/>
<text text-anchor="middle" x="206.5" y="-92.5" font-family="Helvetica,sans-Serif" font-size="10.00">udp::Stats::sent</text>
</a>
</g>
</g>
<!-- Node1&#45;&gt;Node4 -->
<g id="edge3_Node000001_Node000004" class="edge">
<title>Node1&#45;&gt;Node4</title>
<g id="a_edge3_Node000001_Node000004"><a xlink:title=" ">
<path fill="none" stroke="#63b8ff" d="M114.18,-95C126.02,-95 138.5,-95 150.3,-95"/>
<polygon fill="#63b8ff" stroke="#63b8ff" points="150.47,-98.5 160.47,-95 150.47,-91.5 150.47,-98.5"/>
</a>
</g>
</g>
<!-- Node5 -->
<g id="Node000005" class="node">
<title>Node5</title>
<g id="a_Node000005"><a xlink:href="classudp_1_1Stats.html#a6bf044e1a2db0e202c77789aa515b0ee" target="_top" xlink:title="Read the total number of transmitted bytes (lock&#45;free).">
<polygon fill="white" stroke="#666666" points="263,-67.5 150,-67.5 150,-48.5 263,-48.5 263,-67.5"/>
<text text-anchor="middle" x="206.5" y="-55.5" font-family="Helvetica,sans-Serif" font-size="10.00">udp::Stats::tx_bytes</text>
</a>
</g>
</g>
<!-- Node1&#45;&gt;Node5 -->
<g id="edge4_Node000001_Node000005" class="edge">
<title>Node1&#45;&gt;Node5</title>
<g id="a_edge4_Node000001_Node000005"><a xlink:title=" ">
<path fill="none" stroke="#63b8ff" d="M95.98,-85.47C114.75,-80.76 137.59,-75.03 157.55,-70.03"/>
<polygon fill="#63b8ff" stroke="#63b8ff" points="158.54,-73.39 167.39,-67.56 156.84,-66.6 158.54,-73.39"/>
</a>
</g>
</g>
<!-- Node6 -->
<g id="Node000006" class="node">
<title>Node6</title>
<g id="a_Node000006"><a xlink:href="classudp_1_1Stats.html#a42817fa6b41cfe2b5e60c2d174a9b36e" target="_top" xlink:title="Return the current number of unique clients observed.">
<polygon fill="white" stroke="#666666" points="258.5,-30 154.5,-30 154.5,0 258.5,0 258.5,-30"/>
<text text-anchor="start" x="162.5" y="-18" font-family="Helvetica,sans-Serif" font-size="10.00">udp::Stats::unique</text>
<text text-anchor="middle" x="206.5" y="-7" font-family="Helvetica,sans-Serif" font-size="10.00">_clients</text>
</a>
</g>
</g>
<!-- Node1&#45;&gt;Node6 -->
<g id="edge5_Node000001_Node000006" class="edge">
<title>Node1&#45;&gt;Node6</title>
<g id="a_edge5_Node000001_Node000006"><a xlink:title=" ">
<path fill="none" stroke="#63b8ff" d="M72.99,-85.3C90.96,-73.86 122.12,-54.55 150,-40 153.54,-38.15 157.23,-36.31 160.97,-34.51"/>
<polygon fill="#63b8ff" stroke="#63b8ff" points="162.71,-37.56 170.27,-30.13 159.73,-31.22 162.71,-37.56"/>
</a>
</g>
</g>
</g>
</svg>
