<?xml version="1.0" encoding="UTF-8" standalone="no"?>
<!DOCTYPE svg PUBLIC "-//W3C//DTD SVG 1.1//EN"
 "http://www.w3.org/Graphics/SVG/1.1/DTD/svg11.dtd">
<!-- Generated by graphviz version 2.43.0 (0)
 -->
<!-- Title: udp::UdpServer::stop Pages: 1 -->
<svg width="320pt" height="64pt"
 viewBox="0.00 0.00 320.00 64.00" xmlns="http://www.w3.org/2000/svg" xmlns:xlink="http://www.w3.org/1999/xlink">
<g id="graph0" class="graph" transform="scale(1 1) rotate(0) translate(4 60)">
<title>udp::UdpServer::stop</title>
<!-- Node1 -->
<g id="Node000001" class="node">
<title>Node1</title>
<g id="a_Node000001"><a xlink:title="Request a graceful shutdown and join the worker thread (idempotent).">
<polygon fill="#999999" stroke="#666666" points="312,-37 193,-37 193,-18 312,-18 312,-37"/>
<text text-anchor="middle" x="252.5" y="-25" font-family="Helvetica,sans-Serif" font-size="10.00">udp::UdpServer::stop</text>
</a>
</g>
</g>
<!-- Node2 -->
<g id="Node000002" class="node">
<title>Node2</title>
<g id="a_Node000002"><a xlink:href="main__server_8cpp.html#a3c04138a5bfe5d72780bb7e82a18e627" target="_top" xlink:title="Application entry point: configure, run, and stop the UDP server.">
<polygon fill="white" stroke="#666666" points="99,-56 58,-56 58,-37 99,-37 99,-56"/>
<text text-anchor="middle" x="78.5" y="-44" font-family="Helvetica,sans-Serif" font-size="10.00">main</text>
</a>
</g>
</g>
<!-- Node1&#45;&gt;Node2 -->
<g id="edge1_Node000001_Node000002" class="edge">
<title>Node1&#45;&gt;Node2</title>
<g id="a_edge1_Node000001_Node000002"><a xlink:title=" ">
<path fill="none" stroke="#63b8ff" d="M182.73,-35.1C152.66,-38.42 119.67,-42.06 99.27,-44.32"/>
<polygon fill="#63b8ff" stroke="#63b8ff" points="183.23,-38.56 192.79,-33.99 182.46,-31.6 183.23,-38.56"/>
</a>
</g>
</g>
<!-- Node3 -->
<g id="Node000003" class="node">
<title>Node3</title>
<g id="a_Node000003"><a xlink:href="classudp_1_1UdpServer.html#ab17cea8e7fb896866da425bcb99bbc57" target="_top" xlink:title="Destructor; ensures the worker thread is stopped and joined.">
<polygon fill="white" stroke="#666666" points="157,-19 0,-19 0,0 157,0 157,-19"/>
<text text-anchor="middle" x="78.5" y="-7" font-family="Helvetica,sans-Serif" font-size="10.00">udp::UdpServer::~UdpServer</text>
</a>
</g>
</g>
<!-- Node1&#45;&gt;Node3 -->
<g id="edge2_Node000001_Node000003" class="edge">
<title>Node1&#45;&gt;Node3</title>
<g id="a_edge2_Node000001_Node000003"><a xlink:title=" ">
<path fill="none" stroke="#63b8ff" d="M182.67,-20.3C174.27,-19.42 165.63,-18.51 157.11,-17.62"/>
<polygon fill="#63b8ff" stroke="#63b8ff" points="182.48,-23.8 192.79,-21.36 183.21,-16.83 182.48,-23.8"/>
</a>
</g>
</g>
</g>
</svg>
