<?xml version="1.0" encoding="UTF-8" standalone="no"?>
<!DOCTYPE svg PUBLIC "-//W3C//DTD SVG 1.1//EN"
 "http://www.w3.org/Graphics/SVG/1.1/DTD/svg11.dtd">
<!-- Generated by graphviz version 2.43.0 (0)
 -->
<!-- Title: src/client.cpp Pages: 1 -->
<svg width="1013pt" height="192pt"
 viewBox="0.00 0.00 1012.50 192.00" xmlns="http://www.w3.org/2000/svg" xmlns:xlink="http://www.w3.org/1999/xlink">
<g id="graph0" class="graph" transform="scale(1 1) rotate(0) translate(4 188)">
<title>src/client.cpp</title>
<!-- Node1 -->
<g id="Node000001" class="node">
<title>Node1</title>
<g id="a_Node000001"><a xlink:title="UdpClient implementation: paced batch sending toward a target PPS.">
<polygon fill="#999999" stroke="#666666" points="773,-184 692,-184 692,-165 773,-165 773,-184"/>
<text text-anchor="middle" x="732.5" y="-172" font-family="Helvetica,sans-Serif" font-size="10.00">src/client.cpp</text>
</a>
</g>
</g>
<!-- Node2 -->
<g id="Node000002" class="node">
<title>Node2</title>
<g id="a_Node000002"><a xlink:href="client_8hpp.html" target="_top" xlink:title="High&#45;rate UDP client: pacing + batch send with lightweight counters.">
<polygon fill="white" stroke="#666666" points="416.5,-129 330.5,-129 330.5,-110 416.5,-110 416.5,-129"/>
<text text-anchor="middle" x="373.5" y="-117" font-family="Helvetica,sans-Serif" font-size="10.00">udp/client.hpp</text>
</a>
</g>
</g>
<!-- Node1&#45;&gt;Node2 -->
<g id="edge1_Node000001_Node000002" class="edge">
<title>Node1&#45;&gt;Node2</title>
<g id="a_edge1_Node000001_Node000002"><a xlink:title=" ">
<path fill="none" stroke="#63b8ff" d="M691.67,-167.47C626.51,-157.85 499.01,-139.03 426.77,-128.36"/>
<polygon fill="#63b8ff" stroke="#63b8ff" points="426.93,-124.85 416.52,-126.85 425.9,-131.77 426.93,-124.85"/>
</a>
</g>
</g>
<!-- Node5 -->
<g id="Node000005" class="node">
<title>Node5</title>
<g id="a_Node000005"><a xlink:title=" ">
<polygon fill="#e0e0e0" stroke="#999999" points="164.5,-74 116.5,-74 116.5,-55 164.5,-55 164.5,-74"/>
<text text-anchor="middle" x="140.5" y="-62" font-family="Helvetica,sans-Serif" font-size="10.00">thread</text>
</a>
</g>
</g>
<!-- Node1&#45;&gt;Node5 -->
<g id="edge27_Node000001_Node000005" class="edge">
<title>Node1&#45;&gt;Node5</title>
<g id="a_edge27_Node000001_Node000005"><a xlink:title=" ">
<path fill="none" stroke="#63b8ff" d="M691.74,-172.18C617.33,-169.09 454.85,-159.19 321.5,-129 266.52,-116.55 205.1,-92.8 169.81,-78.14"/>
<polygon fill="#63b8ff" stroke="#63b8ff" points="170.72,-74.73 160.15,-74.08 168.01,-81.18 170.72,-74.73"/>
</a>
</g>
</g>
<!-- Node19 -->
<g id="Node000019" class="node">
<title>Node19</title>
<g id="a_Node000019"><a xlink:title=" ">
<polygon fill="#e0e0e0" stroke="#999999" points="895.5,-19 845.5,-19 845.5,0 895.5,0 895.5,-19"/>
<text text-anchor="middle" x="870.5" y="-7" font-family="Helvetica,sans-Serif" font-size="10.00">chrono</text>
</a>
</g>
</g>
<!-- Node1&#45;&gt;Node19 -->
<g id="edge28_Node000001_Node000019" class="edge">
<title>Node1&#45;&gt;Node19</title>
<g id="a_edge28_Node000001_Node000019"><a xlink:title=" ">
<path fill="none" stroke="#63b8ff" d="M720.61,-164.94C705.27,-152.81 681.87,-129.88 693.5,-110 709.88,-82.01 794.15,-42.85 840.26,-23.04"/>
<polygon fill="#63b8ff" stroke="#63b8ff" points="841.92,-26.14 849.75,-19.01 839.18,-19.7 841.92,-26.14"/>
</a>
</g>
</g>
<!-- Node20 -->
<g id="Node000020" class="node">
<title>Node20</title>
<g id="a_Node000020"><a xlink:title=" ">
<polygon fill="#e0e0e0" stroke="#999999" points="762.5,-129 702.5,-129 702.5,-110 762.5,-110 762.5,-129"/>
<text text-anchor="middle" x="732.5" y="-117" font-family="Helvetica,sans-Serif" font-size="10.00">iostream</text>
</a>
</g>
</g>
<!-- Node1&#45;&gt;Node20 -->
<g id="edge26_Node000001_Node000020" class="edge">
<title>Node1&#45;&gt;Node20</title>
<g id="a_edge26_Node000001_Node000020"><a xlink:title=" ">
<path fill="none" stroke="#63b8ff" d="M732.5,-164.75C732.5,-157.8 732.5,-147.85 732.5,-139.13"/>
<polygon fill="#63b8ff" stroke="#63b8ff" points="736,-139.09 732.5,-129.09 729,-139.09 736,-139.09"/>
</a>
</g>
</g>
<!-- Node21 -->
<g id="Node000021" class="node">
<title>Node21</title>
<g id="a_Node000021"><a xlink:title=" ">
<polygon fill="#e0e0e0" stroke="#999999" points="850,-129 781,-129 781,-110 850,-110 850,-129"/>
<text text-anchor="middle" x="815.5" y="-117" font-family="Helvetica,sans-Serif" font-size="10.00">arpa/inet.h</text>
</a>
</g>
</g>
<!-- Node1&#45;&gt;Node21 -->
<g id="edge29_Node000001_Node000021" class="edge">
<title>Node1&#45;&gt;Node21</title>
<g id="a_edge29_Node000001_Node000021"><a xlink:title=" ">
<path fill="none" stroke="#63b8ff" d="M745.84,-164.98C758.59,-156.84 778.05,-144.41 793.17,-134.76"/>
<polygon fill="#63b8ff" stroke="#63b8ff" points="795.38,-137.5 801.92,-129.17 791.61,-131.6 795.38,-137.5"/>
</a>
</g>
</g>
<!-- Node22 -->
<g id="Node000022" class="node">
<title>Node22</title>
<g id="a_Node000022"><a xlink:title=" ">
<polygon fill="#e0e0e0" stroke="#999999" points="918.5,-129 868.5,-129 868.5,-110 918.5,-110 918.5,-129"/>
<text text-anchor="middle" x="893.5" y="-117" font-family="Helvetica,sans-Serif" font-size="10.00">cstring</text>
</a>
</g>
</g>
<!-- Node1&#45;&gt;Node22 -->
<g id="edge30_Node000001_Node000022" class="edge">
<title>Node1&#45;&gt;Node22</title>
<g id="a_edge30_Node000001_Node000022"><a xlink:title=" ">
<path fill="none" stroke="#63b8ff" d="M758.37,-164.98C785.6,-156.02 828.63,-141.86 858.79,-131.92"/>
<polygon fill="#63b8ff" stroke="#63b8ff" points="860.09,-135.18 868.49,-128.73 857.9,-128.54 860.09,-135.18"/>
</a>
</g>
</g>
<!-- Node23 -->
<g id="Node000023" class="node">
<title>Node23</title>
<g id="a_Node000023"><a xlink:title=" ">
<polygon fill="#e0e0e0" stroke="#999999" points="1004.5,-129 936.5,-129 936.5,-110 1004.5,-110 1004.5,-129"/>
<text text-anchor="middle" x="970.5" y="-117" font-family="Helvetica,sans-Serif" font-size="10.00">sys/time.h</text>
</a>
</g>
</g>
<!-- Node1&#45;&gt;Node23 -->
<g id="edge31_Node000001_Node000023" class="edge">
<title>Node1&#45;&gt;Node23</title>
<g id="a_edge31_Node000001_Node000023"><a xlink:title=" ">
<path fill="none" stroke="#63b8ff" d="M770.74,-164.98C813.16,-155.54 881.51,-140.32 926.22,-130.36"/>
<polygon fill="#63b8ff" stroke="#63b8ff" points="927.22,-133.72 936.22,-128.13 925.7,-126.89 927.22,-133.72"/>
</a>
</g>
</g>
<!-- Node3 -->
<g id="Node000003" class="node">
<title>Node3</title>
<g id="a_Node000003"><a xlink:title=" ">
<polygon fill="#e0e0e0" stroke="#999999" points="47,-19 0,-19 0,0 47,0 47,-19"/>
<text text-anchor="middle" x="23.5" y="-7" font-family="Helvetica,sans-Serif" font-size="10.00">vector</text>
</a>
</g>
</g>
<!-- Node2&#45;&gt;Node3 -->
<g id="edge2_Node000002_Node000003" class="edge">
<title>Node2&#45;&gt;Node3</title>
<g id="a_edge2_Node000002_Node000003"><a xlink:title=" ">
<path fill="none" stroke="#63b8ff" d="M334.19,-109.98C300.95,-102.24 252.35,-89.65 211.5,-74 193.87,-67.24 191.06,-61.93 173.5,-55 152.31,-46.63 94.5,-30.13 57.14,-19.74"/>
<polygon fill="#63b8ff" stroke="#63b8ff" points="57.77,-16.28 47.2,-16.98 55.9,-23.03 57.77,-16.28"/>
</a>
</g>
</g>
<!-- Node4 -->
<g id="Node000004" class="node">
<title>Node4</title>
<g id="a_Node000004"><a xlink:title=" ">
<polygon fill="#e0e0e0" stroke="#999999" points="284.5,-19 234.5,-19 234.5,0 284.5,0 284.5,-19"/>
<text text-anchor="middle" x="259.5" y="-7" font-family="Helvetica,sans-Serif" font-size="10.00">atomic</text>
</a>
</g>
</g>
<!-- Node2&#45;&gt;Node4 -->
<g id="edge3_Node000002_Node000004" class="edge">
<title>Node2&#45;&gt;Node4</title>
<g id="a_edge3_Node000002_Node000004"><a xlink:title=" ">
<path fill="none" stroke="#63b8ff" d="M367.08,-109.74C357.49,-96.96 338.52,-72.8 319.5,-55 307.73,-43.99 293.24,-33.18 281.45,-24.97"/>
<polygon fill="#63b8ff" stroke="#63b8ff" points="283.28,-21.98 273.05,-19.24 279.34,-27.76 283.28,-21.98"/>
</a>
</g>
</g>
<!-- Node2&#45;&gt;Node5 -->
<g id="edge4_Node000002_Node000005" class="edge">
<title>Node2&#45;&gt;Node5</title>
<g id="a_edge4_Node000002_Node000005"><a xlink:title=" ">
<path fill="none" stroke="#63b8ff" d="M336.06,-109.98C291.5,-99.85 217.71,-83.06 174.64,-73.27"/>
<polygon fill="#63b8ff" stroke="#63b8ff" points="175.18,-69.8 164.65,-70.99 173.63,-76.62 175.18,-69.8"/>
</a>
</g>
</g>
<!-- Node6 -->
<g id="Node000006" class="node">
<title>Node6</title>
<g id="a_Node000006"><a xlink:title=" ">
<polygon fill="#e0e0e0" stroke="#999999" points="526.5,-74 468.5,-74 468.5,-55 526.5,-55 526.5,-74"/>
<text text-anchor="middle" x="497.5" y="-62" font-family="Helvetica,sans-Serif" font-size="10.00">memory</text>
</a>
</g>
</g>
<!-- Node2&#45;&gt;Node6 -->
<g id="edge5_Node000002_Node000006" class="edge">
<title>Node2&#45;&gt;Node6</title>
<g id="a_edge5_Node000002_Node000006"><a xlink:title=" ">
<path fill="none" stroke="#63b8ff" d="M393.42,-109.98C413.55,-101.38 444.88,-87.99 467.91,-78.15"/>
<polygon fill="#63b8ff" stroke="#63b8ff" points="469.4,-81.32 477.21,-74.17 466.64,-74.88 469.4,-81.32"/>
</a>
</g>
</g>
<!-- Node7 -->
<g id="Node000007" class="node">
<title>Node7</title>
<g id="a_Node000007"><a xlink:href="socket_8hpp.html" target="_top" xlink:title="Socket abstraction for high&#45;rate UDP I/O (batch send/receive) plus a test double.">
<polygon fill="white" stroke="#666666" points="310.5,-74 220.5,-74 220.5,-55 310.5,-55 310.5,-74"/>
<text text-anchor="middle" x="265.5" y="-62" font-family="Helvetica,sans-Serif" font-size="10.00">udp/socket.hpp</text>
</a>
</g>
</g>
<!-- Node2&#45;&gt;Node7 -->
<g id="edge6_Node000002_Node000007" class="edge">
<title>Node2&#45;&gt;Node7</title>
<g id="a_edge6_Node000002_Node000007"><a xlink:title=" ">
<path fill="none" stroke="#63b8ff" d="M356.15,-109.98C338.93,-101.54 312.3,-88.47 292.35,-78.68"/>
<polygon fill="#63b8ff" stroke="#63b8ff" points="293.69,-75.43 283.17,-74.17 290.6,-81.72 293.69,-75.43"/>
</a>
</g>
</g>
<!-- Node13 -->
<g id="Node000013" class="node">
<title>Node13</title>
<g id="a_Node000013"><a xlink:href="stats_8hpp.html" target="_top" xlink:title="Lightweight, thread&#45;safe counters and client tracking for UDP throughput tests.">
<polygon fill="white" stroke="#666666" points="450,-74 367,-74 367,-55 450,-55 450,-74"/>
<text text-anchor="middle" x="408.5" y="-62" font-family="Helvetica,sans-Serif" font-size="10.00">udp/stats.hpp</text>
</a>
</g>
</g>
<!-- Node2&#45;&gt;Node13 -->
<g id="edge14_Node000002_Node000013" class="edge">
<title>Node2&#45;&gt;Node13</title>
<g id="a_edge14_Node000002_Node000013"><a xlink:title=" ">
<path fill="none" stroke="#63b8ff" d="M379.28,-109.75C384.12,-102.42 391.18,-91.73 397.14,-82.7"/>
<polygon fill="#63b8ff" stroke="#63b8ff" points="400.24,-84.36 402.83,-74.09 394.4,-80.5 400.24,-84.36"/>
</a>
</g>
</g>
<!-- Node17 -->
<g id="Node000017" class="node">
<title>Node17</title>
<g id="a_Node000017"><a xlink:href="common_8hpp.html" target="_top" xlink:title="Common wire&#45;level types and tiny utilities for the UDP high&#45;rate demo.">
<polygon fill="white" stroke="#666666" points="646,-74 545,-74 545,-55 646,-55 646,-74"/>
<text text-anchor="middle" x="595.5" y="-62" font-family="Helvetica,sans-Serif" font-size="10.00">udp/common.hpp</text>
</a>
</g>
</g>
<!-- Node2&#45;&gt;Node17 -->
<g id="edge21_Node000002_Node000017" class="edge">
<title>Node2&#45;&gt;Node17</title>
<g id="a_edge21_Node000002_Node000017"><a xlink:title=" ">
<path fill="none" stroke="#63b8ff" d="M409.17,-109.98C447.33,-100.87 507.97,-86.4 549.65,-76.45"/>
<polygon fill="#63b8ff" stroke="#63b8ff" points="550.64,-79.81 559.55,-74.08 549.01,-73 550.64,-79.81"/>
</a>
</g>
</g>
<!-- Node7&#45;&gt;Node3 -->
<g id="edge7_Node000007_Node000003" class="edge">
<title>Node7&#45;&gt;Node3</title>
<g id="a_edge7_Node000007_Node000003"><a xlink:title=" ">
<path fill="none" stroke="#63b8ff" d="M221.92,-54.94C181.51,-46.85 119.47,-34.05 57.22,-19.33"/>
<polygon fill="#63b8ff" stroke="#63b8ff" points="57.77,-15.86 47.23,-16.95 56.15,-22.67 57.77,-15.86"/>
</a>
</g>
</g>
<!-- Node7&#45;&gt;Node4 -->
<g id="edge10_Node000007_Node000004" class="edge">
<title>Node7&#45;&gt;Node4</title>
<g id="a_edge10_Node000007_Node000004"><a xlink:title=" ">
<path fill="none" stroke="#63b8ff" d="M264.51,-54.75C263.72,-47.8 262.6,-37.85 261.61,-29.13"/>
<polygon fill="#63b8ff" stroke="#63b8ff" points="265.08,-28.63 260.47,-19.09 258.12,-29.42 265.08,-28.63"/>
</a>
</g>
</g>
<!-- Node8 -->
<g id="Node000008" class="node">
<title>Node8</title>
<g id="a_Node000008"><a xlink:title=" ">
<polygon fill="#e0e0e0" stroke="#999999" points="436.5,-19 392.5,-19 392.5,0 436.5,0 436.5,-19"/>
<text text-anchor="middle" x="414.5" y="-7" font-family="Helvetica,sans-Serif" font-size="10.00">string</text>
</a>
</g>
</g>
<!-- Node7&#45;&gt;Node8 -->
<g id="edge8_Node000007_Node000008" class="edge">
<title>Node7&#45;&gt;Node8</title>
<g id="a_edge8_Node000007_Node000008"><a xlink:title=" ">
<path fill="none" stroke="#63b8ff" d="M289.44,-54.98C314.64,-46.02 354.46,-31.86 382.38,-21.92"/>
<polygon fill="#63b8ff" stroke="#63b8ff" points="383.83,-25.12 392.08,-18.47 381.49,-18.53 383.83,-25.12"/>
</a>
</g>
</g>
<!-- Node9 -->
<g id="Node000009" class="node">
<title>Node9</title>
<g id="a_Node000009"><a xlink:title=" ">
<polygon fill="#e0e0e0" stroke="#999999" points="504.5,-19 454.5,-19 454.5,0 504.5,0 504.5,-19"/>
<text text-anchor="middle" x="479.5" y="-7" font-family="Helvetica,sans-Serif" font-size="10.00">cstdint</text>
</a>
</g>
</g>
<!-- Node7&#45;&gt;Node9 -->
<g id="edge9_Node000007_Node000009" class="edge">
<title>Node7&#45;&gt;Node9</title>
<g id="a_edge9_Node000007_Node000009"><a xlink:title=" ">
<path fill="none" stroke="#63b8ff" d="M300.01,-55C334.27,-46.55 388.54,-33.15 444.52,-19.24"/>
<polygon fill="#63b8ff" stroke="#63b8ff" points="445.39,-22.63 454.25,-16.82 443.7,-15.84 445.39,-22.63"/>
</a>
</g>
</g>
<!-- Node10 -->
<g id="Node000010" class="node">
<title>Node10</title>
<g id="a_Node000010"><a xlink:title=" ">
<polygon fill="#e0e0e0" stroke="#999999" points="374.5,-19 302.5,-19 302.5,0 374.5,0 374.5,-19"/>
<text text-anchor="middle" x="338.5" y="-7" font-family="Helvetica,sans-Serif" font-size="10.00">netinet/in.h</text>
</a>
</g>
</g>
<!-- Node7&#45;&gt;Node10 -->
<g id="edge11_Node000007_Node000010" class="edge">
<title>Node7&#45;&gt;Node10</title>
<g id="a_edge11_Node000007_Node000010"><a xlink:title=" ">
<path fill="none" stroke="#63b8ff" d="M277.23,-54.98C288.23,-47 304.92,-34.88 318.1,-25.31"/>
<polygon fill="#63b8ff" stroke="#63b8ff" points="320.52,-27.88 326.56,-19.17 316.41,-22.21 320.52,-27.88"/>
</a>
</g>
</g>
<!-- Node11 -->
<g id="Node000011" class="node">
<title>Node11</title>
<g id="a_Node000011"><a xlink:title=" ">
<polygon fill="#e0e0e0" stroke="#999999" points="142,-19 65,-19 65,0 142,0 142,-19"/>
<text text-anchor="middle" x="103.5" y="-7" font-family="Helvetica,sans-Serif" font-size="10.00">sys/socket.h</text>
</a>
</g>
</g>
<!-- Node7&#45;&gt;Node11 -->
<g id="edge12_Node000007_Node000011" class="edge">
<title>Node7&#45;&gt;Node11</title>
<g id="a_edge12_Node000007_Node000011"><a xlink:title=" ">
<path fill="none" stroke="#63b8ff" d="M239.47,-54.98C212.39,-46.13 169.79,-32.19 139.49,-22.28"/>
<polygon fill="#63b8ff" stroke="#63b8ff" points="140.32,-18.87 129.73,-19.08 138.15,-25.52 140.32,-18.87"/>
</a>
</g>
</g>
<!-- Node12 -->
<g id="Node000012" class="node">
<title>Node12</title>
<g id="a_Node000012"><a xlink:title=" ">
<polygon fill="#e0e0e0" stroke="#999999" points="216.5,-19 160.5,-19 160.5,0 216.5,0 216.5,-19"/>
<text text-anchor="middle" x="188.5" y="-7" font-family="Helvetica,sans-Serif" font-size="10.00">unistd.h</text>
</a>
</g>
</g>
<!-- Node7&#45;&gt;Node12 -->
<g id="edge13_Node000007_Node000012" class="edge">
<title>Node7&#45;&gt;Node12</title>
<g id="a_edge13_Node000007_Node000012"><a xlink:title=" ">
<path fill="none" stroke="#63b8ff" d="M253.13,-54.98C241.41,-46.92 223.58,-34.65 209.61,-25.03"/>
<polygon fill="#63b8ff" stroke="#63b8ff" points="211.32,-21.96 201.1,-19.17 207.35,-27.72 211.32,-21.96"/>
</a>
</g>
</g>
<!-- Node13&#45;&gt;Node4 -->
<g id="edge15_Node000013_Node000004" class="edge">
<title>Node13&#45;&gt;Node4</title>
<g id="a_edge15_Node000013_Node000004"><a xlink:title=" ">
<path fill="none" stroke="#63b8ff" d="M384.56,-54.98C359.94,-46.23 321.38,-32.51 293.58,-22.62"/>
<polygon fill="#63b8ff" stroke="#63b8ff" points="294.47,-19.22 283.88,-19.17 292.12,-25.82 294.47,-19.22"/>
</a>
</g>
</g>
<!-- Node13&#45;&gt;Node8 -->
<g id="edge19_Node000013_Node000008" class="edge">
<title>Node13&#45;&gt;Node8</title>
<g id="a_edge19_Node000013_Node000008"><a xlink:title=" ">
<path fill="none" stroke="#63b8ff" d="M409.49,-54.75C410.28,-47.8 411.4,-37.85 412.39,-29.13"/>
<polygon fill="#63b8ff" stroke="#63b8ff" points="415.88,-29.42 413.53,-19.09 408.92,-28.63 415.88,-29.42"/>
</a>
</g>
</g>
<!-- Node13&#45;&gt;Node10 -->
<g id="edge18_Node000013_Node000010" class="edge">
<title>Node13&#45;&gt;Node10</title>
<g id="a_edge18_Node000013_Node000010"><a xlink:title=" ">
<path fill="none" stroke="#63b8ff" d="M397.25,-54.98C386.7,-47 370.7,-34.88 358.06,-25.31"/>
<polygon fill="#63b8ff" stroke="#63b8ff" points="360.04,-22.42 349.95,-19.17 355.81,-28 360.04,-22.42"/>
</a>
</g>
</g>
<!-- Node14 -->
<g id="Node000014" class="node">
<title>Node14</title>
<g id="a_Node000014"><a xlink:title=" ">
<polygon fill="#e0e0e0" stroke="#999999" points="756,-19 663,-19 663,0 756,0 756,-19"/>
<text text-anchor="middle" x="709.5" y="-7" font-family="Helvetica,sans-Serif" font-size="10.00">unordered_map</text>
</a>
</g>
</g>
<!-- Node13&#45;&gt;Node14 -->
<g id="edge16_Node000013_Node000014" class="edge">
<title>Node13&#45;&gt;Node14</title>
<g id="a_edge16_Node000013_Node000014"><a xlink:title=" ">
<path fill="none" stroke="#63b8ff" d="M450.04,-56.19C502.79,-46.9 594.03,-30.83 653.05,-20.44"/>
<polygon fill="#63b8ff" stroke="#63b8ff" points="653.72,-23.88 662.96,-18.69 652.5,-16.98 653.72,-23.88"/>
</a>
</g>
</g>
<!-- Node15 -->
<g id="Node000015" class="node">
<title>Node15</title>
<g id="a_Node000015"><a xlink:title=" ">
<polygon fill="#e0e0e0" stroke="#999999" points="570.5,-19 522.5,-19 522.5,0 570.5,0 570.5,-19"/>
<text text-anchor="middle" x="546.5" y="-7" font-family="Helvetica,sans-Serif" font-size="10.00">mutex</text>
</a>
</g>
</g>
<!-- Node13&#45;&gt;Node15 -->
<g id="edge17_Node000013_Node000015" class="edge">
<title>Node13&#45;&gt;Node15</title>
<g id="a_edge17_Node000013_Node000015"><a xlink:title=" ">
<path fill="none" stroke="#63b8ff" d="M430.67,-54.98C453.27,-46.3 488.56,-32.75 514.25,-22.88"/>
<polygon fill="#63b8ff" stroke="#63b8ff" points="515.84,-26.02 523.92,-19.17 513.33,-19.49 515.84,-26.02"/>
</a>
</g>
</g>
<!-- Node16 -->
<g id="Node000016" class="node">
<title>Node16</title>
<g id="a_Node000016"><a xlink:title=" ">
<polygon fill="#e0e0e0" stroke="#999999" points="644.5,-19 588.5,-19 588.5,0 644.5,0 644.5,-19"/>
<text text-anchor="middle" x="616.5" y="-7" font-family="Helvetica,sans-Serif" font-size="10.00">sstream</text>
</a>
</g>
</g>
<!-- Node13&#45;&gt;Node16 -->
<g id="edge20_Node000013_Node000016" class="edge">
<title>Node13&#45;&gt;Node16</title>
<g id="a_edge20_Node000013_Node000016"><a xlink:title=" ">
<path fill="none" stroke="#63b8ff" d="M441.92,-54.98C479.24,-45.48 539.51,-30.12 578.57,-20.17"/>
<polygon fill="#63b8ff" stroke="#63b8ff" points="579.67,-23.5 588.5,-17.63 577.94,-16.71 579.67,-23.5"/>
</a>
</g>
</g>
<!-- Node17&#45;&gt;Node8 -->
<g id="edge24_Node000017_Node000008" class="edge">
<title>Node17&#45;&gt;Node8</title>
<g id="a_edge24_Node000017_Node000008"><a xlink:title=" ">
<path fill="none" stroke="#63b8ff" d="M566.42,-54.98C533.64,-45.39 480.49,-29.82 446.54,-19.88"/>
<polygon fill="#63b8ff" stroke="#63b8ff" points="447.24,-16.44 436.66,-16.99 445.28,-23.16 447.24,-16.44"/>
</a>
</g>
</g>
<!-- Node17&#45;&gt;Node9 -->
<g id="edge22_Node000017_Node000009" class="edge">
<title>Node17&#45;&gt;Node9</title>
<g id="a_edge22_Node000017_Node000009"><a xlink:title=" ">
<path fill="none" stroke="#63b8ff" d="M576.86,-54.98C558.2,-46.46 529.25,-33.23 507.76,-23.41"/>
<polygon fill="#63b8ff" stroke="#63b8ff" points="509.03,-20.14 498.48,-19.17 506.12,-26.51 509.03,-20.14"/>
</a>
</g>
</g>
<!-- Node18 -->
<g id="Node000018" class="node">
<title>Node18</title>
<g id="a_Node000018"><a xlink:title=" ">
<polygon fill="#e0e0e0" stroke="#999999" points="827,-19 774,-19 774,0 827,0 827,-19"/>
<text text-anchor="middle" x="800.5" y="-7" font-family="Helvetica,sans-Serif" font-size="10.00">cstddef</text>
</a>
</g>
</g>
<!-- Node17&#45;&gt;Node18 -->
<g id="edge23_Node000017_Node000018" class="edge">
<title>Node17&#45;&gt;Node18</title>
<g id="a_edge23_Node000017_Node000018"><a xlink:title=" ">
<path fill="none" stroke="#63b8ff" d="M628.44,-54.98C665.53,-45.4 725.63,-29.86 764.09,-19.91"/>
<polygon fill="#63b8ff" stroke="#63b8ff" points="765.04,-23.28 773.85,-17.39 763.29,-16.5 765.04,-23.28"/>
</a>
</g>
</g>
<!-- Node17&#45;&gt;Node19 -->
<g id="edge25_Node000017_Node000019" class="edge">
<title>Node17&#45;&gt;Node19</title>
<g id="a_edge25_Node000017_Node000019"><a xlink:title=" ">
<path fill="none" stroke="#63b8ff" d="M646.46,-55.04C693.17,-47.07 764.46,-34.38 835.3,-19.15"/>
<polygon fill="#63b8ff" stroke="#63b8ff" points="836.26,-22.53 845.29,-16.99 834.78,-15.69 836.26,-22.53"/>
</a>
</g>
</g>
</g>
</svg>
