<?xml version="1.0" encoding="UTF-8" standalone="no"?>
<!DOCTYPE svg PUBLIC "-//W3C//DTD SVG 1.1//EN"
 "http://www.w3.org/Graphics/SVG/1.1/DTD/svg11.dtd">
<!-- Generated by graphviz version 2.43.0 (0)
 -->
<!-- Title: include/udp/client.hpp Pages: 1 -->
<svg width="905pt" height="137pt"
 viewBox="0.00 0.00 904.50 137.00" xmlns="http://www.w3.org/2000/svg" xmlns:xlink="http://www.w3.org/1999/xlink">
<g id="graph0" class="graph" transform="scale(1 1) rotate(0) translate(4 133)">
<title>include/udp/client.hpp</title>
<!-- Node1 -->
<g id="Node000001" class="node">
<title>Node1</title>
<g id="a_Node000001"><a xlink:title="High&#45;rate UDP client: pacing + batch send with lightweight counters.">
<polygon fill="#999999" stroke="#666666" points="435.5,-129 311.5,-129 311.5,-110 435.5,-110 435.5,-129"/>
<text text-anchor="middle" x="373.5" y="-117" font-family="Helvetica,sans-Serif" font-size="10.00">include/udp/client.hpp</text>
</a>
</g>
</g>
<!-- Node2 -->
<g id="Node000002" class="node">
<title>Node2</title>
<g id="a_Node000002"><a xlink:title=" ">
<polygon fill="#e0e0e0" stroke="#999999" points="47,-19 0,-19 0,0 47,0 47,-19"/>
<text text-anchor="middle" x="23.5" y="-7" font-family="Helvetica,sans-Serif" font-size="10.00">vector</text>
</a>
</g>
</g>
<!-- Node1&#45;&gt;Node2 -->
<g id="edge1_Node000001_Node000002" class="edge">
<title>Node1&#45;&gt;Node2</title>
<g id="a_edge1_Node000001_Node000002"><a xlink:title=" ">
<path fill="none" stroke="#63b8ff" d="M315.44,-109.93C272.31,-102.69 212.39,-90.81 161.5,-74 120.46,-60.44 75.42,-38.22 48.31,-23.98"/>
<polygon fill="#63b8ff" stroke="#63b8ff" points="49.65,-20.73 39.17,-19.13 46.36,-26.91 49.65,-20.73"/>
</a>
</g>
</g>
<!-- Node3 -->
<g id="Node000003" class="node">
<title>Node3</title>
<g id="a_Node000003"><a xlink:title=" ">
<polygon fill="#e0e0e0" stroke="#999999" points="374.5,-19 324.5,-19 324.5,0 374.5,0 374.5,-19"/>
<text text-anchor="middle" x="349.5" y="-7" font-family="Helvetica,sans-Serif" font-size="10.00">atomic</text>
</a>
</g>
</g>
<!-- Node1&#45;&gt;Node3 -->
<g id="edge2_Node000001_Node000003" class="edge">
<title>Node1&#45;&gt;Node3</title>
<g id="a_edge2_Node000001_Node000003"><a xlink:title=" ">
<path fill="none" stroke="#63b8ff" d="M385.34,-109.67C399.99,-97.59 421.82,-75.12 411.5,-55 404.54,-41.44 391.31,-31.07 378.85,-23.78"/>
<polygon fill="#63b8ff" stroke="#63b8ff" points="380.48,-20.68 370.02,-19 377.15,-26.84 380.48,-20.68"/>
</a>
</g>
</g>
<!-- Node4 -->
<g id="Node000004" class="node">
<title>Node4</title>
<g id="a_Node000004"><a xlink:title=" ">
<polygon fill="#e0e0e0" stroke="#999999" points="326.5,-74 278.5,-74 278.5,-55 326.5,-55 326.5,-74"/>
<text text-anchor="middle" x="302.5" y="-62" font-family="Helvetica,sans-Serif" font-size="10.00">thread</text>
</a>
</g>
</g>
<!-- Node1&#45;&gt;Node4 -->
<g id="edge3_Node000001_Node000004" class="edge">
<title>Node1&#45;&gt;Node4</title>
<g id="a_edge3_Node000001_Node000004"><a xlink:title=" ">
<path fill="none" stroke="#63b8ff" d="M362.09,-109.98C351.39,-102 335.16,-89.88 322.34,-80.31"/>
<polygon fill="#63b8ff" stroke="#63b8ff" points="324.22,-77.35 314.11,-74.17 320.03,-82.96 324.22,-77.35"/>
</a>
</g>
</g>
<!-- Node5 -->
<g id="Node000005" class="node">
<title>Node5</title>
<g id="a_Node000005"><a xlink:title=" ">
<polygon fill="#e0e0e0" stroke="#999999" points="402.5,-74 344.5,-74 344.5,-55 402.5,-55 402.5,-74"/>
<text text-anchor="middle" x="373.5" y="-62" font-family="Helvetica,sans-Serif" font-size="10.00">memory</text>
</a>
</g>
</g>
<!-- Node1&#45;&gt;Node5 -->
<g id="edge4_Node000001_Node000005" class="edge">
<title>Node1&#45;&gt;Node5</title>
<g id="a_edge4_Node000001_Node000005"><a xlink:title=" ">
<path fill="none" stroke="#63b8ff" d="M373.5,-109.75C373.5,-102.8 373.5,-92.85 373.5,-84.13"/>
<polygon fill="#63b8ff" stroke="#63b8ff" points="377,-84.09 373.5,-74.09 370,-84.09 377,-84.09"/>
</a>
</g>
</g>
<!-- Node6 -->
<g id="Node000006" class="node">
<title>Node6</title>
<g id="a_Node000006"><a xlink:href="socket_8hpp.html" target="_top" xlink:title="Socket abstraction for high&#45;rate UDP I/O (batch send/receive) plus a test double.">
<polygon fill="white" stroke="#666666" points="260.5,-74 170.5,-74 170.5,-55 260.5,-55 260.5,-74"/>
<text text-anchor="middle" x="215.5" y="-62" font-family="Helvetica,sans-Serif" font-size="10.00">udp/socket.hpp</text>
</a>
</g>
</g>
<!-- Node1&#45;&gt;Node6 -->
<g id="edge5_Node000001_Node000006" class="edge">
<title>Node1&#45;&gt;Node6</title>
<g id="a_edge5_Node000001_Node000006"><a xlink:title=" ">
<path fill="none" stroke="#63b8ff" d="M348.11,-109.98C321.7,-101.13 280.15,-87.19 250.61,-77.28"/>
<polygon fill="#63b8ff" stroke="#63b8ff" points="251.68,-73.94 241.08,-74.08 249.45,-80.58 251.68,-73.94"/>
</a>
</g>
</g>
<!-- Node12 -->
<g id="Node000012" class="node">
<title>Node12</title>
<g id="a_Node000012"><a xlink:href="stats_8hpp.html" target="_top" xlink:title="Lightweight, thread&#45;safe counters and client tracking for UDP throughput tests.">
<polygon fill="white" stroke="#666666" points="542,-74 459,-74 459,-55 542,-55 542,-74"/>
<text text-anchor="middle" x="500.5" y="-62" font-family="Helvetica,sans-Serif" font-size="10.00">udp/stats.hpp</text>
</a>
</g>
</g>
<!-- Node1&#45;&gt;Node12 -->
<g id="edge13_Node000001_Node000012" class="edge">
<title>Node1&#45;&gt;Node12</title>
<g id="a_edge13_Node000001_Node000012"><a xlink:title=" ">
<path fill="none" stroke="#63b8ff" d="M393.9,-109.98C414.52,-101.38 446.61,-87.99 470.19,-78.15"/>
<polygon fill="#63b8ff" stroke="#63b8ff" points="471.84,-81.25 479.72,-74.17 469.15,-74.79 471.84,-81.25"/>
</a>
</g>
</g>
<!-- Node16 -->
<g id="Node000016" class="node">
<title>Node16</title>
<g id="a_Node000016"><a xlink:href="common_8hpp.html" target="_top" xlink:title="Common wire&#45;level types and tiny utilities for the UDP high&#45;rate demo.">
<polygon fill="white" stroke="#666666" points="711,-74 610,-74 610,-55 711,-55 711,-74"/>
<text text-anchor="middle" x="660.5" y="-62" font-family="Helvetica,sans-Serif" font-size="10.00">udp/common.hpp</text>
</a>
</g>
</g>
<!-- Node1&#45;&gt;Node16 -->
<g id="edge20_Node000001_Node000016" class="edge">
<title>Node1&#45;&gt;Node16</title>
<g id="a_edge20_Node000001_Node000016"><a xlink:title=" ">
<path fill="none" stroke="#63b8ff" d="M419.61,-109.98C469.78,-100.72 550.01,-85.9 603.94,-75.94"/>
<polygon fill="#63b8ff" stroke="#63b8ff" points="604.83,-79.34 614.03,-74.08 603.56,-72.46 604.83,-79.34"/>
</a>
</g>
</g>
<!-- Node6&#45;&gt;Node2 -->
<g id="edge6_Node000006_Node000002" class="edge">
<title>Node6&#45;&gt;Node2</title>
<g id="a_edge6_Node000006_Node000002"><a xlink:title=" ">
<path fill="none" stroke="#63b8ff" d="M184.65,-54.98C149.73,-45.34 93.02,-29.69 57.02,-19.75"/>
<polygon fill="#63b8ff" stroke="#63b8ff" points="57.58,-16.28 47.01,-16.99 55.72,-23.02 57.58,-16.28"/>
</a>
</g>
</g>
<!-- Node6&#45;&gt;Node3 -->
<g id="edge9_Node000006_Node000003" class="edge">
<title>Node6&#45;&gt;Node3</title>
<g id="a_edge9_Node000006_Node000003"><a xlink:title=" ">
<path fill="none" stroke="#63b8ff" d="M237.03,-54.98C258.97,-46.3 293.24,-32.75 318.19,-22.88"/>
<polygon fill="#63b8ff" stroke="#63b8ff" points="319.57,-26.1 327.58,-19.17 316.99,-19.59 319.57,-26.1"/>
</a>
</g>
</g>
<!-- Node7 -->
<g id="Node000007" class="node">
<title>Node7</title>
<g id="a_Node000007"><a xlink:title=" ">
<polygon fill="#e0e0e0" stroke="#999999" points="682.5,-19 638.5,-19 638.5,0 682.5,0 682.5,-19"/>
<text text-anchor="middle" x="660.5" y="-7" font-family="Helvetica,sans-Serif" font-size="10.00">string</text>
</a>
</g>
</g>
<!-- Node6&#45;&gt;Node7 -->
<g id="edge7_Node000006_Node000007" class="edge">
<title>Node6&#45;&gt;Node7</title>
<g id="a_edge7_Node000006_Node000007"><a xlink:title=" ">
<path fill="none" stroke="#63b8ff" d="M260.55,-56.21C263.58,-55.78 266.58,-55.38 269.5,-55 425.71,-34.91 469.62,-47.81 628.14,-18.95"/>
<polygon fill="#63b8ff" stroke="#63b8ff" points="629.06,-22.34 638.25,-17.08 627.78,-15.46 629.06,-22.34"/>
</a>
</g>
</g>
<!-- Node8 -->
<g id="Node000008" class="node">
<title>Node8</title>
<g id="a_Node000008"><a xlink:title=" ">
<polygon fill="#e0e0e0" stroke="#999999" points="620.5,-19 570.5,-19 570.5,0 620.5,0 620.5,-19"/>
<text text-anchor="middle" x="595.5" y="-7" font-family="Helvetica,sans-Serif" font-size="10.00">cstdint</text>
</a>
</g>
</g>
<!-- Node6&#45;&gt;Node8 -->
<g id="edge8_Node000006_Node000008" class="edge">
<title>Node6&#45;&gt;Node8</title>
<g id="a_edge8_Node000006_Node000008"><a xlink:title=" ">
<path fill="none" stroke="#63b8ff" d="M260.56,-56.29C263.59,-55.84 266.59,-55.41 269.5,-55 395.83,-37.27 431.23,-42.62 560.44,-18.99"/>
<polygon fill="#63b8ff" stroke="#63b8ff" points="561.13,-22.42 570.32,-17.16 559.85,-15.54 561.13,-22.42"/>
</a>
</g>
</g>
<!-- Node9 -->
<g id="Node000009" class="node">
<title>Node9</title>
<g id="a_Node000009"><a xlink:title=" ">
<polygon fill="#e0e0e0" stroke="#999999" points="306.5,-19 234.5,-19 234.5,0 306.5,0 306.5,-19"/>
<text text-anchor="middle" x="270.5" y="-7" font-family="Helvetica,sans-Serif" font-size="10.00">netinet/in.h</text>
</a>
</g>
</g>
<!-- Node6&#45;&gt;Node9 -->
<g id="edge10_Node000006_Node000009" class="edge">
<title>Node6&#45;&gt;Node9</title>
<g id="a_edge10_Node000006_Node000009"><a xlink:title=" ">
<path fill="none" stroke="#63b8ff" d="M224.58,-54.75C232.59,-47.03 244.46,-35.6 254.12,-26.28"/>
<polygon fill="#63b8ff" stroke="#63b8ff" points="256.81,-28.55 261.59,-19.09 251.96,-23.51 256.81,-28.55"/>
</a>
</g>
</g>
<!-- Node10 -->
<g id="Node000010" class="node">
<title>Node10</title>
<g id="a_Node000010"><a xlink:title=" ">
<polygon fill="#e0e0e0" stroke="#999999" points="142,-19 65,-19 65,0 142,0 142,-19"/>
<text text-anchor="middle" x="103.5" y="-7" font-family="Helvetica,sans-Serif" font-size="10.00">sys/socket.h</text>
</a>
</g>
</g>
<!-- Node6&#45;&gt;Node10 -->
<g id="edge11_Node000006_Node000010" class="edge">
<title>Node6&#45;&gt;Node10</title>
<g id="a_edge11_Node000006_Node000010"><a xlink:title=" ">
<path fill="none" stroke="#63b8ff" d="M197.51,-54.98C179.57,-46.5 151.78,-33.35 131.07,-23.54"/>
<polygon fill="#63b8ff" stroke="#63b8ff" points="132.36,-20.28 121.82,-19.17 129.36,-26.61 132.36,-20.28"/>
</a>
</g>
</g>
<!-- Node11 -->
<g id="Node000011" class="node">
<title>Node11</title>
<g id="a_Node000011"><a xlink:title=" ">
<polygon fill="#e0e0e0" stroke="#999999" points="216.5,-19 160.5,-19 160.5,0 216.5,0 216.5,-19"/>
<text text-anchor="middle" x="188.5" y="-7" font-family="Helvetica,sans-Serif" font-size="10.00">unistd.h</text>
</a>
</g>
</g>
<!-- Node6&#45;&gt;Node11 -->
<g id="edge12_Node000006_Node000011" class="edge">
<title>Node6&#45;&gt;Node11</title>
<g id="a_edge12_Node000006_Node000011"><a xlink:title=" ">
<path fill="none" stroke="#63b8ff" d="M211.04,-54.75C207.38,-47.57 202.09,-37.18 197.55,-28.27"/>
<polygon fill="#63b8ff" stroke="#63b8ff" points="200.53,-26.41 192.88,-19.09 194.3,-29.59 200.53,-26.41"/>
</a>
</g>
</g>
<!-- Node12&#45;&gt;Node3 -->
<g id="edge14_Node000012_Node000003" class="edge">
<title>Node12&#45;&gt;Node3</title>
<g id="a_edge14_Node000012_Node000003"><a xlink:title=" ">
<path fill="none" stroke="#63b8ff" d="M476.24,-54.98C451.18,-46.19 411.87,-32.39 383.67,-22.49"/>
<polygon fill="#63b8ff" stroke="#63b8ff" points="384.8,-19.18 374.2,-19.17 382.48,-25.78 384.8,-19.18"/>
</a>
</g>
</g>
<!-- Node12&#45;&gt;Node7 -->
<g id="edge18_Node000012_Node000007" class="edge">
<title>Node12&#45;&gt;Node7</title>
<g id="a_edge18_Node000012_Node000007"><a xlink:title=" ">
<path fill="none" stroke="#63b8ff" d="M526.21,-54.98C554.14,-45.73 598.8,-30.94 628.87,-20.98"/>
<polygon fill="#63b8ff" stroke="#63b8ff" points="630.07,-24.27 638.46,-17.8 627.87,-17.62 630.07,-24.27"/>
</a>
</g>
</g>
<!-- Node12&#45;&gt;Node9 -->
<g id="edge17_Node000012_Node000009" class="edge">
<title>Node12&#45;&gt;Node9</title>
<g id="a_edge17_Node000012_Node000009"><a xlink:title=" ">
<path fill="none" stroke="#63b8ff" d="M463.55,-54.98C423.58,-45.77 359.79,-31.08 316.58,-21.12"/>
<polygon fill="#63b8ff" stroke="#63b8ff" points="317.13,-17.65 306.6,-18.82 315.56,-24.48 317.13,-17.65"/>
</a>
</g>
</g>
<!-- Node13 -->
<g id="Node000013" class="node">
<title>Node13</title>
<g id="a_Node000013"><a xlink:title=" ">
<polygon fill="#e0e0e0" stroke="#999999" points="486,-19 393,-19 393,0 486,0 486,-19"/>
<text text-anchor="middle" x="439.5" y="-7" font-family="Helvetica,sans-Serif" font-size="10.00">unordered_map</text>
</a>
</g>
</g>
<!-- Node12&#45;&gt;Node13 -->
<g id="edge15_Node000012_Node000013" class="edge">
<title>Node12&#45;&gt;Node13</title>
<g id="a_edge15_Node000012_Node000013"><a xlink:title=" ">
<path fill="none" stroke="#63b8ff" d="M490.7,-54.98C481.68,-47.15 468.09,-35.34 457.18,-25.86"/>
<polygon fill="#63b8ff" stroke="#63b8ff" points="459.32,-23.09 449.48,-19.17 454.73,-28.37 459.32,-23.09"/>
</a>
</g>
</g>
<!-- Node14 -->
<g id="Node000014" class="node">
<title>Node14</title>
<g id="a_Node000014"><a xlink:title=" ">
<polygon fill="#e0e0e0" stroke="#999999" points="552.5,-19 504.5,-19 504.5,0 552.5,0 552.5,-19"/>
<text text-anchor="middle" x="528.5" y="-7" font-family="Helvetica,sans-Serif" font-size="10.00">mutex</text>
</a>
</g>
</g>
<!-- Node12&#45;&gt;Node14 -->
<g id="edge16_Node000012_Node000014" class="edge">
<title>Node12&#45;&gt;Node14</title>
<g id="a_edge16_Node000012_Node000014"><a xlink:title=" ">
<path fill="none" stroke="#63b8ff" d="M505.12,-54.75C508.96,-47.49 514.52,-36.95 519.26,-27.98"/>
<polygon fill="#63b8ff" stroke="#63b8ff" points="522.39,-29.57 523.96,-19.09 516.2,-26.3 522.39,-29.57"/>
</a>
</g>
</g>
<!-- Node15 -->
<g id="Node000015" class="node">
<title>Node15</title>
<g id="a_Node000015"><a xlink:title=" ">
<polygon fill="#e0e0e0" stroke="#999999" points="756.5,-19 700.5,-19 700.5,0 756.5,0 756.5,-19"/>
<text text-anchor="middle" x="728.5" y="-7" font-family="Helvetica,sans-Serif" font-size="10.00">sstream</text>
</a>
</g>
</g>
<!-- Node12&#45;&gt;Node15 -->
<g id="edge19_Node000012_Node000015" class="edge">
<title>Node12&#45;&gt;Node15</title>
<g id="a_edge19_Node000012_Node000015"><a xlink:title=" ">
<path fill="none" stroke="#63b8ff" d="M537.13,-54.98C579.11,-45.23 647.6,-29.31 690.25,-19.39"/>
<polygon fill="#63b8ff" stroke="#63b8ff" points="691.29,-22.74 700.24,-17.07 689.71,-15.92 691.29,-22.74"/>
</a>
</g>
</g>
<!-- Node16&#45;&gt;Node7 -->
<g id="edge23_Node000016_Node000007" class="edge">
<title>Node16&#45;&gt;Node7</title>
<g id="a_edge23_Node000016_Node000007"><a xlink:title=" ">
<path fill="none" stroke="#63b8ff" d="M660.5,-54.75C660.5,-47.8 660.5,-37.85 660.5,-29.13"/>
<polygon fill="#63b8ff" stroke="#63b8ff" points="664,-29.09 660.5,-19.09 657,-29.09 664,-29.09"/>
</a>
</g>
</g>
<!-- Node16&#45;&gt;Node8 -->
<g id="edge21_Node000016_Node000008" class="edge">
<title>Node16&#45;&gt;Node8</title>
<g id="a_edge21_Node000016_Node000008"><a xlink:title=" ">
<path fill="none" stroke="#63b8ff" d="M650.06,-54.98C640.35,-47.07 625.68,-35.11 614,-25.58"/>
<polygon fill="#63b8ff" stroke="#63b8ff" points="616.1,-22.78 606.13,-19.17 611.67,-28.2 616.1,-22.78"/>
</a>
</g>
</g>
<!-- Node17 -->
<g id="Node000017" class="node">
<title>Node17</title>
<g id="a_Node000017"><a xlink:title=" ">
<polygon fill="#e0e0e0" stroke="#999999" points="828,-19 775,-19 775,0 828,0 828,-19"/>
<text text-anchor="middle" x="801.5" y="-7" font-family="Helvetica,sans-Serif" font-size="10.00">cstddef</text>
</a>
</g>
</g>
<!-- Node16&#45;&gt;Node17 -->
<g id="edge22_Node000016_Node000017" class="edge">
<title>Node16&#45;&gt;Node17</title>
<g id="a_edge22_Node000016_Node000017"><a xlink:title=" ">
<path fill="none" stroke="#63b8ff" d="M683.15,-54.98C706.35,-46.27 742.62,-32.63 768.9,-22.75"/>
<polygon fill="#63b8ff" stroke="#63b8ff" points="770.3,-25.97 778.43,-19.17 767.84,-19.41 770.3,-25.97"/>
</a>
</g>
</g>
<!-- Node18 -->
<g id="Node000018" class="node">
<title>Node18</title>
<g id="a_Node000018"><a xlink:title=" ">
<polygon fill="#e0e0e0" stroke="#999999" points="896.5,-19 846.5,-19 846.5,0 896.5,0 896.5,-19"/>
<text text-anchor="middle" x="871.5" y="-7" font-family="Helvetica,sans-Serif" font-size="10.00">chrono</text>
</a>
</g>
</g>
<!-- Node16&#45;&gt;Node18 -->
<g id="edge24_Node000016_Node000018" class="edge">
<title>Node16&#45;&gt;Node18</title>
<g id="a_edge24_Node000016_Node000018"><a xlink:title=" ">
<path fill="none" stroke="#63b8ff" d="M694.4,-54.98C733.41,-45.19 797.14,-29.18 836.58,-19.27"/>
<polygon fill="#63b8ff" stroke="#63b8ff" points="837.44,-22.66 846.29,-16.83 835.74,-15.87 837.44,-22.66"/>
</a>
</g>
</g>
</g>
</svg>
