<?xml version="1.0" encoding="UTF-8" standalone="no"?>
<!DOCTYPE svg PUBLIC "-//W3C//DTD SVG 1.1//EN"
 "http://www.w3.org/Graphics/SVG/1.1/DTD/svg11.dtd">
<!-- Generated by graphviz version 2.43.0 (0)
 -->
<!-- Title: include/udp/client.hpp Pages: 1 -->
<svg width="218pt" height="82pt"
 viewBox="0.00 0.00 218.00 82.00" xmlns="http://www.w3.org/2000/svg" xmlns:xlink="http://www.w3.org/1999/xlink">
<g id="graph0" class="graph" transform="scale(1 1) rotate(0) translate(4 78)">
<title>include/udp/client.hpp</title>
<!-- Node1 -->
<g id="Node000001" class="node">
<title>Node1</title>
<g id="a_Node000001"><a xlink:title="High&#45;rate UDP client: pacing + batch send with lightweight counters.">
<polygon fill="#999999" stroke="#666666" points="159.5,-74 35.5,-74 35.5,-55 159.5,-55 159.5,-74"/>
<text text-anchor="middle" x="97.5" y="-62" font-family="Helvetica,sans-Serif" font-size="10.00">include/udp/client.hpp</text>
</a>
</g>
</g>
<!-- Node2 -->
<g id="Node000002" class="node">
<title>Node2</title>
<g id="a_Node000002"><a xlink:href="client_8cpp.html" target="_top" xlink:title="UdpClient implementation: paced batch sending toward a target PPS.">
<polygon fill="white" stroke="#666666" points="81,-19 0,-19 0,0 81,0 81,-19"/>
<text text-anchor="middle" x="40.5" y="-7" font-family="Helvetica,sans-Serif" font-size="10.00">src/client.cpp</text>
</a>
</g>
</g>
<!-- Node1&#45;&gt;Node2 -->
<g id="edge1_Node000001_Node000002" class="edge">
<title>Node1&#45;&gt;Node2</title>
<g id="a_edge1_Node000001_Node000002"><a xlink:title=" ">
<path fill="none" stroke="#63b8ff" d="M80.88,-48.04C70.77,-38.64 58.22,-26.98 49.82,-19.17"/>
<polygon fill="#63b8ff" stroke="#63b8ff" points="78.64,-50.74 88.34,-54.98 83.4,-45.61 78.64,-50.74"/>
</a>
</g>
</g>
<!-- Node3 -->
<g id="Node000003" class="node">
<title>Node3</title>
<g id="a_Node000003"><a xlink:href="main__client_8cpp.html" target="_top" xlink:title="UDP client entry point: parses CLI, configures UdpClient, and runs paced sending.">
<polygon fill="white" stroke="#666666" points="210,-19 99,-19 99,0 210,0 210,-19"/>
<text text-anchor="middle" x="154.5" y="-7" font-family="Helvetica,sans-Serif" font-size="10.00">src/main_client.cpp</text>
</a>
</g>
</g>
<!-- Node1&#45;&gt;Node3 -->
<g id="edge2_Node000001_Node000003" class="edge">
<title>Node1&#45;&gt;Node3</title>
<g id="a_edge2_Node000001_Node000003"><a xlink:title=" ">
<path fill="none" stroke="#63b8ff" d="M114.12,-48.04C124.23,-38.64 136.78,-26.98 145.18,-19.17"/>
<polygon fill="#63b8ff" stroke="#63b8ff" points="111.6,-45.61 106.66,-54.98 116.36,-50.74 111.6,-45.61"/>
</a>
</g>
</g>
</g>
</svg>
