<?xml version="1.0" encoding="UTF-8" standalone="no"?>
<!DOCTYPE svg PUBLIC "-//W3C//DTD SVG 1.1//EN"
 "http://www.w3.org/Graphics/SVG/1.1/DTD/svg11.dtd">
<!-- Generated by graphviz version 2.43.0 (0)
 -->
<!-- Title: include/udp/common.hpp Pages: 1 -->
<svg width="459pt" height="137pt"
 viewBox="0.00 0.00 458.50 137.00" xmlns="http://www.w3.org/2000/svg" xmlns:xlink="http://www.w3.org/1999/xlink">
<g id="graph0" class="graph" transform="scale(1 1) rotate(0) translate(4 133)">
<title>include/udp/common.hpp</title>
<!-- Node1 -->
<g id="Node000001" class="node">
<title>Node1</title>
<g id="a_Node000001"><a xlink:title="Common wire&#45;level types and tiny utilities for the UDP high&#45;rate demo.">
<polygon fill="#999999" stroke="#666666" points="292.5,-129 152.5,-129 152.5,-110 292.5,-110 292.5,-129"/>
<text text-anchor="middle" x="222.5" y="-117" font-family="Helvetica,sans-Serif" font-size="10.00">include/udp/common.hpp</text>
</a>
</g>
</g>
<!-- Node2 -->
<g id="Node000002" class="node">
<title>Node2</title>
<g id="a_Node000002"><a xlink:href="client_8hpp.html" target="_top" xlink:title="High&#45;rate UDP client: pacing + batch send with lightweight counters.">
<polygon fill="white" stroke="#666666" points="212.5,-74 88.5,-74 88.5,-55 212.5,-55 212.5,-74"/>
<text text-anchor="middle" x="150.5" y="-62" font-family="Helvetica,sans-Serif" font-size="10.00">include/udp/client.hpp</text>
</a>
</g>
</g>
<!-- Node1&#45;&gt;Node2 -->
<g id="edge1_Node000001_Node000002" class="edge">
<title>Node1&#45;&gt;Node2</title>
<g id="a_edge1_Node000001_Node000002"><a xlink:title=" ">
<path fill="none" stroke="#63b8ff" d="M202.63,-103.88C189.68,-94.34 173.2,-82.21 162.28,-74.17"/>
<polygon fill="#63b8ff" stroke="#63b8ff" points="200.8,-106.88 210.93,-109.98 204.95,-101.24 200.8,-106.88"/>
</a>
</g>
</g>
<!-- Node5 -->
<g id="Node000005" class="node">
<title>Node5</title>
<g id="a_Node000005"><a xlink:href="server_8hpp.html" target="_top" xlink:title="High&#45;rate UDP server: batch receive, optional echo, runtime metrics.">
<polygon fill="white" stroke="#666666" points="358,-74 231,-74 231,-55 358,-55 358,-74"/>
<text text-anchor="middle" x="294.5" y="-62" font-family="Helvetica,sans-Serif" font-size="10.00">include/udp/server.hpp</text>
</a>
</g>
</g>
<!-- Node1&#45;&gt;Node5 -->
<g id="edge4_Node000001_Node000005" class="edge">
<title>Node1&#45;&gt;Node5</title>
<g id="a_edge4_Node000001_Node000005"><a xlink:title=" ">
<path fill="none" stroke="#63b8ff" d="M242.37,-103.88C255.32,-94.34 271.8,-82.21 282.72,-74.17"/>
<polygon fill="#63b8ff" stroke="#63b8ff" points="240.05,-101.24 234.07,-109.98 244.2,-106.88 240.05,-101.24"/>
</a>
</g>
</g>
<!-- Node3 -->
<g id="Node000003" class="node">
<title>Node3</title>
<g id="a_Node000003"><a xlink:href="client_8cpp.html" target="_top" xlink:title="UdpClient implementation: paced batch sending toward a target PPS.">
<polygon fill="white" stroke="#666666" points="81,-19 0,-19 0,0 81,0 81,-19"/>
<text text-anchor="middle" x="40.5" y="-7" font-family="Helvetica,sans-Serif" font-size="10.00">src/client.cpp</text>
</a>
</g>
</g>
<!-- Node2&#45;&gt;Node3 -->
<g id="edge2_Node000002_Node000003" class="edge">
<title>Node2&#45;&gt;Node3</title>
<g id="a_edge2_Node000002_Node000003"><a xlink:title=" ">
<path fill="none" stroke="#63b8ff" d="M123.8,-50.63C103.53,-40.87 76.23,-27.71 58.49,-19.17"/>
<polygon fill="#63b8ff" stroke="#63b8ff" points="122.3,-53.8 132.83,-54.98 125.34,-47.49 122.3,-53.8"/>
</a>
</g>
</g>
<!-- Node4 -->
<g id="Node000004" class="node">
<title>Node4</title>
<g id="a_Node000004"><a xlink:href="main__client_8cpp.html" target="_top" xlink:title="UDP client entry point: parses CLI, configures UdpClient, and runs paced sending.">
<polygon fill="white" stroke="#666666" points="210,-19 99,-19 99,0 210,0 210,-19"/>
<text text-anchor="middle" x="154.5" y="-7" font-family="Helvetica,sans-Serif" font-size="10.00">src/main_client.cpp</text>
</a>
</g>
</g>
<!-- Node2&#45;&gt;Node4 -->
<g id="edge3_Node000002_Node000004" class="edge">
<title>Node2&#45;&gt;Node4</title>
<g id="a_edge3_Node000002_Node000004"><a xlink:title=" ">
<path fill="none" stroke="#63b8ff" d="M151.92,-44.66C152.58,-35.93 153.33,-25.99 153.85,-19.09"/>
<polygon fill="#63b8ff" stroke="#63b8ff" points="148.42,-44.51 151.16,-54.75 155.4,-45.04 148.42,-44.51"/>
</a>
</g>
</g>
<!-- Node6 -->
<g id="Node000006" class="node">
<title>Node6</title>
<g id="a_Node000006"><a xlink:href="main__server_8cpp.html" target="_top" xlink:title="UDP server entry point: parses CLI, starts/stops UdpServer, handles signals.">
<polygon fill="white" stroke="#666666" points="348.5,-19 234.5,-19 234.5,0 348.5,0 348.5,-19"/>
<text text-anchor="middle" x="291.5" y="-7" font-family="Helvetica,sans-Serif" font-size="10.00">src/main_server.cpp</text>
</a>
</g>
</g>
<!-- Node5&#45;&gt;Node6 -->
<g id="edge5_Node000005_Node000006" class="edge">
<title>Node5&#45;&gt;Node6</title>
<g id="a_edge5_Node000005_Node000006"><a xlink:title=" ">
<path fill="none" stroke="#63b8ff" d="M293.43,-44.66C292.94,-35.93 292.38,-25.99 291.99,-19.09"/>
<polygon fill="#63b8ff" stroke="#63b8ff" points="289.94,-44.96 294,-54.75 296.93,-44.57 289.94,-44.96"/>
</a>
</g>
</g>
<!-- Node7 -->
<g id="Node000007" class="node">
<title>Node7</title>
<g id="a_Node000007"><a xlink:href="server_8cpp.html" target="_top" xlink:title="UdpServer implementation: batch recv, optional echo, PPS accounting, and /metrics integration.">
<polygon fill="white" stroke="#666666" points="450.5,-19 366.5,-19 366.5,0 450.5,0 450.5,-19"/>
<text text-anchor="middle" x="408.5" y="-7" font-family="Helvetica,sans-Serif" font-size="10.00">src/server.cpp</text>
</a>
</g>
</g>
<!-- Node5&#45;&gt;Node7 -->
<g id="edge6_Node000005_Node000007" class="edge">
<title>Node5&#45;&gt;Node7</title>
<g id="a_edge6_Node000005_Node000007"><a xlink:title=" ">
<path fill="none" stroke="#63b8ff" d="M321.89,-50.77C342.92,-40.99 371.39,-27.75 389.85,-19.17"/>
<polygon fill="#63b8ff" stroke="#63b8ff" points="320.41,-47.6 312.82,-54.98 323.36,-53.94 320.41,-47.6"/>
</a>
</g>
</g>
</g>
</svg>
