<?xml version="1.0" encoding="UTF-8" standalone="no"?>
<!DOCTYPE svg PUBLIC "-//W3C//DTD SVG 1.1//EN"
 "http://www.w3.org/Graphics/SVG/1.1/DTD/svg11.dtd">
<!-- Generated by graphviz version 2.43.0 (0)
 -->
<!-- Title: Graphical Class Hierarchy Pages: 1 -->
<svg width="219pt" height="64pt"
 viewBox="0.00 0.00 219.00 64.00" xmlns="http://www.w3.org/2000/svg" xmlns:xlink="http://www.w3.org/1999/xlink">
<g id="graph0" class="graph" transform="scale(1 1) rotate(0) translate(4 60)">
<title>Graphical Class Hierarchy</title>
<!-- Node0 -->
<g id="Node000000" class="node">
<title>Node0</title>
<g id="a_Node000000"><a xlink:href="classudp_1_1ISocket.html" target="_top" xlink:title="Abstract socket interface (strategy/port).">
<polygon fill="white" stroke="#666666" points="76,-37 0,-37 0,-18 76,-18 76,-37"/>
<text text-anchor="middle" x="38" y="-25" font-family="Helvetica,sans-Serif" font-size="10.00">udp::ISocket</text>
</a>
</g>
</g>
<!-- Node1 -->
<g id="Node000001" class="node">
<title>Node1</title>
<g id="a_Node000001"><a xlink:href="classudp_1_1MockSocket.html" target="_top" xlink:title="In&#45;memory test double for ISocket (no real network I/O).">
<polygon fill="white" stroke="#666666" points="211,-56 112,-56 112,-37 211,-37 211,-56"/>
<text text-anchor="middle" x="161.5" y="-44" font-family="Helvetica,sans-Serif" font-size="10.00">udp::MockSocket</text>
</a>
</g>
</g>
<!-- Node0&#45;&gt;Node1 -->
<g id="edge1_Node000000_Node000001" class="edge">
<title>Node0&#45;&gt;Node1</title>
<g id="a_edge1_Node000000_Node000001"><a xlink:title=" ">
<path fill="none" stroke="#63b8ff" d="M86.2,-34.88C94.65,-36.2 103.47,-37.58 111.96,-38.91"/>
<polygon fill="#63b8ff" stroke="#63b8ff" points="86.53,-31.39 76.11,-33.3 85.45,-38.31 86.53,-31.39"/>
</a>
</g>
</g>
<!-- Node2 -->
<g id="Node000002" class="node">
<title>Node2</title>
<g id="a_Node000002"><a xlink:href="classudp_1_1UdpSocket.html" target="_top" xlink:title="UDP socket implementation using POSIX/Linux syscalls.">
<polygon fill="white" stroke="#666666" points="207.5,-19 115.5,-19 115.5,0 207.5,0 207.5,-19"/>
<text text-anchor="middle" x="161.5" y="-7" font-family="Helvetica,sans-Serif" font-size="10.00">udp::UdpSocket</text>
</a>
</g>
</g>
<!-- Node0&#45;&gt;Node2 -->
<g id="edge2_Node000000_Node000002" class="edge">
<title>Node0&#45;&gt;Node2</title>
<g id="a_edge2_Node000000_Node000002"><a xlink:title=" ">
<path fill="none" stroke="#63b8ff" d="M86.3,-20.49C95.89,-19.07 105.96,-17.58 115.48,-16.17"/>
<polygon fill="#63b8ff" stroke="#63b8ff" points="85.49,-17.07 76.11,-22 86.52,-24 85.49,-17.07"/>
</a>
</g>
</g>
</g>
</svg>
