<?xml version="1.0" encoding="UTF-8" standalone="no"?>
<!DOCTYPE svg PUBLIC "-//W3C//DTD SVG 1.1//EN"
 "http://www.w3.org/Graphics/SVG/1.1/DTD/svg11.dtd">
<!-- Generated by graphviz version 2.43.0 (0)
 -->
<!-- Title: src/main_server.cpp Pages: 1 -->
<svg width="906pt" height="247pt"
 viewBox="0.00 0.00 905.51 247.00" xmlns="http://www.w3.org/2000/svg" xmlns:xlink="http://www.w3.org/1999/xlink">
<g id="graph0" class="graph" transform="scale(1 1) rotate(0) translate(4 243)">
<title>src/main_server.cpp</title>
<!-- Node1 -->
<g id="Node000001" class="node">
<title>Node1</title>
<g id="a_Node000001"><a xlink:title="UDP server entry point: parses CLI, starts/stops UdpServer, handles signals.">
<polygon fill="#999999" stroke="#666666" points="438.5,-239 324.5,-239 324.5,-220 438.5,-220 438.5,-239"/>
<text text-anchor="middle" x="381.5" y="-227" font-family="Helvetica,sans-Serif" font-size="10.00">src/main_server.cpp</text>
</a>
</g>
</g>
<!-- Node2 -->
<g id="Node000002" class="node">
<title>Node2</title>
<g id="a_Node000002"><a xlink:href="server_8hpp.html" target="_top" xlink:title="High&#45;rate UDP server: batch receive, optional echo, runtime metrics.">
<polygon fill="white" stroke="#666666" points="334,-184 245,-184 245,-165 334,-165 334,-184"/>
<text text-anchor="middle" x="289.5" y="-172" font-family="Helvetica,sans-Serif" font-size="10.00">udp/server.hpp</text>
</a>
</g>
</g>
<!-- Node1&#45;&gt;Node2 -->
<g id="edge1_Node000001_Node000002" class="edge">
<title>Node1&#45;&gt;Node2</title>
<g id="a_edge1_Node000001_Node000002"><a xlink:title=" ">
<path fill="none" stroke="#63b8ff" d="M366.72,-219.98C352.32,-211.69 330.19,-198.94 313.31,-189.22"/>
<polygon fill="#63b8ff" stroke="#63b8ff" points="314.96,-186.13 304.55,-184.17 311.47,-192.19 314.96,-186.13"/>
</a>
</g>
</g>
<!-- Node4 -->
<g id="Node000004" class="node">
<title>Node4</title>
<g id="a_Node000004"><a xlink:title=" ">
<polygon fill="#e0e0e0" stroke="#999999" points="301.5,-19 251.5,-19 251.5,0 301.5,0 301.5,-19"/>
<text text-anchor="middle" x="276.5" y="-7" font-family="Helvetica,sans-Serif" font-size="10.00">atomic</text>
</a>
</g>
</g>
<!-- Node1&#45;&gt;Node4 -->
<g id="edge36_Node000001_Node000004" class="edge">
<title>Node1&#45;&gt;Node4</title>
<g id="a_edge36_Node000001_Node000004"><a xlink:title=" ">
<path fill="none" stroke="#63b8ff" d="M324.43,-223.55C242.61,-212.82 97.04,-179.11 53.5,-74 11.94,26.33 71.44,-52.98 241.27,-19.08"/>
<polygon fill="#63b8ff" stroke="#63b8ff" points="242.22,-22.45 251.29,-16.97 240.78,-15.6 242.22,-22.45"/>
</a>
</g>
</g>
<!-- Node5 -->
<g id="Node000005" class="node">
<title>Node5</title>
<g id="a_Node000005"><a xlink:title=" ">
<polygon fill="#e0e0e0" stroke="#999999" points="110.5,-74 62.5,-74 62.5,-55 110.5,-55 110.5,-74"/>
<text text-anchor="middle" x="86.5" y="-62" font-family="Helvetica,sans-Serif" font-size="10.00">thread</text>
</a>
</g>
</g>
<!-- Node1&#45;&gt;Node5 -->
<g id="edge34_Node000001_Node000005" class="edge">
<title>Node1&#45;&gt;Node5</title>
<g id="a_edge34_Node000001_Node000005"><a xlink:title=" ">
<path fill="none" stroke="#63b8ff" d="M332.84,-219.92C277.59,-208 187.48,-181.65 128.5,-129 114.06,-116.11 102.4,-97.19 95.06,-83.35"/>
<polygon fill="#63b8ff" stroke="#63b8ff" points="98.14,-81.68 90.5,-74.33 91.89,-84.84 98.14,-81.68"/>
</a>
</g>
</g>
<!-- Node7 -->
<g id="Node000007" class="node">
<title>Node7</title>
<g id="a_Node000007"><a xlink:href="socket_8hpp.html" target="_top" xlink:title="Socket abstraction for high&#45;rate UDP I/O (batch send/receive) plus a test double.">
<polygon fill="white" stroke="#666666" points="714.5,-129 624.5,-129 624.5,-110 714.5,-110 714.5,-129"/>
<text text-anchor="middle" x="669.5" y="-117" font-family="Helvetica,sans-Serif" font-size="10.00">udp/socket.hpp</text>
</a>
</g>
</g>
<!-- Node1&#45;&gt;Node7 -->
<g id="edge31_Node000001_Node000007" class="edge">
<title>Node1&#45;&gt;Node7</title>
<g id="a_edge31_Node000001_Node000007"><a xlink:title=" ">
<path fill="none" stroke="#63b8ff" d="M384.06,-219.9C388.68,-205.94 399.83,-178.57 419.5,-165 423.52,-162.22 542.03,-141.93 614.42,-129.72"/>
<polygon fill="#63b8ff" stroke="#63b8ff" points="615.03,-133.17 624.31,-128.06 613.86,-126.27 615.03,-133.17"/>
</a>
</g>
</g>
<!-- Node19 -->
<g id="Node000019" class="node">
<title>Node19</title>
<g id="a_Node000019"><a xlink:title=" ">
<polygon fill="#e0e0e0" stroke="#999999" points="394.5,-74 344.5,-74 344.5,-55 394.5,-55 394.5,-74"/>
<text text-anchor="middle" x="369.5" y="-62" font-family="Helvetica,sans-Serif" font-size="10.00">chrono</text>
</a>
</g>
</g>
<!-- Node1&#45;&gt;Node19 -->
<g id="edge35_Node000001_Node000019" class="edge">
<title>Node1&#45;&gt;Node19</title>
<g id="a_edge35_Node000001_Node000019"><a xlink:title=" ">
<path fill="none" stroke="#63b8ff" d="M380.85,-219.74C378.98,-194.31 373.52,-120.08 370.91,-84.69"/>
<polygon fill="#63b8ff" stroke="#63b8ff" points="374.37,-84.02 370.15,-74.31 367.39,-84.54 374.37,-84.02"/>
</a>
</g>
</g>
<!-- Node21 -->
<g id="Node000021" class="node">
<title>Node21</title>
<g id="a_Node000021"><a xlink:title=" ">
<polygon fill="#e0e0e0" stroke="#999999" points="488.5,-184 428.5,-184 428.5,-165 488.5,-165 488.5,-184"/>
<text text-anchor="middle" x="458.5" y="-172" font-family="Helvetica,sans-Serif" font-size="10.00">iostream</text>
</a>
</g>
</g>
<!-- Node1&#45;&gt;Node21 -->
<g id="edge32_Node000001_Node000021" class="edge">
<title>Node1&#45;&gt;Node21</title>
<g id="a_edge32_Node000001_Node000021"><a xlink:title=" ">
<path fill="none" stroke="#63b8ff" d="M393.87,-219.98C405.59,-211.92 423.42,-199.65 437.39,-190.03"/>
<polygon fill="#63b8ff" stroke="#63b8ff" points="439.65,-192.72 445.9,-184.17 435.68,-186.96 439.65,-192.72"/>
</a>
</g>
</g>
<!-- Node22 -->
<g id="Node000022" class="node">
<title>Node22</title>
<g id="a_Node000022"><a xlink:title=" ">
<polygon fill="#e0e0e0" stroke="#999999" points="556.5,-184 506.5,-184 506.5,-165 556.5,-165 556.5,-184"/>
<text text-anchor="middle" x="531.5" y="-172" font-family="Helvetica,sans-Serif" font-size="10.00">cstring</text>
</a>
</g>
</g>
<!-- Node1&#45;&gt;Node22 -->
<g id="edge33_Node000001_Node000022" class="edge">
<title>Node1&#45;&gt;Node22</title>
<g id="a_edge33_Node000001_Node000022"><a xlink:title=" ">
<path fill="none" stroke="#63b8ff" d="M405.6,-219.98C430.38,-211.23 469.2,-197.51 497.19,-187.62"/>
<polygon fill="#63b8ff" stroke="#63b8ff" points="498.7,-190.8 506.96,-184.17 496.37,-184.2 498.7,-190.8"/>
</a>
</g>
</g>
<!-- Node23 -->
<g id="Node000023" class="node">
<title>Node23</title>
<g id="a_Node000023"><a xlink:title=" ">
<polygon fill="#e0e0e0" stroke="#999999" points="626,-184 575,-184 575,-165 626,-165 626,-184"/>
<text text-anchor="middle" x="600.5" y="-172" font-family="Helvetica,sans-Serif" font-size="10.00">csignal</text>
</a>
</g>
</g>
<!-- Node1&#45;&gt;Node23 -->
<g id="edge37_Node000001_Node000023" class="edge">
<title>Node1&#45;&gt;Node23</title>
<g id="a_edge37_Node000001_Node000023"><a xlink:title=" ">
<path fill="none" stroke="#63b8ff" d="M416.78,-219.98C451.79,-211.52 507.27,-198.11 564.87,-184.15"/>
<polygon fill="#63b8ff" stroke="#63b8ff" points="565.99,-187.48 574.89,-181.72 564.34,-180.68 565.99,-187.48"/>
</a>
</g>
</g>
<!-- Node3 -->
<g id="Node000003" class="node">
<title>Node3</title>
<g id="a_Node000003"><a xlink:title=" ">
<polygon fill="#e0e0e0" stroke="#999999" points="638,-74 591,-74 591,-55 638,-55 638,-74"/>
<text text-anchor="middle" x="614.5" y="-62" font-family="Helvetica,sans-Serif" font-size="10.00">vector</text>
</a>
</g>
</g>
<!-- Node2&#45;&gt;Node3 -->
<g id="edge2_Node000002_Node000003" class="edge">
<title>Node2&#45;&gt;Node3</title>
<g id="a_edge2_Node000002_Node000003"><a xlink:title=" ">
<path fill="none" stroke="#63b8ff" d="M334.05,-168.18C377.73,-162.03 445.7,-149.97 501.5,-129 519.57,-122.21 564.19,-95.99 591.65,-79.44"/>
<polygon fill="#63b8ff" stroke="#63b8ff" points="593.49,-82.41 600.24,-74.24 589.87,-76.42 593.49,-82.41"/>
</a>
</g>
</g>
<!-- Node2&#45;&gt;Node4 -->
<g id="edge3_Node000002_Node000004" class="edge">
<title>Node2&#45;&gt;Node4</title>
<g id="a_edge3_Node000002_Node000004"><a xlink:title=" ">
<path fill="none" stroke="#63b8ff" d="M293.61,-164.88C297.56,-156.09 303.24,-141.94 305.5,-129 311.81,-92.81 296.26,-51.27 285.57,-28.23"/>
<polygon fill="#63b8ff" stroke="#63b8ff" points="288.62,-26.5 281.1,-19.04 282.33,-29.56 288.62,-26.5"/>
</a>
</g>
</g>
<!-- Node2&#45;&gt;Node5 -->
<g id="edge4_Node000002_Node000005" class="edge">
<title>Node2&#45;&gt;Node5</title>
<g id="a_edge4_Node000002_Node000005"><a xlink:title=" ">
<path fill="none" stroke="#63b8ff" d="M251.07,-164.94C223.75,-157.84 186.86,-146.1 157.5,-129 135.52,-116.2 114.32,-95.86 100.9,-81.66"/>
<polygon fill="#63b8ff" stroke="#63b8ff" points="103.3,-79.09 93.95,-74.11 98.15,-83.84 103.3,-79.09"/>
</a>
</g>
</g>
<!-- Node6 -->
<g id="Node000006" class="node">
<title>Node6</title>
<g id="a_Node000006"><a xlink:title=" ">
<polygon fill="#e0e0e0" stroke="#999999" points="606.5,-129 548.5,-129 548.5,-110 606.5,-110 606.5,-129"/>
<text text-anchor="middle" x="577.5" y="-117" font-family="Helvetica,sans-Serif" font-size="10.00">memory</text>
</a>
</g>
</g>
<!-- Node2&#45;&gt;Node6 -->
<g id="edge5_Node000002_Node000006" class="edge">
<title>Node2&#45;&gt;Node6</title>
<g id="a_edge5_Node000002_Node000006"><a xlink:title=" ">
<path fill="none" stroke="#63b8ff" d="M334.25,-165.59C383.39,-156.85 464.63,-142.25 534.5,-129 535.76,-128.76 537.04,-128.52 538.34,-128.27"/>
<polygon fill="#63b8ff" stroke="#63b8ff" points="539.22,-131.66 548.37,-126.32 537.88,-124.79 539.22,-131.66"/>
</a>
</g>
</g>
<!-- Node2&#45;&gt;Node7 -->
<g id="edge6_Node000002_Node000007" class="edge">
<title>Node2&#45;&gt;Node7</title>
<g id="a_edge6_Node000002_Node000007"><a xlink:title=" ">
<path fill="none" stroke="#63b8ff" d="M334.1,-167.71C395.02,-159.73 507.94,-144.71 614.47,-129.13"/>
<polygon fill="#63b8ff" stroke="#63b8ff" points="615.04,-132.58 624.43,-127.67 614.03,-125.65 615.04,-132.58"/>
</a>
</g>
</g>
<!-- Node13 -->
<g id="Node000013" class="node">
<title>Node13</title>
<g id="a_Node000013"><a xlink:href="stats_8hpp.html" target="_top" xlink:title="Lightweight, thread&#45;safe counters and client tracking for UDP throughput tests.">
<polygon fill="white" stroke="#666666" points="212,-74 129,-74 129,-55 212,-55 212,-74"/>
<text text-anchor="middle" x="170.5" y="-62" font-family="Helvetica,sans-Serif" font-size="10.00">udp/stats.hpp</text>
</a>
</g>
</g>
<!-- Node2&#45;&gt;Node13 -->
<g id="edge14_Node000002_Node000013" class="edge">
<title>Node2&#45;&gt;Node13</title>
<g id="a_edge14_Node000002_Node000013"><a xlink:title=" ">
<path fill="none" stroke="#63b8ff" d="M244.89,-169.73C217.68,-164.87 184.88,-153.85 167.5,-129 158.41,-116.01 160.47,-97.61 164.02,-83.96"/>
<polygon fill="#63b8ff" stroke="#63b8ff" points="167.42,-84.81 167.01,-74.22 160.73,-82.76 167.42,-84.81"/>
</a>
</g>
</g>
<!-- Node17 -->
<g id="Node000017" class="node">
<title>Node17</title>
<g id="a_Node000017"><a xlink:href="common_8hpp.html" target="_top" xlink:title="Common wire&#45;level types and tiny utilities for the UDP high&#45;rate demo.">
<polygon fill="white" stroke="#666666" points="492,-129 391,-129 391,-110 492,-110 492,-129"/>
<text text-anchor="middle" x="441.5" y="-117" font-family="Helvetica,sans-Serif" font-size="10.00">udp/common.hpp</text>
</a>
</g>
</g>
<!-- Node2&#45;&gt;Node17 -->
<g id="edge21_Node000002_Node000017" class="edge">
<title>Node2&#45;&gt;Node17</title>
<g id="a_edge21_Node000002_Node000017"><a xlink:title=" ">
<path fill="none" stroke="#63b8ff" d="M313.92,-164.98C339.22,-156.16 378.95,-142.31 407.36,-132.41"/>
<polygon fill="#63b8ff" stroke="#63b8ff" points="408.6,-135.68 416.89,-129.08 406.29,-129.07 408.6,-135.68"/>
</a>
</g>
</g>
<!-- Node20 -->
<g id="Node000020" class="node">
<title>Node20</title>
<g id="a_Node000020"><a xlink:href="metrics__http_8hpp.html" target="_top" xlink:title="Minimal HTTP server that exposes runtime metrics for scraping.">
<polygon fill="white" stroke="#666666" points="296.5,-129 176.5,-129 176.5,-110 296.5,-110 296.5,-129"/>
<text text-anchor="middle" x="236.5" y="-117" font-family="Helvetica,sans-Serif" font-size="10.00">udp/metrics_http.hpp</text>
</a>
</g>
</g>
<!-- Node2&#45;&gt;Node20 -->
<g id="edge26_Node000002_Node000020" class="edge">
<title>Node2&#45;&gt;Node20</title>
<g id="a_edge26_Node000002_Node000020"><a xlink:title=" ">
<path fill="none" stroke="#63b8ff" d="M280.75,-164.75C273.03,-157.03 261.6,-145.6 252.28,-136.28"/>
<polygon fill="#63b8ff" stroke="#63b8ff" points="254.64,-133.69 245.09,-129.09 249.69,-138.64 254.64,-133.69"/>
</a>
</g>
</g>
<!-- Node7&#45;&gt;Node3 -->
<g id="edge7_Node000007_Node000003" class="edge">
<title>Node7&#45;&gt;Node3</title>
<g id="a_edge7_Node000007_Node000003"><a xlink:title=" ">
<path fill="none" stroke="#63b8ff" d="M660.42,-109.75C652.41,-102.03 640.54,-90.6 630.88,-81.28"/>
<polygon fill="#63b8ff" stroke="#63b8ff" points="633.04,-78.51 623.41,-74.09 628.19,-83.55 633.04,-78.51"/>
</a>
</g>
</g>
<!-- Node7&#45;&gt;Node4 -->
<g id="edge10_Node000007_Node000004" class="edge">
<title>Node7&#45;&gt;Node4</title>
<g id="a_edge10_Node000007_Node000004"><a xlink:title=" ">
<path fill="none" stroke="#63b8ff" d="M669.25,-109.91C668.35,-95.97 664.4,-68.62 647.5,-55 634.47,-44.5 401.44,-22.02 311.51,-13.69"/>
<polygon fill="#63b8ff" stroke="#63b8ff" points="311.8,-10.2 301.52,-12.77 311.16,-17.17 311.8,-10.2"/>
</a>
</g>
</g>
<!-- Node8 -->
<g id="Node000008" class="node">
<title>Node8</title>
<g id="a_Node000008"><a xlink:title=" ">
<polygon fill="#e0e0e0" stroke="#999999" points="422.5,-19 378.5,-19 378.5,0 422.5,0 422.5,-19"/>
<text text-anchor="middle" x="400.5" y="-7" font-family="Helvetica,sans-Serif" font-size="10.00">string</text>
</a>
</g>
</g>
<!-- Node7&#45;&gt;Node8 -->
<g id="edge8_Node000007_Node000008" class="edge">
<title>Node7&#45;&gt;Node8</title>
<g id="a_edge8_Node000007_Node000008"><a xlink:title=" ">
<path fill="none" stroke="#63b8ff" d="M674.79,-109.97C682.34,-96.61 693.87,-70.66 680.5,-55 649.02,-18.12 500.13,-11.65 433.21,-10.63"/>
<polygon fill="#63b8ff" stroke="#63b8ff" points="432.88,-7.12 422.83,-10.5 432.79,-14.12 432.88,-7.12"/>
</a>
</g>
</g>
<!-- Node9 -->
<g id="Node000009" class="node">
<title>Node9</title>
<g id="a_Node000009"><a xlink:title=" ">
<polygon fill="#e0e0e0" stroke="#999999" points="572.5,-74 522.5,-74 522.5,-55 572.5,-55 572.5,-74"/>
<text text-anchor="middle" x="547.5" y="-62" font-family="Helvetica,sans-Serif" font-size="10.00">cstdint</text>
</a>
</g>
</g>
<!-- Node7&#45;&gt;Node9 -->
<g id="edge9_Node000007_Node000009" class="edge">
<title>Node7&#45;&gt;Node9</title>
<g id="a_edge9_Node000007_Node000009"><a xlink:title=" ">
<path fill="none" stroke="#63b8ff" d="M649.9,-109.98C630.18,-101.42 599.55,-88.11 576.92,-78.28"/>
<polygon fill="#63b8ff" stroke="#63b8ff" points="578.02,-74.94 567.46,-74.17 575.24,-81.37 578.02,-74.94"/>
</a>
</g>
</g>
<!-- Node10 -->
<g id="Node000010" class="node">
<title>Node10</title>
<g id="a_Node000010"><a xlink:title=" ">
<polygon fill="#e0e0e0" stroke="#999999" points="712.5,-19 640.5,-19 640.5,0 712.5,0 712.5,-19"/>
<text text-anchor="middle" x="676.5" y="-7" font-family="Helvetica,sans-Serif" font-size="10.00">netinet/in.h</text>
</a>
</g>
</g>
<!-- Node7&#45;&gt;Node10 -->
<g id="edge11_Node000007_Node000010" class="edge">
<title>Node7&#45;&gt;Node10</title>
<g id="a_edge11_Node000007_Node000010"><a xlink:title=" ">
<path fill="none" stroke="#63b8ff" d="M714.97,-116.08C773.79,-111.89 871.36,-100.97 893.5,-74 898.86,-67.47 898.84,-61.54 893.5,-55 872.39,-29.12 780.03,-17.87 722.83,-13.32"/>
<polygon fill="#63b8ff" stroke="#63b8ff" points="722.81,-9.81 712.58,-12.54 722.29,-16.79 722.81,-9.81"/>
</a>
</g>
</g>
<!-- Node11 -->
<g id="Node000011" class="node">
<title>Node11</title>
<g id="a_Node000011"><a xlink:title=" ">
<polygon fill="#e0e0e0" stroke="#999999" points="810,-74 733,-74 733,-55 810,-55 810,-74"/>
<text text-anchor="middle" x="771.5" y="-62" font-family="Helvetica,sans-Serif" font-size="10.00">sys/socket.h</text>
</a>
</g>
</g>
<!-- Node7&#45;&gt;Node11 -->
<g id="edge12_Node000007_Node000011" class="edge">
<title>Node7&#45;&gt;Node11</title>
<g id="a_edge12_Node000007_Node000011"><a xlink:title=" ">
<path fill="none" stroke="#63b8ff" d="M685.89,-109.98C702.07,-101.57 727.07,-88.59 745.88,-78.81"/>
<polygon fill="#63b8ff" stroke="#63b8ff" points="747.55,-81.89 754.81,-74.17 744.33,-75.68 747.55,-81.89"/>
</a>
</g>
</g>
<!-- Node12 -->
<g id="Node000012" class="node">
<title>Node12</title>
<g id="a_Node000012"><a xlink:title=" ">
<polygon fill="#e0e0e0" stroke="#999999" points="884.5,-74 828.5,-74 828.5,-55 884.5,-55 884.5,-74"/>
<text text-anchor="middle" x="856.5" y="-62" font-family="Helvetica,sans-Serif" font-size="10.00">unistd.h</text>
</a>
</g>
</g>
<!-- Node7&#45;&gt;Node12 -->
<g id="edge13_Node000007_Node000012" class="edge">
<title>Node7&#45;&gt;Node12</title>
<g id="a_edge13_Node000007_Node000012"><a xlink:title=" ">
<path fill="none" stroke="#63b8ff" d="M699.54,-109.98C731.87,-100.82 783.35,-86.23 818.48,-76.28"/>
<polygon fill="#63b8ff" stroke="#63b8ff" points="819.7,-79.57 828.37,-73.47 817.79,-72.83 819.7,-79.57"/>
</a>
</g>
</g>
<!-- Node13&#45;&gt;Node4 -->
<g id="edge15_Node000013_Node000004" class="edge">
<title>Node13&#45;&gt;Node4</title>
<g id="a_edge15_Node000013_Node000004"><a xlink:title=" ">
<path fill="none" stroke="#63b8ff" d="M187.53,-54.98C204.43,-46.54 230.56,-33.47 250.14,-23.68"/>
<polygon fill="#63b8ff" stroke="#63b8ff" points="251.78,-26.77 259.16,-19.17 248.65,-20.51 251.78,-26.77"/>
</a>
</g>
</g>
<!-- Node13&#45;&gt;Node8 -->
<g id="edge19_Node000013_Node000008" class="edge">
<title>Node13&#45;&gt;Node8</title>
<g id="a_edge19_Node000013_Node000008"><a xlink:title=" ">
<path fill="none" stroke="#63b8ff" d="M207.45,-54.98C252.03,-44.71 326.23,-27.61 368.48,-17.88"/>
<polygon fill="#63b8ff" stroke="#63b8ff" points="369.29,-21.28 378.24,-15.63 367.71,-14.46 369.29,-21.28"/>
</a>
</g>
</g>
<!-- Node13&#45;&gt;Node10 -->
<g id="edge18_Node000013_Node000010" class="edge">
<title>Node13&#45;&gt;Node10</title>
<g id="a_edge18_Node000013_Node000010"><a xlink:title=" ">
<path fill="none" stroke="#63b8ff" d="M212.34,-59.12C306.12,-49.29 532.57,-25.58 630.31,-15.34"/>
<polygon fill="#63b8ff" stroke="#63b8ff" points="630.89,-18.8 640.47,-14.27 630.16,-11.84 630.89,-18.8"/>
</a>
</g>
</g>
<!-- Node14 -->
<g id="Node000014" class="node">
<title>Node14</title>
<g id="a_Node000014"><a xlink:title=" ">
<polygon fill="#e0e0e0" stroke="#999999" points="93,-19 0,-19 0,0 93,0 93,-19"/>
<text text-anchor="middle" x="46.5" y="-7" font-family="Helvetica,sans-Serif" font-size="10.00">unordered_map</text>
</a>
</g>
</g>
<!-- Node13&#45;&gt;Node14 -->
<g id="edge16_Node000013_Node000014" class="edge">
<title>Node13&#45;&gt;Node14</title>
<g id="a_edge16_Node000013_Node000014"><a xlink:title=" ">
<path fill="none" stroke="#63b8ff" d="M150.58,-54.98C130.45,-46.38 99.12,-32.99 76.09,-23.15"/>
<polygon fill="#63b8ff" stroke="#63b8ff" points="77.36,-19.88 66.79,-19.17 74.6,-26.32 77.36,-19.88"/>
</a>
</g>
</g>
<!-- Node15 -->
<g id="Node000015" class="node">
<title>Node15</title>
<g id="a_Node000015"><a xlink:title=" ">
<polygon fill="#e0e0e0" stroke="#999999" points="159.5,-19 111.5,-19 111.5,0 159.5,0 159.5,-19"/>
<text text-anchor="middle" x="135.5" y="-7" font-family="Helvetica,sans-Serif" font-size="10.00">mutex</text>
</a>
</g>
</g>
<!-- Node13&#45;&gt;Node15 -->
<g id="edge17_Node000013_Node000015" class="edge">
<title>Node13&#45;&gt;Node15</title>
<g id="a_edge17_Node000013_Node000015"><a xlink:title=" ">
<path fill="none" stroke="#63b8ff" d="M164.72,-54.75C159.88,-47.42 152.82,-36.73 146.86,-27.7"/>
<polygon fill="#63b8ff" stroke="#63b8ff" points="149.6,-25.5 141.17,-19.09 143.76,-29.36 149.6,-25.5"/>
</a>
</g>
</g>
<!-- Node16 -->
<g id="Node000016" class="node">
<title>Node16</title>
<g id="a_Node000016"><a xlink:title=" ">
<polygon fill="#e0e0e0" stroke="#999999" points="233.5,-19 177.5,-19 177.5,0 233.5,0 233.5,-19"/>
<text text-anchor="middle" x="205.5" y="-7" font-family="Helvetica,sans-Serif" font-size="10.00">sstream</text>
</a>
</g>
</g>
<!-- Node13&#45;&gt;Node16 -->
<g id="edge20_Node000013_Node000016" class="edge">
<title>Node13&#45;&gt;Node16</title>
<g id="a_edge20_Node000013_Node000016"><a xlink:title=" ">
<path fill="none" stroke="#63b8ff" d="M176.28,-54.75C181.12,-47.42 188.18,-36.73 194.14,-27.7"/>
<polygon fill="#63b8ff" stroke="#63b8ff" points="197.24,-29.36 199.83,-19.09 191.4,-25.5 197.24,-29.36"/>
</a>
</g>
</g>
<!-- Node17&#45;&gt;Node8 -->
<g id="edge24_Node000017_Node000008" class="edge">
<title>Node17&#45;&gt;Node8</title>
<g id="a_edge24_Node000017_Node000008"><a xlink:title=" ">
<path fill="none" stroke="#63b8ff" d="M452.11,-109.79C465.77,-97.49 486.51,-74.34 475.5,-55 466.19,-38.66 448.26,-27.7 432.26,-20.74"/>
<polygon fill="#63b8ff" stroke="#63b8ff" points="433.23,-17.36 422.65,-16.92 430.65,-23.87 433.23,-17.36"/>
</a>
</g>
</g>
<!-- Node17&#45;&gt;Node9 -->
<g id="edge22_Node000017_Node000009" class="edge">
<title>Node17&#45;&gt;Node9</title>
<g id="a_edge22_Node000017_Node000009"><a xlink:title=" ">
<path fill="none" stroke="#63b8ff" d="M458.53,-109.98C475.43,-101.54 501.56,-88.47 521.14,-78.68"/>
<polygon fill="#63b8ff" stroke="#63b8ff" points="522.78,-81.77 530.16,-74.17 519.65,-75.51 522.78,-81.77"/>
</a>
</g>
</g>
<!-- Node18 -->
<g id="Node000018" class="node">
<title>Node18</title>
<g id="a_Node000018"><a xlink:title=" ">
<polygon fill="#e0e0e0" stroke="#999999" points="466,-74 413,-74 413,-55 466,-55 466,-74"/>
<text text-anchor="middle" x="439.5" y="-62" font-family="Helvetica,sans-Serif" font-size="10.00">cstddef</text>
</a>
</g>
</g>
<!-- Node17&#45;&gt;Node18 -->
<g id="edge23_Node000017_Node000018" class="edge">
<title>Node17&#45;&gt;Node18</title>
<g id="a_edge23_Node000017_Node000018"><a xlink:title=" ">
<path fill="none" stroke="#63b8ff" d="M441.17,-109.75C440.91,-102.8 440.53,-92.85 440.2,-84.13"/>
<polygon fill="#63b8ff" stroke="#63b8ff" points="443.7,-83.95 439.82,-74.09 436.7,-84.21 443.7,-83.95"/>
</a>
</g>
</g>
<!-- Node17&#45;&gt;Node19 -->
<g id="edge25_Node000017_Node000019" class="edge">
<title>Node17&#45;&gt;Node19</title>
<g id="a_edge25_Node000017_Node000019"><a xlink:title=" ">
<path fill="none" stroke="#63b8ff" d="M429.93,-109.98C419.08,-102 402.62,-89.88 389.62,-80.31"/>
<polygon fill="#63b8ff" stroke="#63b8ff" points="391.41,-77.28 381.28,-74.17 387.26,-82.92 391.41,-77.28"/>
</a>
</g>
</g>
<!-- Node20&#45;&gt;Node4 -->
<g id="edge28_Node000020_Node000004" class="edge">
<title>Node20&#45;&gt;Node4</title>
<g id="a_edge28_Node000020_Node000004"><a xlink:title=" ">
<path fill="none" stroke="#63b8ff" d="M239.77,-109.66C246.31,-92.01 261.1,-52.09 269.78,-28.64"/>
<polygon fill="#63b8ff" stroke="#63b8ff" points="273.1,-29.75 273.29,-19.16 266.54,-27.32 273.1,-29.75"/>
</a>
</g>
</g>
<!-- Node20&#45;&gt;Node5 -->
<g id="edge27_Node000020_Node000005" class="edge">
<title>Node20&#45;&gt;Node5</title>
<g id="a_edge27_Node000020_Node000005"><a xlink:title=" ">
<path fill="none" stroke="#63b8ff" d="M212.4,-109.98C187.47,-101.18 148.33,-87.35 120.31,-77.45"/>
<polygon fill="#63b8ff" stroke="#63b8ff" points="121.14,-74.03 110.54,-73.99 118.8,-80.63 121.14,-74.03"/>
</a>
</g>
</g>
<!-- Node20&#45;&gt;Node8 -->
<g id="edge29_Node000020_Node000008" class="edge">
<title>Node20&#45;&gt;Node8</title>
<g id="a_edge29_Node000020_Node000008"><a xlink:title=" ">
<path fill="none" stroke="#63b8ff" d="M249.64,-109.84C277.83,-91.28 344.33,-47.49 378.86,-24.75"/>
<polygon fill="#63b8ff" stroke="#63b8ff" points="380.87,-27.62 387.29,-19.2 377.02,-21.77 380.87,-27.62"/>
</a>
</g>
</g>
<!-- Node20&#45;&gt;Node13 -->
<g id="edge30_Node000020_Node000013" class="edge">
<title>Node20&#45;&gt;Node13</title>
<g id="a_edge30_Node000020_Node000013"><a xlink:title=" ">
<path fill="none" stroke="#63b8ff" d="M225.9,-109.98C216.04,-102.07 201.15,-90.11 189.28,-80.58"/>
<polygon fill="#63b8ff" stroke="#63b8ff" points="191.29,-77.7 181.3,-74.17 186.9,-83.16 191.29,-77.7"/>
</a>
</g>
</g>
</g>
</svg>
