<?xml version="1.0" encoding="UTF-8" standalone="no"?>
<!DOCTYPE svg PUBLIC "-//W3C//DTD SVG 1.1//EN"
 "http://www.w3.org/Graphics/SVG/1.1/DTD/svg11.dtd">
<!-- Generated by graphviz version 2.43.0 (0)
 -->
<!-- Title: main Pages: 1 -->
<svg width="202pt" height="64pt"
 viewBox="0.00 0.00 202.00 64.00" xmlns="http://www.w3.org/2000/svg" xmlns:xlink="http://www.w3.org/1999/xlink">
<g id="graph0" class="graph" transform="scale(1 1) rotate(0) translate(4 60)">
<title>main</title>
<!-- Node1 -->
<g id="Node000001" class="node">
<title>Node1</title>
<g id="a_Node000001"><a xlink:title="Application entry point: configure and run the paced UDP client.">
<polygon fill="#999999" stroke="#666666" points="41,-37 0,-37 0,-18 41,-18 41,-37"/>
<text text-anchor="middle" x="20.5" y="-25" font-family="Helvetica,sans-Serif" font-size="10.00">main</text>
</a>
</g>
</g>
<!-- Node2 -->
<g id="Node000002" class="node">
<title>Node2</title>
<g id="a_Node000002"><a xlink:href="classudp_1_1UdpClient.html#a0e4c835f7a4682b329b76e0c20344c51" target="_top" xlink:title="Block the caller until the background thread finishes.">
<polygon fill="white" stroke="#666666" points="192,-56 79,-56 79,-37 192,-37 192,-56"/>
<text text-anchor="middle" x="135.5" y="-44" font-family="Helvetica,sans-Serif" font-size="10.00">udp::UdpClient::join</text>
</a>
</g>
</g>
<!-- Node1&#45;&gt;Node2 -->
<g id="edge1_Node000001_Node000002" class="edge">
<title>Node1&#45;&gt;Node2</title>
<g id="a_edge1_Node000001_Node000002"><a xlink:title=" ">
<path fill="none" stroke="#63b8ff" d="M41.18,-30.81C49.06,-32.13 58.62,-33.74 68.58,-35.42"/>
<polygon fill="#63b8ff" stroke="#63b8ff" points="68.19,-38.9 78.63,-37.11 69.35,-32 68.19,-38.9"/>
</a>
</g>
</g>
<!-- Node3 -->
<g id="Node000003" class="node">
<title>Node3</title>
<g id="a_Node000003"><a xlink:href="classudp_1_1UdpClient.html#acc6d1596081555482fb527111ab5dbf9" target="_top" xlink:title="Start the send loop in a background thread (idempotent).">
<polygon fill="white" stroke="#666666" points="194,-19 77,-19 77,0 194,0 194,-19"/>
<text text-anchor="middle" x="135.5" y="-7" font-family="Helvetica,sans-Serif" font-size="10.00">udp::UdpClient::start</text>
</a>
</g>
</g>
<!-- Node1&#45;&gt;Node3 -->
<g id="edge2_Node000001_Node000003" class="edge">
<title>Node1&#45;&gt;Node3</title>
<g id="a_edge2_Node000001_Node000003"><a xlink:title=" ">
<path fill="none" stroke="#63b8ff" d="M41.18,-24.36C48.52,-23.2 57.32,-21.79 66.55,-20.32"/>
<polygon fill="#63b8ff" stroke="#63b8ff" points="67.36,-23.74 76.69,-18.71 66.26,-16.83 67.36,-23.74"/>
</a>
</g>
</g>
</g>
</svg>
