<?xml version="1.0" encoding="UTF-8" standalone="no"?>
<!DOCTYPE svg PUBLIC "-//W3C//DTD SVG 1.1//EN"
 "http://www.w3.org/Graphics/SVG/1.1/DTD/svg11.dtd">
<!-- Generated by graphviz version 2.43.0 (0)
 -->
<!-- Title: src/main_client.cpp Pages: 1 -->
<svg width="905pt" height="192pt"
 viewBox="0.00 0.00 905.00 192.00" xmlns="http://www.w3.org/2000/svg" xmlns:xlink="http://www.w3.org/1999/xlink">
<g id="graph0" class="graph" transform="scale(1 1) rotate(0) translate(4 188)">
<title>src/main_client.cpp</title>
<!-- Node1 -->
<g id="Node000001" class="node">
<title>Node1</title>
<g id="a_Node000001"><a xlink:title="UDP client entry point: parses CLI, configures UdpClient, and runs paced sending.">
<polygon fill="#999999" stroke="#666666" points="751,-184 640,-184 640,-165 751,-165 751,-184"/>
<text text-anchor="middle" x="695.5" y="-172" font-family="Helvetica,sans-Serif" font-size="10.00">src/main_client.cpp</text>
</a>
</g>
</g>
<!-- Node2 -->
<g id="Node000002" class="node">
<title>Node2</title>
<g id="a_Node000002"><a xlink:href="client_8hpp.html" target="_top" xlink:title="High&#45;rate UDP client: pacing + batch send with lightweight counters.">
<polygon fill="white" stroke="#666666" points="617.5,-129 531.5,-129 531.5,-110 617.5,-110 617.5,-129"/>
<text text-anchor="middle" x="574.5" y="-117" font-family="Helvetica,sans-Serif" font-size="10.00">udp/client.hpp</text>
</a>
</g>
</g>
<!-- Node1&#45;&gt;Node2 -->
<g id="edge1_Node000001_Node000002" class="edge">
<title>Node1&#45;&gt;Node2</title>
<g id="a_edge1_Node000001_Node000002"><a xlink:title=" ">
<path fill="none" stroke="#63b8ff" d="M676.06,-164.98C656.51,-156.42 626.12,-143.11 603.68,-133.28"/>
<polygon fill="#63b8ff" stroke="#63b8ff" points="604.86,-129.98 594.29,-129.17 602.05,-136.39 604.86,-129.98"/>
</a>
</g>
</g>
<!-- Node7 -->
<g id="Node000007" class="node">
<title>Node7</title>
<g id="a_Node000007"><a xlink:href="socket_8hpp.html" target="_top" xlink:title="Socket abstraction for high&#45;rate UDP I/O (batch send/receive) plus a test double.">
<polygon fill="white" stroke="#666666" points="732.5,-74 642.5,-74 642.5,-55 732.5,-55 732.5,-74"/>
<text text-anchor="middle" x="687.5" y="-62" font-family="Helvetica,sans-Serif" font-size="10.00">udp/socket.hpp</text>
</a>
</g>
</g>
<!-- Node1&#45;&gt;Node7 -->
<g id="edge26_Node000001_Node000007" class="edge">
<title>Node1&#45;&gt;Node7</title>
<g id="a_edge26_Node000001_Node000007"><a xlink:title=" ">
<path fill="none" stroke="#63b8ff" d="M692.93,-164.73C690.45,-155.83 686.9,-141.59 685.5,-129 683.84,-114.06 684.52,-97.03 685.51,-84.37"/>
<polygon fill="#63b8ff" stroke="#63b8ff" points="689.02,-84.44 686.45,-74.16 682.05,-83.79 689.02,-84.44"/>
</a>
</g>
</g>
<!-- Node20 -->
<g id="Node000020" class="node">
<title>Node20</title>
<g id="a_Node000020"><a xlink:title=" ">
<polygon fill="#e0e0e0" stroke="#999999" points="754.5,-129 694.5,-129 694.5,-110 754.5,-110 754.5,-129"/>
<text text-anchor="middle" x="724.5" y="-117" font-family="Helvetica,sans-Serif" font-size="10.00">iostream</text>
</a>
</g>
</g>
<!-- Node1&#45;&gt;Node20 -->
<g id="edge27_Node000001_Node000020" class="edge">
<title>Node1&#45;&gt;Node20</title>
<g id="a_edge27_Node000001_Node000020"><a xlink:title=" ">
<path fill="none" stroke="#63b8ff" d="M700.29,-164.75C704.26,-157.49 710.03,-146.95 714.93,-137.98"/>
<polygon fill="#63b8ff" stroke="#63b8ff" points="718.07,-139.54 719.8,-129.09 711.93,-136.18 718.07,-139.54"/>
</a>
</g>
</g>
<!-- Node21 -->
<g id="Node000021" class="node">
<title>Node21</title>
<g id="a_Node000021"><a xlink:title=" ">
<polygon fill="#e0e0e0" stroke="#999999" points="822.5,-129 772.5,-129 772.5,-110 822.5,-110 822.5,-129"/>
<text text-anchor="middle" x="797.5" y="-117" font-family="Helvetica,sans-Serif" font-size="10.00">cstring</text>
</a>
</g>
</g>
<!-- Node1&#45;&gt;Node21 -->
<g id="edge28_Node000001_Node000021" class="edge">
<title>Node1&#45;&gt;Node21</title>
<g id="a_edge28_Node000001_Node000021"><a xlink:title=" ">
<path fill="none" stroke="#63b8ff" d="M711.89,-164.98C728.07,-156.57 753.07,-143.59 771.88,-133.81"/>
<polygon fill="#63b8ff" stroke="#63b8ff" points="773.55,-136.89 780.81,-129.17 770.33,-130.68 773.55,-136.89"/>
</a>
</g>
</g>
<!-- Node3 -->
<g id="Node000003" class="node">
<title>Node3</title>
<g id="a_Node000003"><a xlink:title=" ">
<polygon fill="#e0e0e0" stroke="#999999" points="897,-19 850,-19 850,0 897,0 897,-19"/>
<text text-anchor="middle" x="873.5" y="-7" font-family="Helvetica,sans-Serif" font-size="10.00">vector</text>
</a>
</g>
</g>
<!-- Node2&#45;&gt;Node3 -->
<g id="edge2_Node000002_Node000003" class="edge">
<title>Node2&#45;&gt;Node3</title>
<g id="a_edge2_Node000002_Node000003"><a xlink:title=" ">
<path fill="none" stroke="#63b8ff" d="M614.97,-109.96C649.21,-102.21 699.29,-89.62 741.5,-74 780.2,-59.68 822.88,-38 848.94,-24.04"/>
<polygon fill="#63b8ff" stroke="#63b8ff" points="850.94,-26.94 858.07,-19.11 847.61,-20.78 850.94,-26.94"/>
</a>
</g>
</g>
<!-- Node4 -->
<g id="Node000004" class="node">
<title>Node4</title>
<g id="a_Node000004"><a xlink:title=" ">
<polygon fill="#e0e0e0" stroke="#999999" points="593.5,-19 543.5,-19 543.5,0 593.5,0 593.5,-19"/>
<text text-anchor="middle" x="568.5" y="-7" font-family="Helvetica,sans-Serif" font-size="10.00">atomic</text>
</a>
</g>
</g>
<!-- Node2&#45;&gt;Node4 -->
<g id="edge3_Node000002_Node000004" class="edge">
<title>Node2&#45;&gt;Node4</title>
<g id="a_edge3_Node000002_Node000004"><a xlink:title=" ">
<path fill="none" stroke="#63b8ff" d="M572.7,-109.68C570.97,-100.74 568.48,-86.48 567.5,-74 566.33,-59.02 566.69,-41.99 567.28,-29.34"/>
<polygon fill="#63b8ff" stroke="#63b8ff" points="570.79,-29.32 567.85,-19.14 563.8,-28.93 570.79,-29.32"/>
</a>
</g>
</g>
<!-- Node5 -->
<g id="Node000005" class="node">
<title>Node5</title>
<g id="a_Node000005"><a xlink:title=" ">
<polygon fill="#e0e0e0" stroke="#999999" points="624.5,-74 576.5,-74 576.5,-55 624.5,-55 624.5,-74"/>
<text text-anchor="middle" x="600.5" y="-62" font-family="Helvetica,sans-Serif" font-size="10.00">thread</text>
</a>
</g>
</g>
<!-- Node2&#45;&gt;Node5 -->
<g id="edge4_Node000002_Node000005" class="edge">
<title>Node2&#45;&gt;Node5</title>
<g id="a_edge4_Node000002_Node000005"><a xlink:title=" ">
<path fill="none" stroke="#63b8ff" d="M578.79,-109.75C582.31,-102.57 587.41,-92.18 591.78,-83.27"/>
<polygon fill="#63b8ff" stroke="#63b8ff" points="595.02,-84.61 596.29,-74.09 588.74,-81.53 595.02,-84.61"/>
</a>
</g>
</g>
<!-- Node6 -->
<g id="Node000006" class="node">
<title>Node6</title>
<g id="a_Node000006"><a xlink:title=" ">
<polygon fill="#e0e0e0" stroke="#999999" points="299.5,-74 241.5,-74 241.5,-55 299.5,-55 299.5,-74"/>
<text text-anchor="middle" x="270.5" y="-62" font-family="Helvetica,sans-Serif" font-size="10.00">memory</text>
</a>
</g>
</g>
<!-- Node2&#45;&gt;Node6 -->
<g id="edge5_Node000002_Node000006" class="edge">
<title>Node2&#45;&gt;Node6</title>
<g id="a_edge5_Node000002_Node000006"><a xlink:title=" ">
<path fill="none" stroke="#63b8ff" d="M531.06,-111.97C480.3,-104.18 393.55,-90.36 309.48,-74.1"/>
<polygon fill="#63b8ff" stroke="#63b8ff" points="310,-70.64 299.51,-72.16 308.66,-77.51 310,-70.64"/>
</a>
</g>
</g>
<!-- Node2&#45;&gt;Node7 -->
<g id="edge6_Node000002_Node000007" class="edge">
<title>Node2&#45;&gt;Node7</title>
<g id="a_edge6_Node000002_Node000007"><a xlink:title=" ">
<path fill="none" stroke="#63b8ff" d="M592.66,-109.98C610.75,-101.5 638.78,-88.35 659.69,-78.54"/>
<polygon fill="#63b8ff" stroke="#63b8ff" points="661.45,-81.59 669.01,-74.17 658.47,-75.25 661.45,-81.59"/>
</a>
</g>
</g>
<!-- Node13 -->
<g id="Node000013" class="node">
<title>Node13</title>
<g id="a_Node000013"><a xlink:href="stats_8hpp.html" target="_top" xlink:title="Lightweight, thread&#45;safe counters and client tracking for UDP throughput tests.">
<polygon fill="white" stroke="#666666" points="401,-74 318,-74 318,-55 401,-55 401,-74"/>
<text text-anchor="middle" x="359.5" y="-62" font-family="Helvetica,sans-Serif" font-size="10.00">udp/stats.hpp</text>
</a>
</g>
</g>
<!-- Node2&#45;&gt;Node13 -->
<g id="edge14_Node000002_Node000013" class="edge">
<title>Node2&#45;&gt;Node13</title>
<g id="a_edge14_Node000002_Node000013"><a xlink:title=" ">
<path fill="none" stroke="#63b8ff" d="M539.96,-109.98C503.08,-100.89 444.51,-86.46 404.16,-76.51"/>
<polygon fill="#63b8ff" stroke="#63b8ff" points="404.86,-73.08 394.31,-74.08 403.19,-79.87 404.86,-73.08"/>
</a>
</g>
</g>
<!-- Node17 -->
<g id="Node000017" class="node">
<title>Node17</title>
<g id="a_Node000017"><a xlink:href="common_8hpp.html" target="_top" xlink:title="Common wire&#45;level types and tiny utilities for the UDP high&#45;rate demo.">
<polygon fill="white" stroke="#666666" points="520,-74 419,-74 419,-55 520,-55 520,-74"/>
<text text-anchor="middle" x="469.5" y="-62" font-family="Helvetica,sans-Serif" font-size="10.00">udp/common.hpp</text>
</a>
</g>
</g>
<!-- Node2&#45;&gt;Node17 -->
<g id="edge21_Node000002_Node000017" class="edge">
<title>Node2&#45;&gt;Node17</title>
<g id="a_edge21_Node000002_Node000017"><a xlink:title=" ">
<path fill="none" stroke="#63b8ff" d="M557.63,-109.98C540.89,-101.54 515,-88.47 495.61,-78.68"/>
<polygon fill="#63b8ff" stroke="#63b8ff" points="497.18,-75.55 486.68,-74.17 494.03,-81.8 497.18,-75.55"/>
</a>
</g>
</g>
<!-- Node7&#45;&gt;Node3 -->
<g id="edge7_Node000007_Node000003" class="edge">
<title>Node7&#45;&gt;Node3</title>
<g id="a_edge7_Node000007_Node000003"><a xlink:title=" ">
<path fill="none" stroke="#63b8ff" d="M717.38,-54.98C750.94,-45.42 805.25,-29.95 840.15,-20"/>
<polygon fill="#63b8ff" stroke="#63b8ff" points="841.23,-23.34 849.89,-17.23 839.31,-16.6 841.23,-23.34"/>
</a>
</g>
</g>
<!-- Node7&#45;&gt;Node4 -->
<g id="edge10_Node000007_Node000004" class="edge">
<title>Node7&#45;&gt;Node4</title>
<g id="a_edge10_Node000007_Node000004"><a xlink:title=" ">
<path fill="none" stroke="#63b8ff" d="M668.38,-54.98C649.15,-46.42 619.27,-33.11 597.19,-23.28"/>
<polygon fill="#63b8ff" stroke="#63b8ff" points="598.53,-20.04 587.97,-19.17 595.68,-26.44 598.53,-20.04"/>
</a>
</g>
</g>
<!-- Node8 -->
<g id="Node000008" class="node">
<title>Node8</title>
<g id="a_Node000008"><a xlink:title=" ">
<polygon fill="#e0e0e0" stroke="#999999" points="525.5,-19 481.5,-19 481.5,0 525.5,0 525.5,-19"/>
<text text-anchor="middle" x="503.5" y="-7" font-family="Helvetica,sans-Serif" font-size="10.00">string</text>
</a>
</g>
</g>
<!-- Node7&#45;&gt;Node8 -->
<g id="edge8_Node000007_Node000008" class="edge">
<title>Node7&#45;&gt;Node8</title>
<g id="a_edge8_Node000007_Node000008"><a xlink:title=" ">
<path fill="none" stroke="#63b8ff" d="M657.94,-54.98C624.52,-45.36 570.29,-29.74 535.79,-19.8"/>
<polygon fill="#63b8ff" stroke="#63b8ff" points="536.33,-16.32 525.76,-16.91 534.4,-23.04 536.33,-16.32"/>
</a>
</g>
</g>
<!-- Node9 -->
<g id="Node000009" class="node">
<title>Node9</title>
<g id="a_Node000009"><a xlink:title=" ">
<polygon fill="#e0e0e0" stroke="#999999" points="661.5,-19 611.5,-19 611.5,0 661.5,0 661.5,-19"/>
<text text-anchor="middle" x="636.5" y="-7" font-family="Helvetica,sans-Serif" font-size="10.00">cstdint</text>
</a>
</g>
</g>
<!-- Node7&#45;&gt;Node9 -->
<g id="edge9_Node000007_Node000009" class="edge">
<title>Node7&#45;&gt;Node9</title>
<g id="a_edge9_Node000007_Node000009"><a xlink:title=" ">
<path fill="none" stroke="#63b8ff" d="M679.08,-54.75C671.73,-47.11 660.87,-35.82 651.96,-26.56"/>
<polygon fill="#63b8ff" stroke="#63b8ff" points="654.22,-23.87 644.76,-19.09 649.18,-28.72 654.22,-23.87"/>
</a>
</g>
</g>
<!-- Node10 -->
<g id="Node000010" class="node">
<title>Node10</title>
<g id="a_Node000010"><a xlink:title=" ">
<polygon fill="#e0e0e0" stroke="#999999" points="395.5,-19 323.5,-19 323.5,0 395.5,0 395.5,-19"/>
<text text-anchor="middle" x="359.5" y="-7" font-family="Helvetica,sans-Serif" font-size="10.00">netinet/in.h</text>
</a>
</g>
</g>
<!-- Node7&#45;&gt;Node10 -->
<g id="edge11_Node000007_Node000010" class="edge">
<title>Node7&#45;&gt;Node10</title>
<g id="a_edge11_Node000007_Node000010"><a xlink:title=" ">
<path fill="none" stroke="#63b8ff" d="M642.42,-56.4C639.4,-55.93 636.41,-55.46 633.5,-55 534.9,-39.49 507.7,-36.73 405.92,-19.2"/>
<polygon fill="#63b8ff" stroke="#63b8ff" points="406.28,-15.72 395.83,-17.46 405.09,-22.61 406.28,-15.72"/>
</a>
</g>
</g>
<!-- Node11 -->
<g id="Node000011" class="node">
<title>Node11</title>
<g id="a_Node000011"><a xlink:title=" ">
<polygon fill="#e0e0e0" stroke="#999999" points="757,-19 680,-19 680,0 757,0 757,-19"/>
<text text-anchor="middle" x="718.5" y="-7" font-family="Helvetica,sans-Serif" font-size="10.00">sys/socket.h</text>
</a>
</g>
</g>
<!-- Node7&#45;&gt;Node11 -->
<g id="edge12_Node000007_Node000011" class="edge">
<title>Node7&#45;&gt;Node11</title>
<g id="a_edge12_Node000007_Node000011"><a xlink:title=" ">
<path fill="none" stroke="#63b8ff" d="M692.62,-54.75C696.86,-47.49 703.03,-36.95 708.28,-27.98"/>
<polygon fill="#63b8ff" stroke="#63b8ff" points="711.45,-29.49 713.48,-19.09 705.41,-25.95 711.45,-29.49"/>
</a>
</g>
</g>
<!-- Node12 -->
<g id="Node000012" class="node">
<title>Node12</title>
<g id="a_Node000012"><a xlink:title=" ">
<polygon fill="#e0e0e0" stroke="#999999" points="831.5,-19 775.5,-19 775.5,0 831.5,0 831.5,-19"/>
<text text-anchor="middle" x="803.5" y="-7" font-family="Helvetica,sans-Serif" font-size="10.00">unistd.h</text>
</a>
</g>
</g>
<!-- Node7&#45;&gt;Node12 -->
<g id="edge13_Node000007_Node000012" class="edge">
<title>Node7&#45;&gt;Node12</title>
<g id="a_edge13_Node000007_Node000012"><a xlink:title=" ">
<path fill="none" stroke="#63b8ff" d="M706.14,-54.98C724.8,-46.46 753.75,-33.23 775.24,-23.41"/>
<polygon fill="#63b8ff" stroke="#63b8ff" points="776.88,-26.51 784.52,-19.17 773.97,-20.14 776.88,-26.51"/>
</a>
</g>
</g>
<!-- Node13&#45;&gt;Node4 -->
<g id="edge15_Node000013_Node000004" class="edge">
<title>Node13&#45;&gt;Node4</title>
<g id="a_edge15_Node000013_Node000004"><a xlink:title=" ">
<path fill="none" stroke="#63b8ff" d="M393.08,-54.98C431.53,-45.23 494.23,-29.33 533.34,-19.42"/>
<polygon fill="#63b8ff" stroke="#63b8ff" points="534.39,-22.76 543.22,-16.91 532.67,-15.98 534.39,-22.76"/>
</a>
</g>
</g>
<!-- Node13&#45;&gt;Node8 -->
<g id="edge19_Node000013_Node000008" class="edge">
<title>Node13&#45;&gt;Node8</title>
<g id="a_edge19_Node000013_Node000008"><a xlink:title=" ">
<path fill="none" stroke="#63b8ff" d="M382.64,-54.98C406.75,-46.11 444.7,-32.14 471.63,-22.23"/>
<polygon fill="#63b8ff" stroke="#63b8ff" points="473.19,-25.38 481.37,-18.65 470.77,-18.82 473.19,-25.38"/>
</a>
</g>
</g>
<!-- Node13&#45;&gt;Node10 -->
<g id="edge18_Node000013_Node000010" class="edge">
<title>Node13&#45;&gt;Node10</title>
<g id="a_edge18_Node000013_Node000010"><a xlink:title=" ">
<path fill="none" stroke="#63b8ff" d="M359.5,-54.75C359.5,-47.8 359.5,-37.85 359.5,-29.13"/>
<polygon fill="#63b8ff" stroke="#63b8ff" points="363,-29.09 359.5,-19.09 356,-29.09 363,-29.09"/>
</a>
</g>
</g>
<!-- Node14 -->
<g id="Node000014" class="node">
<title>Node14</title>
<g id="a_Node000014"><a xlink:title=" ">
<polygon fill="#e0e0e0" stroke="#999999" points="93,-19 0,-19 0,0 93,0 93,-19"/>
<text text-anchor="middle" x="46.5" y="-7" font-family="Helvetica,sans-Serif" font-size="10.00">unordered_map</text>
</a>
</g>
</g>
<!-- Node13&#45;&gt;Node14 -->
<g id="edge16_Node000013_Node000014" class="edge">
<title>Node13&#45;&gt;Node14</title>
<g id="a_edge16_Node000013_Node000014"><a xlink:title=" ">
<path fill="none" stroke="#63b8ff" d="M317.94,-56.46C262.72,-47.11 164.98,-30.56 103.08,-20.08"/>
<polygon fill="#63b8ff" stroke="#63b8ff" points="103.53,-16.61 93.09,-18.39 102.36,-23.51 103.53,-16.61"/>
</a>
</g>
</g>
<!-- Node15 -->
<g id="Node000015" class="node">
<title>Node15</title>
<g id="a_Node000015"><a xlink:title=" ">
<polygon fill="#e0e0e0" stroke="#999999" points="159.5,-19 111.5,-19 111.5,0 159.5,0 159.5,-19"/>
<text text-anchor="middle" x="135.5" y="-7" font-family="Helvetica,sans-Serif" font-size="10.00">mutex</text>
</a>
</g>
</g>
<!-- Node13&#45;&gt;Node15 -->
<g id="edge17_Node000013_Node000015" class="edge">
<title>Node13&#45;&gt;Node15</title>
<g id="a_edge17_Node000013_Node000015"><a xlink:title=" ">
<path fill="none" stroke="#63b8ff" d="M321.75,-54.98C285.21,-46.67 228.01,-33.5 169.43,-19.19"/>
<polygon fill="#63b8ff" stroke="#63b8ff" points="170.18,-15.77 159.63,-16.79 168.51,-22.57 170.18,-15.77"/>
</a>
</g>
</g>
<!-- Node16 -->
<g id="Node000016" class="node">
<title>Node16</title>
<g id="a_Node000016"><a xlink:title=" ">
<polygon fill="#e0e0e0" stroke="#999999" points="233.5,-19 177.5,-19 177.5,0 233.5,0 233.5,-19"/>
<text text-anchor="middle" x="205.5" y="-7" font-family="Helvetica,sans-Serif" font-size="10.00">sstream</text>
</a>
</g>
</g>
<!-- Node13&#45;&gt;Node16 -->
<g id="edge20_Node000013_Node000016" class="edge">
<title>Node13&#45;&gt;Node16</title>
<g id="a_edge20_Node000013_Node000016"><a xlink:title=" ">
<path fill="none" stroke="#63b8ff" d="M334.76,-54.98C309.13,-46.16 268.87,-32.31 240.09,-22.41"/>
<polygon fill="#63b8ff" stroke="#63b8ff" points="241.03,-19.03 230.44,-19.08 238.75,-25.65 241.03,-19.03"/>
</a>
</g>
</g>
<!-- Node17&#45;&gt;Node8 -->
<g id="edge24_Node000017_Node000008" class="edge">
<title>Node17&#45;&gt;Node8</title>
<g id="a_edge24_Node000017_Node000008"><a xlink:title=" ">
<path fill="none" stroke="#63b8ff" d="M475.11,-54.75C479.82,-47.42 486.67,-36.73 492.47,-27.7"/>
<polygon fill="#63b8ff" stroke="#63b8ff" points="495.54,-29.4 497.99,-19.09 489.64,-25.62 495.54,-29.4"/>
</a>
</g>
</g>
<!-- Node17&#45;&gt;Node9 -->
<g id="edge22_Node000017_Node000009" class="edge">
<title>Node17&#45;&gt;Node9</title>
<g id="a_edge22_Node000017_Node000009"><a xlink:title=" ">
<path fill="none" stroke="#63b8ff" d="M496.33,-54.98C524.95,-45.9 570.39,-31.48 601.73,-21.53"/>
<polygon fill="#63b8ff" stroke="#63b8ff" points="602.9,-24.84 611.37,-18.47 600.78,-18.16 602.9,-24.84"/>
</a>
</g>
</g>
<!-- Node18 -->
<g id="Node000018" class="node">
<title>Node18</title>
<g id="a_Node000018"><a xlink:title=" ">
<polygon fill="#e0e0e0" stroke="#999999" points="305,-19 252,-19 252,0 305,0 305,-19"/>
<text text-anchor="middle" x="278.5" y="-7" font-family="Helvetica,sans-Serif" font-size="10.00">cstddef</text>
</a>
</g>
</g>
<!-- Node17&#45;&gt;Node18 -->
<g id="edge23_Node000017_Node000018" class="edge">
<title>Node17&#45;&gt;Node18</title>
<g id="a_edge23_Node000017_Node000018"><a xlink:title=" ">
<path fill="none" stroke="#63b8ff" d="M438.81,-54.98C405.12,-45.64 351.06,-30.64 315.17,-20.67"/>
<polygon fill="#63b8ff" stroke="#63b8ff" points="315.68,-17.18 305.11,-17.88 313.81,-23.93 315.68,-17.18"/>
</a>
</g>
</g>
<!-- Node19 -->
<g id="Node000019" class="node">
<title>Node19</title>
<g id="a_Node000019"><a xlink:title=" ">
<polygon fill="#e0e0e0" stroke="#999999" points="463.5,-19 413.5,-19 413.5,0 463.5,0 463.5,-19"/>
<text text-anchor="middle" x="438.5" y="-7" font-family="Helvetica,sans-Serif" font-size="10.00">chrono</text>
</a>
</g>
</g>
<!-- Node17&#45;&gt;Node19 -->
<g id="edge25_Node000017_Node000019" class="edge">
<title>Node17&#45;&gt;Node19</title>
<g id="a_edge25_Node000017_Node000019"><a xlink:title=" ">
<path fill="none" stroke="#63b8ff" d="M464.38,-54.75C460.14,-47.49 453.97,-36.95 448.72,-27.98"/>
<polygon fill="#63b8ff" stroke="#63b8ff" points="451.59,-25.95 443.52,-19.09 445.55,-29.49 451.59,-25.95"/>
</a>
</g>
</g>
</g>
</svg>
