<?xml version="1.0" encoding="UTF-8" standalone="no"?>
<!DOCTYPE svg PUBLIC "-//W3C//DTD SVG 1.1//EN"
 "http://www.w3.org/Graphics/SVG/1.1/DTD/svg11.dtd">
<!-- Generated by graphviz version 2.43.0 (0)
 -->
<!-- Title: main Pages: 1 -->
<svg width="205pt" height="101pt"
 viewBox="0.00 0.00 205.00 101.00" xmlns="http://www.w3.org/2000/svg" xmlns:xlink="http://www.w3.org/1999/xlink">
<g id="graph0" class="graph" transform="scale(1 1) rotate(0) translate(4 97)">
<title>main</title>
<!-- Node1 -->
<g id="Node000001" class="node">
<title>Node1</title>
<g id="a_Node000001"><a xlink:title="Application entry point: configure, run, and stop the UDP server.">
<polygon fill="#999999" stroke="#666666" points="41,-56 0,-56 0,-37 41,-37 41,-56"/>
<text text-anchor="middle" x="20.5" y="-44" font-family="Helvetica,sans-Serif" font-size="10.00">main</text>
</a>
</g>
</g>
<!-- Node2 -->
<g id="Node000002" class="node">
<title>Node2</title>
<g id="a_Node000002"><a xlink:href="main__server_8cpp.html#ad115d74b80ea087f7702c9e942aeff7d" target="_top" xlink:title=" ">
<polygon fill="white" stroke="#666666" points="179,-93 95,-93 95,-74 179,-74 179,-93"/>
<text text-anchor="middle" x="137" y="-81" font-family="Helvetica,sans-Serif" font-size="10.00">handle_signal</text>
</a>
</g>
</g>
<!-- Node1&#45;&gt;Node2 -->
<g id="edge1_Node000001_Node000002" class="edge">
<title>Node1&#45;&gt;Node2</title>
<g id="a_edge1_Node000001_Node000002"><a xlink:title=" ">
<path fill="none" stroke="#63b8ff" d="M41.22,-53.43C51.8,-57.11 65.08,-61.64 77,-65.5 82.61,-67.32 88.54,-69.18 94.39,-71"/>
<polygon fill="#63b8ff" stroke="#63b8ff" points="93.51,-74.39 104.09,-73.98 95.56,-67.7 93.51,-74.39"/>
</a>
</g>
</g>
<!-- Node3 -->
<g id="Node000003" class="node">
<title>Node3</title>
<g id="a_Node000003"><a xlink:href="classudp_1_1UdpServer.html#a5dc68251b3ff3a14697ba1dcc7a85c21" target="_top" xlink:title="Start the worker thread (idempotent).">
<polygon fill="white" stroke="#666666" points="197,-56 77,-56 77,-37 197,-37 197,-56"/>
<text text-anchor="middle" x="137" y="-44" font-family="Helvetica,sans-Serif" font-size="10.00">udp::UdpServer::start</text>
</a>
</g>
</g>
<!-- Node1&#45;&gt;Node3 -->
<g id="edge2_Node000001_Node000003" class="edge">
<title>Node1&#45;&gt;Node3</title>
<g id="a_edge2_Node000001_Node000003"><a xlink:title=" ">
<path fill="none" stroke="#63b8ff" d="M41.18,-46.5C48.51,-46.5 57.3,-46.5 66.54,-46.5"/>
<polygon fill="#63b8ff" stroke="#63b8ff" points="66.69,-50 76.69,-46.5 66.69,-43 66.69,-50"/>
</a>
</g>
</g>
<!-- Node4 -->
<g id="Node000004" class="node">
<title>Node4</title>
<g id="a_Node000004"><a xlink:href="classudp_1_1UdpServer.html#a520deda81e72492f3e814dc41a34c2fa" target="_top" xlink:title="Request a graceful shutdown and join the worker thread (idempotent).">
<polygon fill="white" stroke="#666666" points="196.5,-19 77.5,-19 77.5,0 196.5,0 196.5,-19"/>
<text text-anchor="middle" x="137" y="-7" font-family="Helvetica,sans-Serif" font-size="10.00">udp::UdpServer::stop</text>
</a>
</g>
</g>
<!-- Node1&#45;&gt;Node4 -->
<g id="edge3_Node000001_Node000004" class="edge">
<title>Node1&#45;&gt;Node4</title>
<g id="a_edge3_Node000001_Node000004"><a xlink:title=" ">
<path fill="none" stroke="#63b8ff" d="M41.02,-40.16C51.65,-36.71 65.05,-32.36 77,-28.5 83.25,-26.48 89.87,-24.34 96.34,-22.26"/>
<polygon fill="#63b8ff" stroke="#63b8ff" points="97.84,-25.45 106.28,-19.06 95.69,-18.79 97.84,-25.45"/>
</a>
</g>
</g>
</g>
</svg>
