<?xml version="1.0" encoding="UTF-8" standalone="no"?>
<!DOCTYPE svg PUBLIC "-//W3C//DTD SVG 1.1//EN"
 "http://www.w3.org/Graphics/SVG/1.1/DTD/svg11.dtd">
<!-- Generated by graphviz version 2.43.0 (0)
 -->
<!-- Title: src/server.cpp Pages: 1 -->
<svg width="906pt" height="247pt"
 viewBox="0.00 0.00 906.00 247.00" xmlns="http://www.w3.org/2000/svg" xmlns:xlink="http://www.w3.org/1999/xlink">
<g id="graph0" class="graph" transform="scale(1 1) rotate(0) translate(4 243)">
<title>src/server.cpp</title>
<!-- Node1 -->
<g id="Node000001" class="node">
<title>Node1</title>
<g id="a_Node000001"><a xlink:title="UdpServer implementation: batch recv, optional echo, PPS accounting, and /metrics integration.">
<polygon fill="#999999" stroke="#666666" points="675,-239 591,-239 591,-220 675,-220 675,-239"/>
<text text-anchor="middle" x="633" y="-227" font-family="Helvetica,sans-Serif" font-size="10.00">src/server.cpp</text>
</a>
</g>
</g>
<!-- Node2 -->
<g id="Node000002" class="node">
<title>Node2</title>
<g id="a_Node000002"><a xlink:href="server_8hpp.html" target="_top" xlink:title="High&#45;rate UDP server: batch receive, optional echo, runtime metrics.">
<polygon fill="white" stroke="#666666" points="549.5,-184 460.5,-184 460.5,-165 549.5,-165 549.5,-184"/>
<text text-anchor="middle" x="505" y="-172" font-family="Helvetica,sans-Serif" font-size="10.00">udp/server.hpp</text>
</a>
</g>
</g>
<!-- Node1&#45;&gt;Node2 -->
<g id="edge1_Node000001_Node000002" class="edge">
<title>Node1&#45;&gt;Node2</title>
<g id="a_edge1_Node000001_Node000002"><a xlink:title=" ">
<path fill="none" stroke="#63b8ff" d="M612.43,-219.98C591.57,-211.34 559.03,-197.87 535.23,-188.02"/>
<polygon fill="#63b8ff" stroke="#63b8ff" points="536.52,-184.76 525.94,-184.17 533.84,-191.23 536.52,-184.76"/>
</a>
</g>
</g>
<!-- Node21 -->
<g id="Node000021" class="node">
<title>Node21</title>
<g id="a_Node000021"><a xlink:title=" ">
<polygon fill="#e0e0e0" stroke="#999999" points="627,-184 567,-184 567,-165 627,-165 627,-184"/>
<text text-anchor="middle" x="597" y="-172" font-family="Helvetica,sans-Serif" font-size="10.00">iostream</text>
</a>
</g>
</g>
<!-- Node1&#45;&gt;Node21 -->
<g id="edge31_Node000001_Node000021" class="edge">
<title>Node1&#45;&gt;Node21</title>
<g id="a_edge31_Node000001_Node000021"><a xlink:title=" ">
<path fill="none" stroke="#63b8ff" d="M627.06,-219.75C622.02,-212.34 614.66,-201.5 608.49,-192.41"/>
<polygon fill="#63b8ff" stroke="#63b8ff" points="611.35,-190.39 602.83,-184.09 605.56,-194.33 611.35,-190.39"/>
</a>
</g>
</g>
<!-- Node22 -->
<g id="Node000022" class="node">
<title>Node22</title>
<g id="a_Node000022"><a xlink:title=" ">
<polygon fill="#e0e0e0" stroke="#999999" points="695,-184 645,-184 645,-165 695,-165 695,-184"/>
<text text-anchor="middle" x="670" y="-172" font-family="Helvetica,sans-Serif" font-size="10.00">cstring</text>
</a>
</g>
</g>
<!-- Node1&#45;&gt;Node22 -->
<g id="edge32_Node000001_Node000022" class="edge">
<title>Node1&#45;&gt;Node22</title>
<g id="a_edge32_Node000001_Node000022"><a xlink:title=" ">
<path fill="none" stroke="#63b8ff" d="M639.11,-219.75C644.28,-212.34 651.85,-201.5 658.19,-192.41"/>
<polygon fill="#63b8ff" stroke="#63b8ff" points="661.15,-194.29 664,-184.09 655.41,-190.29 661.15,-194.29"/>
</a>
</g>
</g>
<!-- Node23 -->
<g id="Node000023" class="node">
<title>Node23</title>
<g id="a_Node000023"><a xlink:title=" ">
<polygon fill="#e0e0e0" stroke="#999999" points="782.5,-184 713.5,-184 713.5,-165 782.5,-165 782.5,-184"/>
<text text-anchor="middle" x="748" y="-172" font-family="Helvetica,sans-Serif" font-size="10.00">arpa/inet.h</text>
</a>
</g>
</g>
<!-- Node1&#45;&gt;Node23 -->
<g id="edge33_Node000001_Node000023" class="edge">
<title>Node1&#45;&gt;Node23</title>
<g id="a_edge33_Node000001_Node000023"><a xlink:title=" ">
<path fill="none" stroke="#63b8ff" d="M651.48,-219.98C669.98,-211.46 698.68,-198.23 719.98,-188.41"/>
<polygon fill="#63b8ff" stroke="#63b8ff" points="721.57,-191.53 729.19,-184.17 718.64,-185.18 721.57,-191.53"/>
</a>
</g>
</g>
<!-- Node3 -->
<g id="Node000003" class="node">
<title>Node3</title>
<g id="a_Node000003"><a xlink:title=" ">
<polygon fill="#e0e0e0" stroke="#999999" points="255.5,-19 208.5,-19 208.5,0 255.5,0 255.5,-19"/>
<text text-anchor="middle" x="232" y="-7" font-family="Helvetica,sans-Serif" font-size="10.00">vector</text>
</a>
</g>
</g>
<!-- Node2&#45;&gt;Node3 -->
<g id="edge2_Node000002_Node000003" class="edge">
<title>Node2&#45;&gt;Node3</title>
<g id="a_edge2_Node000002_Node000003"><a xlink:title=" ">
<path fill="none" stroke="#63b8ff" d="M489.06,-164.99C472.65,-156.18 446.38,-141.9 424,-129 361.39,-92.9 289.29,-47.28 253.91,-24.62"/>
<polygon fill="#63b8ff" stroke="#63b8ff" points="255.64,-21.57 245.33,-19.11 251.86,-27.46 255.64,-21.57"/>
</a>
</g>
</g>
<!-- Node4 -->
<g id="Node000004" class="node">
<title>Node4</title>
<g id="a_Node000004"><a xlink:title=" ">
<polygon fill="#e0e0e0" stroke="#999999" points="646,-19 596,-19 596,0 646,0 646,-19"/>
<text text-anchor="middle" x="621" y="-7" font-family="Helvetica,sans-Serif" font-size="10.00">atomic</text>
</a>
</g>
</g>
<!-- Node2&#45;&gt;Node4 -->
<g id="edge3_Node000002_Node000004" class="edge">
<title>Node2&#45;&gt;Node4</title>
<g id="a_edge3_Node000002_Node000004"><a xlink:title=" ">
<path fill="none" stroke="#63b8ff" d="M496.76,-164.63C486.21,-152.13 470.35,-128.75 480,-110 502.4,-66.48 553.63,-37.98 587.78,-23.06"/>
<polygon fill="#63b8ff" stroke="#63b8ff" points="589.48,-26.14 597.34,-19.03 586.77,-19.69 589.48,-26.14"/>
</a>
</g>
</g>
<!-- Node5 -->
<g id="Node000005" class="node">
<title>Node5</title>
<g id="a_Node000005"><a xlink:title=" ">
<polygon fill="#e0e0e0" stroke="#999999" points="729,-74 681,-74 681,-55 729,-55 729,-74"/>
<text text-anchor="middle" x="705" y="-62" font-family="Helvetica,sans-Serif" font-size="10.00">thread</text>
</a>
</g>
</g>
<!-- Node2&#45;&gt;Node5 -->
<g id="edge4_Node000002_Node000005" class="edge">
<title>Node2&#45;&gt;Node5</title>
<g id="a_edge4_Node000002_Node000005"><a xlink:title=" ">
<path fill="none" stroke="#63b8ff" d="M542.6,-164.98C569.54,-157.86 606.03,-146.1 635,-129 656.73,-116.17 677.62,-95.83 690.83,-81.64"/>
<polygon fill="#63b8ff" stroke="#63b8ff" points="693.55,-83.86 697.67,-74.1 688.36,-79.16 693.55,-83.86"/>
</a>
</g>
</g>
<!-- Node6 -->
<g id="Node000006" class="node">
<title>Node6</title>
<g id="a_Node000006"><a xlink:title=" ">
<polygon fill="#e0e0e0" stroke="#999999" points="761,-129 703,-129 703,-110 761,-110 761,-129"/>
<text text-anchor="middle" x="732" y="-117" font-family="Helvetica,sans-Serif" font-size="10.00">memory</text>
</a>
</g>
</g>
<!-- Node2&#45;&gt;Node6 -->
<g id="edge5_Node000002_Node000006" class="edge">
<title>Node2&#45;&gt;Node6</title>
<g id="a_edge5_Node000002_Node000006"><a xlink:title=" ">
<path fill="none" stroke="#63b8ff" d="M541.47,-164.98C582.92,-155.31 650.32,-139.57 692.85,-129.64"/>
<polygon fill="#63b8ff" stroke="#63b8ff" points="693.89,-132.99 702.84,-127.31 692.3,-126.17 693.89,-132.99"/>
</a>
</g>
</g>
<!-- Node7 -->
<g id="Node000007" class="node">
<title>Node7</title>
<g id="a_Node000007"><a xlink:href="socket_8hpp.html" target="_top" xlink:title="Socket abstraction for high&#45;rate UDP I/O (batch send/receive) plus a test double.">
<polygon fill="white" stroke="#666666" points="432,-74 342,-74 342,-55 432,-55 432,-74"/>
<text text-anchor="middle" x="387" y="-62" font-family="Helvetica,sans-Serif" font-size="10.00">udp/socket.hpp</text>
</a>
</g>
</g>
<!-- Node2&#45;&gt;Node7 -->
<g id="edge6_Node000002_Node000007" class="edge">
<title>Node2&#45;&gt;Node7</title>
<g id="a_edge6_Node000002_Node000007"><a xlink:title=" ">
<path fill="none" stroke="#63b8ff" d="M492.55,-164.83C480.49,-156.24 461.89,-142.43 447,-129 430.37,-114 412.97,-95.18 401.21,-81.93"/>
<polygon fill="#63b8ff" stroke="#63b8ff" points="403.59,-79.34 394.37,-74.13 398.33,-83.96 403.59,-79.34"/>
</a>
</g>
</g>
<!-- Node13 -->
<g id="Node000013" class="node">
<title>Node13</title>
<g id="a_Node000013"><a xlink:href="stats_8hpp.html" target="_top" xlink:title="Lightweight, thread&#45;safe counters and client tracking for UDP throughput tests.">
<polygon fill="white" stroke="#666666" points="662.5,-74 579.5,-74 579.5,-55 662.5,-55 662.5,-74"/>
<text text-anchor="middle" x="621" y="-62" font-family="Helvetica,sans-Serif" font-size="10.00">udp/stats.hpp</text>
</a>
</g>
</g>
<!-- Node2&#45;&gt;Node13 -->
<g id="edge14_Node000002_Node000013" class="edge">
<title>Node2&#45;&gt;Node13</title>
<g id="a_edge14_Node000002_Node000013"><a xlink:title=" ">
<path fill="none" stroke="#63b8ff" d="M537.45,-164.96C567.27,-156.41 608.27,-142.59 618,-129 627.14,-116.24 627.05,-98.07 625.17,-84.43"/>
<polygon fill="#63b8ff" stroke="#63b8ff" points="628.55,-83.47 623.32,-74.26 621.66,-84.72 628.55,-83.47"/>
</a>
</g>
</g>
<!-- Node17 -->
<g id="Node000017" class="node">
<title>Node17</title>
<g id="a_Node000017"><a xlink:href="common_8hpp.html" target="_top" xlink:title="Common wire&#45;level types and tiny utilities for the UDP high&#45;rate demo.">
<polygon fill="white" stroke="#666666" points="215.5,-74 114.5,-74 114.5,-55 215.5,-55 215.5,-74"/>
<text text-anchor="middle" x="165" y="-62" font-family="Helvetica,sans-Serif" font-size="10.00">udp/common.hpp</text>
</a>
</g>
</g>
<!-- Node2&#45;&gt;Node17 -->
<g id="edge21_Node000002_Node000017" class="edge">
<title>Node2&#45;&gt;Node17</title>
<g id="a_edge21_Node000002_Node000017"><a xlink:title=" ">
<path fill="none" stroke="#63b8ff" d="M460.39,-169.61C412.54,-164.39 334.97,-152.86 272,-129 239.45,-116.67 205.48,-94.7 184.77,-80.11"/>
<polygon fill="#63b8ff" stroke="#63b8ff" points="186.67,-77.16 176.5,-74.18 182.59,-82.85 186.67,-77.16"/>
</a>
</g>
</g>
<!-- Node20 -->
<g id="Node000020" class="node">
<title>Node20</title>
<g id="a_Node000020"><a xlink:href="metrics__http_8hpp.html" target="_top" xlink:title="Minimal HTTP server that exposes runtime metrics for scraping.">
<polygon fill="white" stroke="#666666" points="609,-129 489,-129 489,-110 609,-110 609,-129"/>
<text text-anchor="middle" x="549" y="-117" font-family="Helvetica,sans-Serif" font-size="10.00">udp/metrics_http.hpp</text>
</a>
</g>
</g>
<!-- Node2&#45;&gt;Node20 -->
<g id="edge26_Node000002_Node000020" class="edge">
<title>Node2&#45;&gt;Node20</title>
<g id="a_edge26_Node000002_Node000020"><a xlink:title=" ">
<path fill="none" stroke="#63b8ff" d="M512.27,-164.75C518.54,-157.18 527.79,-146.05 535.43,-136.84"/>
<polygon fill="#63b8ff" stroke="#63b8ff" points="538.17,-139.02 541.87,-129.09 532.79,-134.55 538.17,-139.02"/>
</a>
</g>
</g>
<!-- Node7&#45;&gt;Node3 -->
<g id="edge7_Node000007_Node000003" class="edge">
<title>Node7&#45;&gt;Node3</title>
<g id="a_edge7_Node000007_Node000003"><a xlink:title=" ">
<path fill="none" stroke="#63b8ff" d="M362.1,-54.98C335.84,-46.01 294.33,-31.81 265.28,-21.88"/>
<polygon fill="#63b8ff" stroke="#63b8ff" points="266.17,-18.48 255.57,-18.56 263.9,-25.11 266.17,-18.48"/>
</a>
</g>
</g>
<!-- Node7&#45;&gt;Node4 -->
<g id="edge10_Node000007_Node000004" class="edge">
<title>Node7&#45;&gt;Node4</title>
<g id="a_edge10_Node000007_Node000004"><a xlink:title=" ">
<path fill="none" stroke="#63b8ff" d="M426.91,-54.94C465.28,-46.64 525.14,-33.5 586,-19.19"/>
<polygon fill="#63b8ff" stroke="#63b8ff" points="586.84,-22.59 595.77,-16.89 585.23,-15.78 586.84,-22.59"/>
</a>
</g>
</g>
<!-- Node8 -->
<g id="Node000008" class="node">
<title>Node8</title>
<g id="a_Node000008"><a xlink:title=" ">
<polygon fill="#e0e0e0" stroke="#999999" points="488,-19 444,-19 444,0 488,0 488,-19"/>
<text text-anchor="middle" x="466" y="-7" font-family="Helvetica,sans-Serif" font-size="10.00">string</text>
</a>
</g>
</g>
<!-- Node7&#45;&gt;Node8 -->
<g id="edge8_Node000007_Node000008" class="edge">
<title>Node7&#45;&gt;Node8</title>
<g id="a_edge8_Node000007_Node000008"><a xlink:title=" ">
<path fill="none" stroke="#63b8ff" d="M399.69,-54.98C411.83,-46.84 430.36,-34.41 444.75,-24.76"/>
<polygon fill="#63b8ff" stroke="#63b8ff" points="446.72,-27.65 453.08,-19.17 442.82,-21.84 446.72,-27.65"/>
</a>
</g>
</g>
<!-- Node9 -->
<g id="Node000009" class="node">
<title>Node9</title>
<g id="a_Node000009"><a xlink:title=" ">
<polygon fill="#e0e0e0" stroke="#999999" points="190,-19 140,-19 140,0 190,0 190,-19"/>
<text text-anchor="middle" x="165" y="-7" font-family="Helvetica,sans-Serif" font-size="10.00">cstdint</text>
</a>
</g>
</g>
<!-- Node7&#45;&gt;Node9 -->
<g id="edge9_Node000007_Node000009" class="edge">
<title>Node7&#45;&gt;Node9</title>
<g id="a_edge9_Node000007_Node000009"><a xlink:title=" ">
<path fill="none" stroke="#63b8ff" d="M350.22,-54.94C314.37,-46.56 258.05,-33.32 200.28,-19.29"/>
<polygon fill="#63b8ff" stroke="#63b8ff" points="200.79,-15.81 190.24,-16.85 199.13,-22.61 200.79,-15.81"/>
</a>
</g>
</g>
<!-- Node10 -->
<g id="Node000010" class="node">
<title>Node10</title>
<g id="a_Node000010"><a xlink:title=" ">
<polygon fill="#e0e0e0" stroke="#999999" points="578,-19 506,-19 506,0 578,0 578,-19"/>
<text text-anchor="middle" x="542" y="-7" font-family="Helvetica,sans-Serif" font-size="10.00">netinet/in.h</text>
</a>
</g>
</g>
<!-- Node7&#45;&gt;Node10 -->
<g id="edge11_Node000007_Node000010" class="edge">
<title>Node7&#45;&gt;Node10</title>
<g id="a_edge11_Node000007_Node000010"><a xlink:title=" ">
<path fill="none" stroke="#63b8ff" d="M411.9,-54.98C437.7,-46.16 478.22,-32.31 507.18,-22.41"/>
<polygon fill="#63b8ff" stroke="#63b8ff" points="508.57,-25.63 516.9,-19.08 506.31,-19.01 508.57,-25.63"/>
</a>
</g>
</g>
<!-- Node11 -->
<g id="Node000011" class="node">
<title>Node11</title>
<g id="a_Node000011"><a xlink:title=" ">
<polygon fill="#e0e0e0" stroke="#999999" points="425.5,-19 348.5,-19 348.5,0 425.5,0 425.5,-19"/>
<text text-anchor="middle" x="387" y="-7" font-family="Helvetica,sans-Serif" font-size="10.00">sys/socket.h</text>
</a>
</g>
</g>
<!-- Node7&#45;&gt;Node11 -->
<g id="edge12_Node000007_Node000011" class="edge">
<title>Node7&#45;&gt;Node11</title>
<g id="a_edge12_Node000007_Node000011"><a xlink:title=" ">
<path fill="none" stroke="#63b8ff" d="M387,-54.75C387,-47.8 387,-37.85 387,-29.13"/>
<polygon fill="#63b8ff" stroke="#63b8ff" points="390.5,-29.09 387,-19.09 383.5,-29.09 390.5,-29.09"/>
</a>
</g>
</g>
<!-- Node12 -->
<g id="Node000012" class="node">
<title>Node12</title>
<g id="a_Node000012"><a xlink:title=" ">
<polygon fill="#e0e0e0" stroke="#999999" points="330,-19 274,-19 274,0 330,0 330,-19"/>
<text text-anchor="middle" x="302" y="-7" font-family="Helvetica,sans-Serif" font-size="10.00">unistd.h</text>
</a>
</g>
</g>
<!-- Node7&#45;&gt;Node12 -->
<g id="edge13_Node000007_Node000012" class="edge">
<title>Node7&#45;&gt;Node12</title>
<g id="a_edge13_Node000007_Node000012"><a xlink:title=" ">
<path fill="none" stroke="#63b8ff" d="M373.34,-54.98C360.16,-46.77 339.97,-34.18 324.43,-24.49"/>
<polygon fill="#63b8ff" stroke="#63b8ff" points="326.24,-21.49 315.91,-19.17 322.54,-27.43 326.24,-21.49"/>
</a>
</g>
</g>
<!-- Node13&#45;&gt;Node4 -->
<g id="edge15_Node000013_Node000004" class="edge">
<title>Node13&#45;&gt;Node4</title>
<g id="a_edge15_Node000013_Node000004"><a xlink:title=" ">
<path fill="none" stroke="#63b8ff" d="M621,-54.75C621,-47.8 621,-37.85 621,-29.13"/>
<polygon fill="#63b8ff" stroke="#63b8ff" points="624.5,-29.09 621,-19.09 617.5,-29.09 624.5,-29.09"/>
</a>
</g>
</g>
<!-- Node13&#45;&gt;Node8 -->
<g id="edge19_Node000013_Node000008" class="edge">
<title>Node13&#45;&gt;Node8</title>
<g id="a_edge19_Node000013_Node000008"><a xlink:title=" ">
<path fill="none" stroke="#63b8ff" d="M596.1,-54.98C569.46,-45.88 527.12,-31.4 498.02,-21.45"/>
<polygon fill="#63b8ff" stroke="#63b8ff" points="498.92,-18.06 488.33,-18.13 496.66,-24.68 498.92,-18.06"/>
</a>
</g>
</g>
<!-- Node13&#45;&gt;Node10 -->
<g id="edge18_Node000013_Node000010" class="edge">
<title>Node13&#45;&gt;Node10</title>
<g id="a_edge18_Node000013_Node000010"><a xlink:title=" ">
<path fill="none" stroke="#63b8ff" d="M608.31,-54.98C596.17,-46.84 577.64,-34.41 563.25,-24.76"/>
<polygon fill="#63b8ff" stroke="#63b8ff" points="565.18,-21.84 554.92,-19.17 561.28,-27.65 565.18,-21.84"/>
</a>
</g>
</g>
<!-- Node14 -->
<g id="Node000014" class="node">
<title>Node14</title>
<g id="a_Node000014"><a xlink:title=" ">
<polygon fill="#e0e0e0" stroke="#999999" points="757.5,-19 664.5,-19 664.5,0 757.5,0 757.5,-19"/>
<text text-anchor="middle" x="711" y="-7" font-family="Helvetica,sans-Serif" font-size="10.00">unordered_map</text>
</a>
</g>
</g>
<!-- Node13&#45;&gt;Node14 -->
<g id="edge16_Node000013_Node000014" class="edge">
<title>Node13&#45;&gt;Node14</title>
<g id="a_edge16_Node000013_Node000014"><a xlink:title=" ">
<path fill="none" stroke="#63b8ff" d="M635.46,-54.98C649.42,-46.77 670.79,-34.18 687.25,-24.49"/>
<polygon fill="#63b8ff" stroke="#63b8ff" points="689.44,-27.26 696.28,-19.17 685.88,-21.23 689.44,-27.26"/>
</a>
</g>
</g>
<!-- Node15 -->
<g id="Node000015" class="node">
<title>Node15</title>
<g id="a_Node000015"><a xlink:title=" ">
<polygon fill="#e0e0e0" stroke="#999999" points="824,-19 776,-19 776,0 824,0 824,-19"/>
<text text-anchor="middle" x="800" y="-7" font-family="Helvetica,sans-Serif" font-size="10.00">mutex</text>
</a>
</g>
</g>
<!-- Node13&#45;&gt;Node15 -->
<g id="edge17_Node000013_Node000015" class="edge">
<title>Node13&#45;&gt;Node15</title>
<g id="a_edge17_Node000013_Node000015"><a xlink:title=" ">
<path fill="none" stroke="#63b8ff" d="M649.76,-54.98C681.46,-45.6 732.42,-30.51 766.06,-20.55"/>
<polygon fill="#63b8ff" stroke="#63b8ff" points="767.31,-23.83 775.9,-17.63 765.32,-17.12 767.31,-23.83"/>
</a>
</g>
</g>
<!-- Node16 -->
<g id="Node000016" class="node">
<title>Node16</title>
<g id="a_Node000016"><a xlink:title=" ">
<polygon fill="#e0e0e0" stroke="#999999" points="898,-19 842,-19 842,0 898,0 898,-19"/>
<text text-anchor="middle" x="870" y="-7" font-family="Helvetica,sans-Serif" font-size="10.00">sstream</text>
</a>
</g>
</g>
<!-- Node13&#45;&gt;Node16 -->
<g id="edge20_Node000013_Node000016" class="edge">
<title>Node13&#45;&gt;Node16</title>
<g id="a_edge20_Node000013_Node000016"><a xlink:title=" ">
<path fill="none" stroke="#63b8ff" d="M662.88,-54.95C703.59,-46.59 767.43,-33.33 831.81,-19.23"/>
<polygon fill="#63b8ff" stroke="#63b8ff" points="832.71,-22.62 841.73,-17.05 831.21,-15.78 832.71,-22.62"/>
</a>
</g>
</g>
<!-- Node17&#45;&gt;Node8 -->
<g id="edge24_Node000017_Node000008" class="edge">
<title>Node17&#45;&gt;Node8</title>
<g id="a_edge24_Node000017_Node000008"><a xlink:title=" ">
<path fill="none" stroke="#63b8ff" d="M215.84,-56.57C268.02,-49.13 351.71,-36.27 433.7,-18.86"/>
<polygon fill="#63b8ff" stroke="#63b8ff" points="434.64,-22.24 443.69,-16.72 433.17,-15.4 434.64,-22.24"/>
</a>
</g>
</g>
<!-- Node17&#45;&gt;Node9 -->
<g id="edge22_Node000017_Node000009" class="edge">
<title>Node17&#45;&gt;Node9</title>
<g id="a_edge22_Node000017_Node000009"><a xlink:title=" ">
<path fill="none" stroke="#63b8ff" d="M165,-54.75C165,-47.8 165,-37.85 165,-29.13"/>
<polygon fill="#63b8ff" stroke="#63b8ff" points="168.5,-29.09 165,-19.09 161.5,-29.09 168.5,-29.09"/>
</a>
</g>
</g>
<!-- Node18 -->
<g id="Node000018" class="node">
<title>Node18</title>
<g id="a_Node000018"><a xlink:title=" ">
<polygon fill="#e0e0e0" stroke="#999999" points="121.5,-19 68.5,-19 68.5,0 121.5,0 121.5,-19"/>
<text text-anchor="middle" x="95" y="-7" font-family="Helvetica,sans-Serif" font-size="10.00">cstddef</text>
</a>
</g>
</g>
<!-- Node17&#45;&gt;Node18 -->
<g id="edge23_Node000017_Node000018" class="edge">
<title>Node17&#45;&gt;Node18</title>
<g id="a_edge23_Node000017_Node000018"><a xlink:title=" ">
<path fill="none" stroke="#63b8ff" d="M153.75,-54.98C143.2,-47 127.2,-34.88 114.56,-25.31"/>
<polygon fill="#63b8ff" stroke="#63b8ff" points="116.54,-22.42 106.45,-19.17 112.31,-28 116.54,-22.42"/>
</a>
</g>
</g>
<!-- Node19 -->
<g id="Node000019" class="node">
<title>Node19</title>
<g id="a_Node000019"><a xlink:title=" ">
<polygon fill="#e0e0e0" stroke="#999999" points="50,-19 0,-19 0,0 50,0 50,-19"/>
<text text-anchor="middle" x="25" y="-7" font-family="Helvetica,sans-Serif" font-size="10.00">chrono</text>
</a>
</g>
</g>
<!-- Node17&#45;&gt;Node19 -->
<g id="edge25_Node000017_Node000019" class="edge">
<title>Node17&#45;&gt;Node19</title>
<g id="a_edge25_Node000017_Node000019"><a xlink:title=" ">
<path fill="none" stroke="#63b8ff" d="M142.51,-54.98C119.48,-46.27 83.46,-32.63 57.37,-22.75"/>
<polygon fill="#63b8ff" stroke="#63b8ff" points="58.49,-19.44 47.9,-19.17 56.02,-25.98 58.49,-19.44"/>
</a>
</g>
</g>
<!-- Node20&#45;&gt;Node4 -->
<g id="edge28_Node000020_Node000004" class="edge">
<title>Node20&#45;&gt;Node4</title>
<g id="a_edge28_Node000020_Node000004"><a xlink:title=" ">
<path fill="none" stroke="#63b8ff" d="M550.4,-109.64C552.75,-96.73 558.43,-72.41 570,-55 577.72,-43.38 589.25,-32.96 599.4,-25.13"/>
<polygon fill="#63b8ff" stroke="#63b8ff" points="601.49,-27.94 607.48,-19.2 597.35,-22.3 601.49,-27.94"/>
</a>
</g>
</g>
<!-- Node20&#45;&gt;Node5 -->
<g id="edge27_Node000020_Node000005" class="edge">
<title>Node20&#45;&gt;Node5</title>
<g id="a_edge27_Node000020_Node000005"><a xlink:title=" ">
<path fill="none" stroke="#63b8ff" d="M574.06,-109.98C600.34,-101.06 641.78,-86.98 670.99,-77.05"/>
<polygon fill="#63b8ff" stroke="#63b8ff" points="672.43,-80.26 680.77,-73.73 670.17,-73.64 672.43,-80.26"/>
</a>
</g>
</g>
<!-- Node20&#45;&gt;Node8 -->
<g id="edge29_Node000020_Node000008" class="edge">
<title>Node20&#45;&gt;Node8</title>
<g id="a_edge29_Node000020_Node000008"><a xlink:title=" ">
<path fill="none" stroke="#63b8ff" d="M542.21,-109.66C528.4,-91.69 496.85,-50.64 478.98,-27.38"/>
<polygon fill="#63b8ff" stroke="#63b8ff" points="481.52,-24.95 472.65,-19.16 475.97,-29.22 481.52,-24.95"/>
</a>
</g>
</g>
<!-- Node20&#45;&gt;Node13 -->
<g id="edge30_Node000020_Node000013" class="edge">
<title>Node20&#45;&gt;Node13</title>
<g id="a_edge30_Node000020_Node000013"><a xlink:title=" ">
<path fill="none" stroke="#63b8ff" d="M560.57,-109.98C571.42,-102 587.88,-89.88 600.88,-80.31"/>
<polygon fill="#63b8ff" stroke="#63b8ff" points="603.24,-82.92 609.22,-74.17 599.09,-77.28 603.24,-82.92"/>
</a>
</g>
</g>
</g>
</svg>
