<?xml version="1.0" encoding="UTF-8" standalone="no"?>
<!DOCTYPE svg PUBLIC "-//W3C//DTD SVG 1.1//EN"
 "http://www.w3.org/Graphics/SVG/1.1/DTD/svg11.dtd">
<!-- Generated by graphviz version 2.43.0 (0)
 -->
<!-- Title: include/udp/socket.hpp Pages: 1 -->
<svg width="506pt" height="137pt"
 viewBox="0.00 0.00 505.50 137.00" xmlns="http://www.w3.org/2000/svg" xmlns:xlink="http://www.w3.org/1999/xlink">
<g id="graph0" class="graph" transform="scale(1 1) rotate(0) translate(4 133)">
<title>include/udp/socket.hpp</title>
<!-- Node1 -->
<g id="Node000001" class="node">
<title>Node1</title>
<g id="a_Node000001"><a xlink:title="Socket abstraction for high&#45;rate UDP I/O (batch send/receive) plus a test double.">
<polygon fill="#999999" stroke="#666666" points="301.5,-129 173.5,-129 173.5,-110 301.5,-110 301.5,-129"/>
<text text-anchor="middle" x="237.5" y="-117" font-family="Helvetica,sans-Serif" font-size="10.00">include/udp/socket.hpp</text>
</a>
</g>
</g>
<!-- Node2 -->
<g id="Node000002" class="node">
<title>Node2</title>
<g id="a_Node000002"><a xlink:href="client_8hpp.html" target="_top" xlink:title="High&#45;rate UDP client: pacing + batch send with lightweight counters.">
<polygon fill="white" stroke="#666666" points="171.5,-74 47.5,-74 47.5,-55 171.5,-55 171.5,-74"/>
<text text-anchor="middle" x="109.5" y="-62" font-family="Helvetica,sans-Serif" font-size="10.00">include/udp/client.hpp</text>
</a>
</g>
</g>
<!-- Node1&#45;&gt;Node2 -->
<g id="edge1_Node000001_Node000002" class="edge">
<title>Node1&#45;&gt;Node2</title>
<g id="a_edge1_Node000001_Node000002"><a xlink:title=" ">
<path fill="none" stroke="#63b8ff" d="M207.38,-106.03C183.71,-96.23 151.35,-82.83 130.44,-74.17"/>
<polygon fill="#63b8ff" stroke="#63b8ff" points="206.36,-109.39 216.93,-109.98 209.03,-102.93 206.36,-109.39"/>
</a>
</g>
</g>
<!-- Node4 -->
<g id="Node000004" class="node">
<title>Node4</title>
<g id="a_Node000004"><a xlink:href="main__client_8cpp.html" target="_top" xlink:title="UDP client entry point: parses CLI, configures UdpClient, and runs paced sending.">
<polygon fill="white" stroke="#666666" points="210,-19 99,-19 99,0 210,0 210,-19"/>
<text text-anchor="middle" x="154.5" y="-7" font-family="Helvetica,sans-Serif" font-size="10.00">src/main_client.cpp</text>
</a>
</g>
</g>
<!-- Node1&#45;&gt;Node4 -->
<g id="edge7_Node000001_Node000004" class="edge">
<title>Node1&#45;&gt;Node4</title>
<g id="a_edge7_Node000001_Node000004"><a xlink:title=" ">
<path fill="none" stroke="#63b8ff" d="M224.58,-101.69C206.66,-78.37 174.9,-37.05 161.15,-19.16"/>
<polygon fill="#63b8ff" stroke="#63b8ff" points="221.84,-103.87 230.71,-109.66 227.39,-99.6 221.84,-103.87"/>
</a>
</g>
</g>
<!-- Node5 -->
<g id="Node000005" class="node">
<title>Node5</title>
<g id="a_Node000005"><a xlink:href="server_8hpp.html" target="_top" xlink:title="High&#45;rate UDP server: batch receive, optional echo, runtime metrics.">
<polygon fill="white" stroke="#666666" points="393,-74 266,-74 266,-55 393,-55 393,-74"/>
<text text-anchor="middle" x="329.5" y="-62" font-family="Helvetica,sans-Serif" font-size="10.00">include/udp/server.hpp</text>
</a>
</g>
</g>
<!-- Node1&#45;&gt;Node5 -->
<g id="edge4_Node000001_Node000005" class="edge">
<title>Node1&#45;&gt;Node5</title>
<g id="a_edge4_Node000001_Node000005"><a xlink:title=" ">
<path fill="none" stroke="#63b8ff" d="M260.99,-104.97C277.81,-95.28 299.95,-82.52 314.45,-74.17"/>
<polygon fill="#63b8ff" stroke="#63b8ff" points="259.2,-101.96 252.28,-109.98 262.69,-108.03 259.2,-101.96"/>
</a>
</g>
</g>
<!-- Node6 -->
<g id="Node000006" class="node">
<title>Node6</title>
<g id="a_Node000006"><a xlink:href="main__server_8cpp.html" target="_top" xlink:title="UDP server entry point: parses CLI, starts/stops UdpServer, handles signals.">
<polygon fill="white" stroke="#666666" points="342.5,-19 228.5,-19 228.5,0 342.5,0 342.5,-19"/>
<text text-anchor="middle" x="285.5" y="-7" font-family="Helvetica,sans-Serif" font-size="10.00">src/main_server.cpp</text>
</a>
</g>
</g>
<!-- Node1&#45;&gt;Node6 -->
<g id="edge8_Node000001_Node000006" class="edge">
<title>Node1&#45;&gt;Node6</title>
<g id="a_edge8_Node000001_Node000006"><a xlink:title=" ">
<path fill="none" stroke="#63b8ff" d="M241.65,-99.55C244.84,-86.65 249.84,-69.37 256.5,-55 262.63,-41.78 272.24,-27.93 278.7,-19.26"/>
<polygon fill="#63b8ff" stroke="#63b8ff" points="238.18,-99.05 239.32,-109.58 245,-100.64 238.18,-99.05"/>
</a>
</g>
</g>
<!-- Node8 -->
<g id="Node000008" class="node">
<title>Node8</title>
<g id="a_Node000008"><a xlink:href="socket_8cpp.html" target="_top" xlink:title="POSIX/Linux UDP socket implementation and in&#45;memory MockSocket.">
<polygon fill="white" stroke="#666666" points="497.5,-74 411.5,-74 411.5,-55 497.5,-55 497.5,-74"/>
<text text-anchor="middle" x="454.5" y="-62" font-family="Helvetica,sans-Serif" font-size="10.00">src/socket.cpp</text>
</a>
</g>
</g>
<!-- Node1&#45;&gt;Node8 -->
<g id="edge9_Node000001_Node000008" class="edge">
<title>Node1&#45;&gt;Node8</title>
<g id="a_edge9_Node000001_Node000008"><a xlink:title=" ">
<path fill="none" stroke="#63b8ff" d="M282.27,-107.56C322.92,-97.64 382.03,-83.2 419.36,-74.08"/>
<polygon fill="#63b8ff" stroke="#63b8ff" points="281.25,-104.21 272.36,-109.98 282.91,-111.01 281.25,-104.21"/>
</a>
</g>
</g>
<!-- Node3 -->
<g id="Node000003" class="node">
<title>Node3</title>
<g id="a_Node000003"><a xlink:href="client_8cpp.html" target="_top" xlink:title="UdpClient implementation: paced batch sending toward a target PPS.">
<polygon fill="white" stroke="#666666" points="81,-19 0,-19 0,0 81,0 81,-19"/>
<text text-anchor="middle" x="40.5" y="-7" font-family="Helvetica,sans-Serif" font-size="10.00">src/client.cpp</text>
</a>
</g>
</g>
<!-- Node2&#45;&gt;Node3 -->
<g id="edge2_Node000002_Node000003" class="edge">
<title>Node2&#45;&gt;Node3</title>
<g id="a_edge2_Node000002_Node000003"><a xlink:title=" ">
<path fill="none" stroke="#63b8ff" d="M90.46,-48.88C78.04,-39.34 62.26,-27.21 51.79,-19.17"/>
<polygon fill="#63b8ff" stroke="#63b8ff" points="88.35,-51.67 98.41,-54.98 92.62,-46.12 88.35,-51.67"/>
</a>
</g>
</g>
<!-- Node2&#45;&gt;Node4 -->
<g id="edge3_Node000002_Node000004" class="edge">
<title>Node2&#45;&gt;Node4</title>
<g id="a_edge3_Node000002_Node000004"><a xlink:title=" ">
<path fill="none" stroke="#63b8ff" d="M123.55,-46.96C131.39,-37.72 140.83,-26.6 147.21,-19.09"/>
<polygon fill="#63b8ff" stroke="#63b8ff" points="120.74,-44.86 116.93,-54.75 126.07,-49.39 120.74,-44.86"/>
</a>
</g>
</g>
<!-- Node5&#45;&gt;Node6 -->
<g id="edge5_Node000005_Node000006" class="edge">
<title>Node5&#45;&gt;Node6</title>
<g id="a_edge5_Node000005_Node000006"><a xlink:title=" ">
<path fill="none" stroke="#63b8ff" d="M315.77,-46.96C308.1,-37.72 298.87,-26.6 292.63,-19.09"/>
<polygon fill="#63b8ff" stroke="#63b8ff" points="313.15,-49.29 322.23,-54.75 318.54,-44.82 313.15,-49.29"/>
</a>
</g>
</g>
<!-- Node7 -->
<g id="Node000007" class="node">
<title>Node7</title>
<g id="a_Node000007"><a xlink:href="server_8cpp.html" target="_top" xlink:title="UdpServer implementation: batch recv, optional echo, PPS accounting, and /metrics integration.">
<polygon fill="white" stroke="#666666" points="444.5,-19 360.5,-19 360.5,0 444.5,0 444.5,-19"/>
<text text-anchor="middle" x="402.5" y="-7" font-family="Helvetica,sans-Serif" font-size="10.00">src/server.cpp</text>
</a>
</g>
</g>
<!-- Node5&#45;&gt;Node7 -->
<g id="edge6_Node000005_Node000007" class="edge">
<title>Node5&#45;&gt;Node7</title>
<g id="a_edge6_Node000005_Node000007"><a xlink:title=" ">
<path fill="none" stroke="#63b8ff" d="M349.64,-48.88C362.78,-39.34 379.48,-27.21 390.56,-19.17"/>
<polygon fill="#63b8ff" stroke="#63b8ff" points="347.26,-46.28 341.23,-54.98 351.38,-51.94 347.26,-46.28"/>
</a>
</g>
</g>
</g>
</svg>
