<?xml version="1.0" encoding="UTF-8" standalone="no"?>
<!DOCTYPE svg PUBLIC "-//W3C//DTD SVG 1.1//EN"
 "http://www.w3.org/Graphics/SVG/1.1/DTD/svg11.dtd">
<!-- Generated by graphviz version 2.43.0 (0)
 -->
<!-- Title: include/udp/stats.hpp Pages: 1 -->
<svg width="514pt" height="203pt"
 viewBox="0.00 0.00 513.50 203.00" xmlns="http://www.w3.org/2000/svg" xmlns:xlink="http://www.w3.org/1999/xlink">
<g id="graph0" class="graph" transform="scale(1 1) rotate(0) translate(4 199)">
<title>include/udp/stats.hpp</title>
<!-- Node1 -->
<g id="Node000001" class="node">
<title>Node1</title>
<g id="a_Node000001"><a xlink:title="Lightweight, thread&#45;safe counters and client tracking for UDP throughput tests.">
<polygon fill="#999999" stroke="#666666" points="370,-195 249,-195 249,-176 370,-176 370,-195"/>
<text text-anchor="middle" x="309.5" y="-183" font-family="Helvetica,sans-Serif" font-size="10.00">include/udp/stats.hpp</text>
</a>
</g>
</g>
<!-- Node2 -->
<g id="Node000002" class="node">
<title>Node2</title>
<g id="a_Node000002"><a xlink:href="client_8hpp.html" target="_top" xlink:title="High&#45;rate UDP client: pacing + batch send with lightweight counters.">
<polygon fill="white" stroke="#666666" points="216.5,-134.5 92.5,-134.5 92.5,-115.5 216.5,-115.5 216.5,-134.5"/>
<text text-anchor="middle" x="154.5" y="-122.5" font-family="Helvetica,sans-Serif" font-size="10.00">include/udp/client.hpp</text>
</a>
</g>
</g>
<!-- Node1&#45;&gt;Node2 -->
<g id="edge1_Node000001_Node000002" class="edge">
<title>Node1&#45;&gt;Node2</title>
<g id="a_edge1_Node000001_Node000002"><a xlink:title=" ">
<path fill="none" stroke="#63b8ff" d="M277.38,-172.38C247.42,-161.07 203.48,-144.49 177.07,-134.52"/>
<polygon fill="#63b8ff" stroke="#63b8ff" points="276.37,-175.74 286.96,-175.99 278.84,-169.19 276.37,-175.74"/>
</a>
</g>
</g>
<!-- Node5 -->
<g id="Node000005" class="node">
<title>Node5</title>
<g id="a_Node000005"><a xlink:href="metrics__http_8hpp.html" target="_top" xlink:title="Minimal HTTP server that exposes runtime metrics for scraping.">
<polygon fill="white" stroke="#666666" points="409,-140 296,-140 296,-110 409,-110 409,-140"/>
<text text-anchor="start" x="304" y="-128" font-family="Helvetica,sans-Serif" font-size="10.00">include/udp/metrics</text>
<text text-anchor="middle" x="352.5" y="-117" font-family="Helvetica,sans-Serif" font-size="10.00">_http.hpp</text>
</a>
</g>
</g>
<!-- Node1&#45;&gt;Node5 -->
<g id="edge4_Node000001_Node000005" class="edge">
<title>Node1&#45;&gt;Node5</title>
<g id="a_edge4_Node000001_Node000005"><a xlink:title=" ">
<path fill="none" stroke="#63b8ff" d="M321.92,-167.61C328.32,-158.89 336.04,-148.39 342.13,-140.11"/>
<polygon fill="#63b8ff" stroke="#63b8ff" points="318.95,-165.74 315.84,-175.87 324.59,-169.88 318.95,-165.74"/>
</a>
</g>
</g>
<!-- Node6 -->
<g id="Node000006" class="node">
<title>Node6</title>
<g id="a_Node000006"><a xlink:href="server_8hpp.html" target="_top" xlink:title="High&#45;rate UDP server: batch receive, optional echo, runtime metrics.">
<polygon fill="white" stroke="#666666" points="355,-74 228,-74 228,-55 355,-55 355,-74"/>
<text text-anchor="middle" x="291.5" y="-62" font-family="Helvetica,sans-Serif" font-size="10.00">include/udp/server.hpp</text>
</a>
</g>
</g>
<!-- Node1&#45;&gt;Node6 -->
<g id="edge9_Node000001_Node000006" class="edge">
<title>Node1&#45;&gt;Node6</title>
<g id="a_edge9_Node000001_Node000006"><a xlink:title=" ">
<path fill="none" stroke="#63b8ff" d="M298.08,-167.15C293.52,-159.22 288.81,-149.49 286.5,-140 280.86,-116.82 285.91,-88.48 289.2,-74.36"/>
<polygon fill="#63b8ff" stroke="#63b8ff" points="295.18,-169.11 303.4,-175.8 301.14,-165.45 295.18,-169.11"/>
</a>
</g>
</g>
<!-- Node10 -->
<g id="Node000010" class="node">
<title>Node10</title>
<g id="a_Node000010"><a xlink:href="stats_8cpp.html" target="_top" xlink:title="Implementation unit placeholder for udp::Stats.">
<polygon fill="white" stroke="#666666" points="505.5,-134.5 427.5,-134.5 427.5,-115.5 505.5,-115.5 505.5,-134.5"/>
<text text-anchor="middle" x="466.5" y="-122.5" font-family="Helvetica,sans-Serif" font-size="10.00">src/stats.cpp</text>
</a>
</g>
</g>
<!-- Node1&#45;&gt;Node10 -->
<g id="edge10_Node000001_Node000010" class="edge">
<title>Node1&#45;&gt;Node10</title>
<g id="a_edge10_Node000001_Node000010"><a xlink:title=" ">
<path fill="none" stroke="#63b8ff" d="M342.03,-172.38C372.38,-161.07 416.89,-144.49 443.64,-134.52"/>
<polygon fill="#63b8ff" stroke="#63b8ff" points="340.48,-169.22 332.33,-175.99 342.92,-175.78 340.48,-169.22"/>
</a>
</g>
</g>
<!-- Node3 -->
<g id="Node000003" class="node">
<title>Node3</title>
<g id="a_Node000003"><a xlink:href="client_8cpp.html" target="_top" xlink:title="UdpClient implementation: paced batch sending toward a target PPS.">
<polygon fill="white" stroke="#666666" points="81,-74 0,-74 0,-55 81,-55 81,-74"/>
<text text-anchor="middle" x="40.5" y="-62" font-family="Helvetica,sans-Serif" font-size="10.00">src/client.cpp</text>
</a>
</g>
</g>
<!-- Node2&#45;&gt;Node3 -->
<g id="edge2_Node000002_Node000003" class="edge">
<title>Node2&#45;&gt;Node3</title>
<g id="a_edge2_Node000002_Node000003"><a xlink:title=" ">
<path fill="none" stroke="#63b8ff" d="M128.63,-110.73C106.81,-99.53 76.19,-83.82 57.39,-74.17"/>
<polygon fill="#63b8ff" stroke="#63b8ff" points="127.18,-113.92 137.68,-115.37 130.38,-107.69 127.18,-113.92"/>
</a>
</g>
</g>
<!-- Node4 -->
<g id="Node000004" class="node">
<title>Node4</title>
<g id="a_Node000004"><a xlink:href="main__client_8cpp.html" target="_top" xlink:title="UDP client entry point: parses CLI, configures UdpClient, and runs paced sending.">
<polygon fill="white" stroke="#666666" points="210,-74 99,-74 99,-55 210,-55 210,-74"/>
<text text-anchor="middle" x="154.5" y="-62" font-family="Helvetica,sans-Serif" font-size="10.00">src/main_client.cpp</text>
</a>
</g>
</g>
<!-- Node2&#45;&gt;Node4 -->
<g id="edge3_Node000002_Node000004" class="edge">
<title>Node2&#45;&gt;Node4</title>
<g id="a_edge3_Node000002_Node000004"><a xlink:title=" ">
<path fill="none" stroke="#63b8ff" d="M154.5,-105.16C154.5,-94.74 154.5,-82.3 154.5,-74.17"/>
<polygon fill="#63b8ff" stroke="#63b8ff" points="151,-105.37 154.5,-115.37 158,-105.37 151,-105.37"/>
</a>
</g>
</g>
<!-- Node5&#45;&gt;Node6 -->
<g id="edge5_Node000005_Node000006" class="edge">
<title>Node5&#45;&gt;Node6</title>
<g id="a_edge5_Node000005_Node000006"><a xlink:title=" ">
<path fill="none" stroke="#63b8ff" d="M330.26,-102.67C320.03,-92.86 308.45,-81.76 300.64,-74.27"/>
<polygon fill="#63b8ff" stroke="#63b8ff" points="328.09,-105.44 337.73,-109.84 332.94,-100.39 328.09,-105.44"/>
</a>
</g>
</g>
<!-- Node9 -->
<g id="Node000009" class="node">
<title>Node9</title>
<g id="a_Node000009"><a xlink:href="metrics__http_8cpp.html" target="_top" xlink:title="Minimal /metrics HTTP server exposing udp::Stats (Prometheus&#45;like text format).">
<polygon fill="white" stroke="#666666" points="489.5,-74 373.5,-74 373.5,-55 489.5,-55 489.5,-74"/>
<text text-anchor="middle" x="431.5" y="-62" font-family="Helvetica,sans-Serif" font-size="10.00">src/metrics_http.cpp</text>
</a>
</g>
</g>
<!-- Node5&#45;&gt;Node9 -->
<g id="edge8_Node000005_Node000009" class="edge">
<title>Node5&#45;&gt;Node9</title>
<g id="a_edge8_Node000005_Node000009"><a xlink:title=" ">
<path fill="none" stroke="#63b8ff" d="M379.76,-103.82C393.37,-93.73 409.15,-82.05 419.66,-74.27"/>
<polygon fill="#63b8ff" stroke="#63b8ff" points="377.58,-101.07 371.62,-109.84 381.74,-106.7 377.58,-101.07"/>
</a>
</g>
</g>
<!-- Node7 -->
<g id="Node000007" class="node">
<title>Node7</title>
<g id="a_Node000007"><a xlink:href="main__server_8cpp.html" target="_top" xlink:title="UDP server entry point: parses CLI, starts/stops UdpServer, handles signals.">
<polygon fill="white" stroke="#666666" points="290.5,-19 176.5,-19 176.5,0 290.5,0 290.5,-19"/>
<text text-anchor="middle" x="233.5" y="-7" font-family="Helvetica,sans-Serif" font-size="10.00">src/main_server.cpp</text>
</a>
</g>
</g>
<!-- Node6&#45;&gt;Node7 -->
<g id="edge6_Node000006_Node000007" class="edge">
<title>Node6&#45;&gt;Node7</title>
<g id="a_edge6_Node000006_Node000007"><a xlink:title=" ">
<path fill="none" stroke="#63b8ff" d="M274.59,-48.04C264.3,-38.64 251.53,-26.98 242.99,-19.17"/>
<polygon fill="#63b8ff" stroke="#63b8ff" points="272.44,-50.82 282.18,-54.98 277.16,-45.66 272.44,-50.82"/>
</a>
</g>
</g>
<!-- Node8 -->
<g id="Node000008" class="node">
<title>Node8</title>
<g id="a_Node000008"><a xlink:href="server_8cpp.html" target="_top" xlink:title="UdpServer implementation: batch recv, optional echo, PPS accounting, and /metrics integration.">
<polygon fill="white" stroke="#666666" points="392.5,-19 308.5,-19 308.5,0 392.5,0 392.5,-19"/>
<text text-anchor="middle" x="350.5" y="-7" font-family="Helvetica,sans-Serif" font-size="10.00">src/server.cpp</text>
</a>
</g>
</g>
<!-- Node6&#45;&gt;Node8 -->
<g id="edge7_Node000006_Node000008" class="edge">
<title>Node6&#45;&gt;Node8</title>
<g id="a_edge7_Node000006_Node000008"><a xlink:title=" ">
<path fill="none" stroke="#63b8ff" d="M308.7,-48.04C319.17,-38.64 332.15,-26.98 340.85,-19.17"/>
<polygon fill="#63b8ff" stroke="#63b8ff" points="306.08,-45.7 300.98,-54.98 310.76,-50.91 306.08,-45.7"/>
</a>
</g>
</g>
</g>
</svg>
